%TF.GenerationSoftware,KiCad,Pcbnew,(6.0.11)*%
%TF.CreationDate,2023-02-16T17:01:17+01:00*%
%TF.ProjectId,uCKicad,75434b69-6361-4642-9e6b-696361645f70,rev?*%
%TF.SameCoordinates,Original*%
%TF.FileFunction,Copper,L2,Bot*%
%TF.FilePolarity,Positive*%
%FSLAX46Y46*%
G04 Gerber Fmt 4.6, Leading zero omitted, Abs format (unit mm)*
G04 Created by KiCad (PCBNEW (6.0.11)) date 2023-02-16 17:01:17*
%MOMM*%
%LPD*%
G01*
G04 APERTURE LIST*
G04 Aperture macros list*
%AMRoundRect*
0 Rectangle with rounded corners*
0 $1 Rounding radius*
0 $2 $3 $4 $5 $6 $7 $8 $9 X,Y pos of 4 corners*
0 Add a 4 corners polygon primitive as box body*
4,1,4,$2,$3,$4,$5,$6,$7,$8,$9,$2,$3,0*
0 Add four circle primitives for the rounded corners*
1,1,$1+$1,$2,$3*
1,1,$1+$1,$4,$5*
1,1,$1+$1,$6,$7*
1,1,$1+$1,$8,$9*
0 Add four rect primitives between the rounded corners*
20,1,$1+$1,$2,$3,$4,$5,0*
20,1,$1+$1,$4,$5,$6,$7,0*
20,1,$1+$1,$6,$7,$8,$9,0*
20,1,$1+$1,$8,$9,$2,$3,0*%
G04 Aperture macros list end*
%TA.AperFunction,ComponentPad*%
%ADD10C,6.400000*%
%TD*%
%TA.AperFunction,ComponentPad*%
%ADD11RoundRect,0.250000X-0.750000X0.600000X-0.750000X-0.600000X0.750000X-0.600000X0.750000X0.600000X0*%
%TD*%
%TA.AperFunction,ComponentPad*%
%ADD12O,2.000000X1.700000*%
%TD*%
%TA.AperFunction,ComponentPad*%
%ADD13RoundRect,0.250000X-0.600000X-0.750000X0.600000X-0.750000X0.600000X0.750000X-0.600000X0.750000X0*%
%TD*%
%TA.AperFunction,ComponentPad*%
%ADD14O,1.700000X2.000000*%
%TD*%
%TA.AperFunction,ComponentPad*%
%ADD15RoundRect,0.250000X0.750000X-0.600000X0.750000X0.600000X-0.750000X0.600000X-0.750000X-0.600000X0*%
%TD*%
%TA.AperFunction,ViaPad*%
%ADD16C,1.200000*%
%TD*%
%TA.AperFunction,Conductor*%
%ADD17C,0.300000*%
%TD*%
%TA.AperFunction,Conductor*%
%ADD18C,0.500000*%
%TD*%
G04 APERTURE END LIST*
D10*
%TO.P,H1,1,1*%
%TO.N,GND*%
X90000000Y-80000000D03*
%TD*%
D11*
%TO.P,J3,1,Pin_1*%
%TO.N,DAC_OUT*%
X140000000Y-98000000D03*
D12*
%TO.P,J3,2,Pin_2*%
%TO.N,GND*%
X140000000Y-100500000D03*
%TD*%
D10*
%TO.P,H4,1,1*%
%TO.N,GND*%
X140000000Y-80000000D03*
%TD*%
D13*
%TO.P,J4,1,Pin_1*%
%TO.N,+5V*%
X114000000Y-80000000D03*
D14*
%TO.P,J4,2,Pin_2*%
%TO.N,GND*%
X116500000Y-80000000D03*
%TD*%
D15*
%TO.P,J2,1,Pin_1*%
%TO.N,ADC_IN1*%
X90000000Y-100500000D03*
D12*
%TO.P,J2,2,Pin_2*%
%TO.N,GND*%
X90000000Y-98000000D03*
%TD*%
D10*
%TO.P,H2,1,1*%
%TO.N,GND*%
X90000000Y-120000000D03*
%TD*%
%TO.P,H3,1,1*%
%TO.N,GND*%
X140000000Y-120000000D03*
%TD*%
D16*
%TO.N,GND*%
X105410000Y-100584000D03*
X128270000Y-102108000D03*
%TO.N,ADC_IN1*%
X111353102Y-105479873D03*
X104140000Y-109220000D03*
%TO.N,USART2_RX*%
X115824000Y-104394000D03*
X121666000Y-97536000D03*
%TO.N,USART2_TX*%
X122936000Y-98552000D03*
X116586000Y-105918000D03*
%TO.N,NRST*%
X115062000Y-102870000D03*
X124128000Y-92886000D03*
%TO.N,DAC_OUT*%
X116332000Y-117348000D03*
X120650000Y-117348000D03*
%TD*%
D17*
%TO.N,USART2_RX*%
X121666000Y-97536000D02*
X116586000Y-102616000D01*
X116586000Y-102616000D02*
X116586000Y-103632000D01*
X116586000Y-103632000D02*
X115824000Y-104394000D01*
%TO.N,USART2_TX*%
X116586000Y-105918000D02*
X121412000Y-100584000D01*
X121412000Y-100584000D02*
X121412000Y-100076000D01*
X121412000Y-100076000D02*
X122936000Y-98552000D01*
%TO.N,NRST*%
X124128000Y-92886000D02*
X115062000Y-102870000D01*
D18*
%TO.N,ADC_IN1*%
X104140000Y-109220000D02*
X107612975Y-109220000D01*
X107612975Y-109220000D02*
X111353102Y-105479873D01*
D17*
%TO.N,DAC_OUT*%
X120650000Y-117348000D02*
X116332000Y-117348000D01*
%TD*%
%TA.AperFunction,Conductor*%
%TO.N,GND*%
G36*
X139970018Y-74510000D02*
G01*
X139984851Y-74512310D01*
X139984855Y-74512310D01*
X139993724Y-74513691D01*
X140014664Y-74510953D01*
X140036202Y-74509997D01*
X140224026Y-74517766D01*
X140448278Y-74527041D01*
X140458656Y-74527901D01*
X140734674Y-74562307D01*
X140898702Y-74582753D01*
X140908967Y-74584465D01*
X141072054Y-74618661D01*
X141342976Y-74675467D01*
X141353072Y-74678023D01*
X141778101Y-74804561D01*
X141787938Y-74807938D01*
X142201081Y-74969147D01*
X142210581Y-74973314D01*
X142608983Y-75168081D01*
X142618141Y-75173037D01*
X142999085Y-75400030D01*
X143007804Y-75405726D01*
X143368705Y-75663405D01*
X143376923Y-75669801D01*
X143715326Y-75956413D01*
X143722987Y-75963467D01*
X144036533Y-76277013D01*
X144043587Y-76284674D01*
X144330199Y-76623077D01*
X144336595Y-76631295D01*
X144594274Y-76992196D01*
X144599970Y-77000915D01*
X144826963Y-77381859D01*
X144831918Y-77391015D01*
X144921391Y-77574034D01*
X145026682Y-77789411D01*
X145030853Y-77798919D01*
X145192062Y-78212062D01*
X145195439Y-78221899D01*
X145321977Y-78646928D01*
X145324533Y-78657024D01*
X145391729Y-78977496D01*
X145415534Y-79091030D01*
X145417248Y-79101302D01*
X145472099Y-79541344D01*
X145472959Y-79551722D01*
X145489694Y-79956335D01*
X145488302Y-79980920D01*
X145486309Y-79993724D01*
X145487473Y-80002626D01*
X145487473Y-80002628D01*
X145490436Y-80025283D01*
X145491500Y-80041621D01*
X145491500Y-119950633D01*
X145490000Y-119970018D01*
X145487690Y-119984851D01*
X145487690Y-119984855D01*
X145486309Y-119993724D01*
X145489047Y-120014659D01*
X145490003Y-120036205D01*
X145472959Y-120448278D01*
X145472099Y-120458656D01*
X145417248Y-120898698D01*
X145415534Y-120908970D01*
X145324533Y-121342976D01*
X145321977Y-121353072D01*
X145195439Y-121778101D01*
X145192062Y-121787938D01*
X145030853Y-122201081D01*
X145026686Y-122210581D01*
X144918323Y-122432241D01*
X144831919Y-122608983D01*
X144826963Y-122618141D01*
X144599970Y-122999085D01*
X144594274Y-123007804D01*
X144336595Y-123368705D01*
X144330199Y-123376923D01*
X144043587Y-123715326D01*
X144036533Y-123722987D01*
X143722987Y-124036533D01*
X143715326Y-124043587D01*
X143376923Y-124330199D01*
X143368705Y-124336595D01*
X143007804Y-124594274D01*
X142999085Y-124599970D01*
X142618141Y-124826963D01*
X142608985Y-124831918D01*
X142210581Y-125026686D01*
X142201081Y-125030853D01*
X141787938Y-125192062D01*
X141778101Y-125195439D01*
X141353072Y-125321977D01*
X141342975Y-125324533D01*
X140908967Y-125415535D01*
X140898702Y-125417247D01*
X140734674Y-125437693D01*
X140458656Y-125472099D01*
X140448278Y-125472959D01*
X140270676Y-125480305D01*
X140043661Y-125489694D01*
X140019080Y-125488302D01*
X140006276Y-125486309D01*
X139997374Y-125487473D01*
X139997372Y-125487473D01*
X139982323Y-125489441D01*
X139974714Y-125490436D01*
X139958379Y-125491500D01*
X90049367Y-125491500D01*
X90029982Y-125490000D01*
X90015149Y-125487690D01*
X90015145Y-125487690D01*
X90006276Y-125486309D01*
X89985336Y-125489047D01*
X89963798Y-125490003D01*
X89775974Y-125482234D01*
X89551722Y-125472959D01*
X89541344Y-125472099D01*
X89265326Y-125437693D01*
X89101298Y-125417247D01*
X89091033Y-125415535D01*
X88657025Y-125324533D01*
X88646928Y-125321977D01*
X88221899Y-125195439D01*
X88212062Y-125192062D01*
X87798919Y-125030853D01*
X87789419Y-125026686D01*
X87391015Y-124831918D01*
X87381859Y-124826963D01*
X87000915Y-124599970D01*
X86992196Y-124594274D01*
X86631295Y-124336595D01*
X86623077Y-124330199D01*
X86284674Y-124043587D01*
X86277013Y-124036533D01*
X85963467Y-123722987D01*
X85956413Y-123715326D01*
X85669801Y-123376923D01*
X85663405Y-123368705D01*
X85405726Y-123007804D01*
X85400030Y-122999085D01*
X85279844Y-122797386D01*
X87567759Y-122797386D01*
X87575216Y-122807753D01*
X87814935Y-123001874D01*
X87820272Y-123005751D01*
X88140685Y-123213830D01*
X88146394Y-123217127D01*
X88486811Y-123390578D01*
X88492836Y-123393260D01*
X88849502Y-123530171D01*
X88855784Y-123532212D01*
X89224816Y-123631094D01*
X89231266Y-123632465D01*
X89608629Y-123692234D01*
X89615167Y-123692920D01*
X89996699Y-123712916D01*
X90003301Y-123712916D01*
X90384833Y-123692920D01*
X90391371Y-123692234D01*
X90768734Y-123632465D01*
X90775184Y-123631094D01*
X91144216Y-123532212D01*
X91150498Y-123530171D01*
X91507164Y-123393260D01*
X91513189Y-123390578D01*
X91853606Y-123217127D01*
X91859315Y-123213830D01*
X92179728Y-123005751D01*
X92185065Y-123001874D01*
X92423835Y-122808522D01*
X92431527Y-122797386D01*
X137567759Y-122797386D01*
X137575216Y-122807753D01*
X137814935Y-123001874D01*
X137820272Y-123005751D01*
X138140685Y-123213830D01*
X138146394Y-123217127D01*
X138486811Y-123390578D01*
X138492836Y-123393260D01*
X138849502Y-123530171D01*
X138855784Y-123532212D01*
X139224816Y-123631094D01*
X139231266Y-123632465D01*
X139608629Y-123692234D01*
X139615167Y-123692920D01*
X139996699Y-123712916D01*
X140003301Y-123712916D01*
X140384833Y-123692920D01*
X140391371Y-123692234D01*
X140768734Y-123632465D01*
X140775184Y-123631094D01*
X141144216Y-123532212D01*
X141150498Y-123530171D01*
X141507164Y-123393260D01*
X141513189Y-123390578D01*
X141853606Y-123217127D01*
X141859315Y-123213830D01*
X142179728Y-123005751D01*
X142185065Y-123001874D01*
X142423835Y-122808522D01*
X142432300Y-122796267D01*
X142425966Y-122785176D01*
X140012812Y-120372022D01*
X139998868Y-120364408D01*
X139997035Y-120364539D01*
X139990420Y-120368790D01*
X137574900Y-122784310D01*
X137567759Y-122797386D01*
X92431527Y-122797386D01*
X92432300Y-122796267D01*
X92425966Y-122785176D01*
X90012812Y-120372022D01*
X89998868Y-120364408D01*
X89997035Y-120364539D01*
X89990420Y-120368790D01*
X87574900Y-122784310D01*
X87567759Y-122797386D01*
X85279844Y-122797386D01*
X85173037Y-122618141D01*
X85168081Y-122608983D01*
X85081677Y-122432241D01*
X84973314Y-122210581D01*
X84969147Y-122201081D01*
X84807938Y-121787938D01*
X84804561Y-121778101D01*
X84678023Y-121353072D01*
X84675467Y-121342976D01*
X84584466Y-120908970D01*
X84582752Y-120898698D01*
X84527901Y-120458656D01*
X84527041Y-120448278D01*
X84510462Y-120047439D01*
X84512100Y-120021329D01*
X84512769Y-120017351D01*
X84512770Y-120017345D01*
X84513576Y-120012552D01*
X84513689Y-120003301D01*
X86287084Y-120003301D01*
X86307080Y-120384833D01*
X86307766Y-120391371D01*
X86367535Y-120768734D01*
X86368906Y-120775184D01*
X86467788Y-121144216D01*
X86469829Y-121150498D01*
X86606740Y-121507164D01*
X86609422Y-121513189D01*
X86782872Y-121853603D01*
X86786169Y-121859313D01*
X86994253Y-122179735D01*
X86998123Y-122185061D01*
X87191478Y-122423835D01*
X87203733Y-122432300D01*
X87214824Y-122425966D01*
X89627978Y-120012812D01*
X89634356Y-120001132D01*
X90364408Y-120001132D01*
X90364539Y-120002965D01*
X90368790Y-120009580D01*
X92784310Y-122425100D01*
X92797386Y-122432241D01*
X92807753Y-122424784D01*
X93001877Y-122185061D01*
X93005747Y-122179735D01*
X93213831Y-121859313D01*
X93217128Y-121853603D01*
X93390578Y-121513189D01*
X93393260Y-121507164D01*
X93530171Y-121150498D01*
X93532212Y-121144216D01*
X93631094Y-120775184D01*
X93632465Y-120768734D01*
X93692234Y-120391371D01*
X93692920Y-120384833D01*
X93712916Y-120003301D01*
X136287084Y-120003301D01*
X136307080Y-120384833D01*
X136307766Y-120391371D01*
X136367535Y-120768734D01*
X136368906Y-120775184D01*
X136467788Y-121144216D01*
X136469829Y-121150498D01*
X136606740Y-121507164D01*
X136609422Y-121513189D01*
X136782872Y-121853603D01*
X136786169Y-121859313D01*
X136994253Y-122179735D01*
X136998123Y-122185061D01*
X137191478Y-122423835D01*
X137203733Y-122432300D01*
X137214824Y-122425966D01*
X139627978Y-120012812D01*
X139634356Y-120001132D01*
X140364408Y-120001132D01*
X140364539Y-120002965D01*
X140368790Y-120009580D01*
X142784310Y-122425100D01*
X142797386Y-122432241D01*
X142807753Y-122424784D01*
X143001877Y-122185061D01*
X143005747Y-122179735D01*
X143213831Y-121859313D01*
X143217128Y-121853603D01*
X143390578Y-121513189D01*
X143393260Y-121507164D01*
X143530171Y-121150498D01*
X143532212Y-121144216D01*
X143631094Y-120775184D01*
X143632465Y-120768734D01*
X143692234Y-120391371D01*
X143692920Y-120384833D01*
X143712916Y-120003301D01*
X143712916Y-119996699D01*
X143692920Y-119615167D01*
X143692234Y-119608629D01*
X143632465Y-119231266D01*
X143631094Y-119224816D01*
X143532212Y-118855784D01*
X143530171Y-118849502D01*
X143393260Y-118492836D01*
X143390578Y-118486811D01*
X143217128Y-118146397D01*
X143213831Y-118140687D01*
X143005747Y-117820265D01*
X143001877Y-117814939D01*
X142808522Y-117576165D01*
X142796267Y-117567700D01*
X142785176Y-117574034D01*
X140372022Y-119987188D01*
X140364408Y-120001132D01*
X139634356Y-120001132D01*
X139635592Y-119998868D01*
X139635461Y-119997035D01*
X139631210Y-119990420D01*
X137215690Y-117574900D01*
X137202614Y-117567759D01*
X137192247Y-117575216D01*
X136998123Y-117814939D01*
X136994253Y-117820265D01*
X136786169Y-118140687D01*
X136782872Y-118146397D01*
X136609422Y-118486811D01*
X136606740Y-118492836D01*
X136469829Y-118849502D01*
X136467788Y-118855784D01*
X136368906Y-119224816D01*
X136367535Y-119231266D01*
X136307766Y-119608629D01*
X136307080Y-119615167D01*
X136287084Y-119996699D01*
X136287084Y-120003301D01*
X93712916Y-120003301D01*
X93712916Y-119996699D01*
X93692920Y-119615167D01*
X93692234Y-119608629D01*
X93632465Y-119231266D01*
X93631094Y-119224816D01*
X93532212Y-118855784D01*
X93530171Y-118849502D01*
X93393260Y-118492836D01*
X93390578Y-118486811D01*
X93217128Y-118146397D01*
X93213831Y-118140687D01*
X93005747Y-117820265D01*
X93001877Y-117814939D01*
X92808522Y-117576165D01*
X92796267Y-117567700D01*
X92785176Y-117574034D01*
X90372022Y-119987188D01*
X90364408Y-120001132D01*
X89634356Y-120001132D01*
X89635592Y-119998868D01*
X89635461Y-119997035D01*
X89631210Y-119990420D01*
X87215690Y-117574900D01*
X87202614Y-117567759D01*
X87192247Y-117575216D01*
X86998123Y-117814939D01*
X86994253Y-117820265D01*
X86786169Y-118140687D01*
X86782872Y-118146397D01*
X86609422Y-118486811D01*
X86606740Y-118492836D01*
X86469829Y-118849502D01*
X86467788Y-118855784D01*
X86368906Y-119224816D01*
X86367535Y-119231266D01*
X86307766Y-119608629D01*
X86307080Y-119615167D01*
X86287084Y-119996699D01*
X86287084Y-120003301D01*
X84513689Y-120003301D01*
X84513729Y-120000000D01*
X84509773Y-119972376D01*
X84508500Y-119954514D01*
X84508500Y-117203733D01*
X87567700Y-117203733D01*
X87574034Y-117214824D01*
X89987188Y-119627978D01*
X90001132Y-119635592D01*
X90002965Y-119635461D01*
X90009580Y-119631210D01*
X92321931Y-117318859D01*
X115219132Y-117318859D01*
X115232457Y-117522151D01*
X115282605Y-117719610D01*
X115367898Y-117904624D01*
X115485479Y-118070997D01*
X115631410Y-118213157D01*
X115636206Y-118216362D01*
X115636209Y-118216364D01*
X115704149Y-118261760D01*
X115800803Y-118326342D01*
X115806106Y-118328620D01*
X115806109Y-118328622D01*
X115895115Y-118366862D01*
X115987987Y-118406763D01*
X116060817Y-118423243D01*
X116181055Y-118450450D01*
X116181060Y-118450451D01*
X116186692Y-118451725D01*
X116192463Y-118451952D01*
X116192465Y-118451952D01*
X116255470Y-118454427D01*
X116390263Y-118459723D01*
X116591883Y-118430490D01*
X116597347Y-118428635D01*
X116597352Y-118428634D01*
X116779327Y-118366862D01*
X116779332Y-118366860D01*
X116784799Y-118365004D01*
X116962551Y-118265458D01*
X117119186Y-118135186D01*
X117188429Y-118051930D01*
X117247365Y-118012347D01*
X117285302Y-118006500D01*
X119692655Y-118006500D01*
X119760776Y-118026502D01*
X119795551Y-118059779D01*
X119803479Y-118070997D01*
X119949410Y-118213157D01*
X119954206Y-118216362D01*
X119954209Y-118216364D01*
X120022149Y-118261760D01*
X120118803Y-118326342D01*
X120124106Y-118328620D01*
X120124109Y-118328622D01*
X120213115Y-118366862D01*
X120305987Y-118406763D01*
X120378817Y-118423243D01*
X120499055Y-118450450D01*
X120499060Y-118450451D01*
X120504692Y-118451725D01*
X120510463Y-118451952D01*
X120510465Y-118451952D01*
X120573470Y-118454427D01*
X120708263Y-118459723D01*
X120909883Y-118430490D01*
X120915347Y-118428635D01*
X120915352Y-118428634D01*
X121097327Y-118366862D01*
X121097332Y-118366860D01*
X121102799Y-118365004D01*
X121280551Y-118265458D01*
X121437186Y-118135186D01*
X121567458Y-117978551D01*
X121667004Y-117800799D01*
X121668860Y-117795332D01*
X121668862Y-117795327D01*
X121730634Y-117613352D01*
X121730635Y-117613347D01*
X121732490Y-117607883D01*
X121761723Y-117406263D01*
X121763249Y-117348000D01*
X121749993Y-117203733D01*
X137567700Y-117203733D01*
X137574034Y-117214824D01*
X139987188Y-119627978D01*
X140001132Y-119635592D01*
X140002965Y-119635461D01*
X140009580Y-119631210D01*
X142425100Y-117215690D01*
X142432241Y-117202614D01*
X142424784Y-117192247D01*
X142185065Y-116998126D01*
X142179728Y-116994249D01*
X141859315Y-116786170D01*
X141853606Y-116782873D01*
X141513189Y-116609422D01*
X141507164Y-116606740D01*
X141150498Y-116469829D01*
X141144216Y-116467788D01*
X140775184Y-116368906D01*
X140768734Y-116367535D01*
X140391371Y-116307766D01*
X140384833Y-116307080D01*
X140003301Y-116287084D01*
X139996699Y-116287084D01*
X139615167Y-116307080D01*
X139608629Y-116307766D01*
X139231266Y-116367535D01*
X139224816Y-116368906D01*
X138855784Y-116467788D01*
X138849502Y-116469829D01*
X138492836Y-116606740D01*
X138486811Y-116609422D01*
X138146397Y-116782872D01*
X138140687Y-116786169D01*
X137820265Y-116994253D01*
X137814939Y-116998123D01*
X137576165Y-117191478D01*
X137567700Y-117203733D01*
X121749993Y-117203733D01*
X121744608Y-117145126D01*
X121689307Y-116949047D01*
X121678680Y-116927496D01*
X121601756Y-116771510D01*
X121599201Y-116766329D01*
X121580796Y-116741681D01*
X121480758Y-116607715D01*
X121480758Y-116607714D01*
X121477305Y-116603091D01*
X121387646Y-116520211D01*
X121331943Y-116468719D01*
X121331940Y-116468717D01*
X121327703Y-116464800D01*
X121281675Y-116435759D01*
X121160288Y-116359169D01*
X121160283Y-116359167D01*
X121155404Y-116356088D01*
X120966180Y-116280595D01*
X120766366Y-116240849D01*
X120760592Y-116240773D01*
X120760588Y-116240773D01*
X120657452Y-116239424D01*
X120562655Y-116238183D01*
X120556958Y-116239162D01*
X120556957Y-116239162D01*
X120367567Y-116271705D01*
X120361870Y-116272684D01*
X120170734Y-116343198D01*
X119995649Y-116447363D01*
X119842478Y-116581690D01*
X119821962Y-116607715D01*
X119795323Y-116641506D01*
X119737442Y-116682619D01*
X119696373Y-116689500D01*
X117286995Y-116689500D01*
X117218874Y-116669498D01*
X117186038Y-116638890D01*
X117173592Y-116622223D01*
X117159305Y-116603091D01*
X117069646Y-116520211D01*
X117013943Y-116468719D01*
X117013940Y-116468717D01*
X117009703Y-116464800D01*
X116963675Y-116435759D01*
X116842288Y-116359169D01*
X116842283Y-116359167D01*
X116837404Y-116356088D01*
X116648180Y-116280595D01*
X116448366Y-116240849D01*
X116442592Y-116240773D01*
X116442588Y-116240773D01*
X116339452Y-116239424D01*
X116244655Y-116238183D01*
X116238958Y-116239162D01*
X116238957Y-116239162D01*
X116049567Y-116271705D01*
X116043870Y-116272684D01*
X115852734Y-116343198D01*
X115677649Y-116447363D01*
X115524478Y-116581690D01*
X115520911Y-116586215D01*
X115520906Y-116586220D01*
X115444912Y-116682619D01*
X115398351Y-116741681D01*
X115395662Y-116746792D01*
X115395660Y-116746795D01*
X115374944Y-116786170D01*
X115303492Y-116921978D01*
X115243078Y-117116543D01*
X115219132Y-117318859D01*
X92321931Y-117318859D01*
X92425100Y-117215690D01*
X92432241Y-117202614D01*
X92424784Y-117192247D01*
X92185065Y-116998126D01*
X92179728Y-116994249D01*
X91859315Y-116786170D01*
X91853606Y-116782873D01*
X91513189Y-116609422D01*
X91507164Y-116606740D01*
X91150498Y-116469829D01*
X91144216Y-116467788D01*
X90775184Y-116368906D01*
X90768734Y-116367535D01*
X90391371Y-116307766D01*
X90384833Y-116307080D01*
X90003301Y-116287084D01*
X89996699Y-116287084D01*
X89615167Y-116307080D01*
X89608629Y-116307766D01*
X89231266Y-116367535D01*
X89224816Y-116368906D01*
X88855784Y-116467788D01*
X88849502Y-116469829D01*
X88492836Y-116606740D01*
X88486811Y-116609422D01*
X88146397Y-116782872D01*
X88140687Y-116786169D01*
X87820265Y-116994253D01*
X87814939Y-116998123D01*
X87576165Y-117191478D01*
X87567700Y-117203733D01*
X84508500Y-117203733D01*
X84508500Y-109190859D01*
X103027132Y-109190859D01*
X103040457Y-109394151D01*
X103090605Y-109591610D01*
X103175898Y-109776624D01*
X103293479Y-109942997D01*
X103439410Y-110085157D01*
X103444206Y-110088362D01*
X103444209Y-110088364D01*
X103512149Y-110133760D01*
X103608803Y-110198342D01*
X103614106Y-110200620D01*
X103614109Y-110200622D01*
X103703115Y-110238862D01*
X103795987Y-110278763D01*
X103868817Y-110295243D01*
X103989055Y-110322450D01*
X103989060Y-110322451D01*
X103994692Y-110323725D01*
X104000463Y-110323952D01*
X104000465Y-110323952D01*
X104063470Y-110326427D01*
X104198263Y-110331723D01*
X104399883Y-110302490D01*
X104405347Y-110300635D01*
X104405352Y-110300634D01*
X104587327Y-110238862D01*
X104587332Y-110238860D01*
X104592799Y-110237004D01*
X104770551Y-110137458D01*
X104926657Y-110007626D01*
X104991821Y-109979445D01*
X105007226Y-109978500D01*
X107545905Y-109978500D01*
X107564855Y-109979933D01*
X107579090Y-109982099D01*
X107579094Y-109982099D01*
X107586324Y-109983199D01*
X107593616Y-109982606D01*
X107593619Y-109982606D01*
X107638993Y-109978915D01*
X107649208Y-109978500D01*
X107657268Y-109978500D01*
X107670558Y-109976951D01*
X107685482Y-109975211D01*
X107689857Y-109974778D01*
X107755314Y-109969454D01*
X107755317Y-109969453D01*
X107762612Y-109968860D01*
X107769576Y-109966604D01*
X107775535Y-109965413D01*
X107781390Y-109964029D01*
X107788656Y-109963182D01*
X107857302Y-109938265D01*
X107861430Y-109936848D01*
X107923911Y-109916607D01*
X107923913Y-109916606D01*
X107930874Y-109914351D01*
X107937129Y-109910555D01*
X107942603Y-109908049D01*
X107948033Y-109905330D01*
X107954912Y-109902833D01*
X108015951Y-109862814D01*
X108019655Y-109860477D01*
X108082082Y-109822595D01*
X108090459Y-109815197D01*
X108090483Y-109815224D01*
X108093475Y-109812571D01*
X108096708Y-109809868D01*
X108102827Y-109805856D01*
X108156103Y-109749617D01*
X108158481Y-109747175D01*
X111278767Y-106626889D01*
X111341079Y-106592863D01*
X111372806Y-106590081D01*
X111411365Y-106591596D01*
X111612985Y-106562363D01*
X111618449Y-106560508D01*
X111618454Y-106560507D01*
X111800429Y-106498735D01*
X111800434Y-106498733D01*
X111805901Y-106496877D01*
X111983653Y-106397331D01*
X112140288Y-106267059D01*
X112270560Y-106110424D01*
X112345694Y-105976263D01*
X112367282Y-105937715D01*
X112367283Y-105937713D01*
X112370106Y-105932672D01*
X112371962Y-105927205D01*
X112371964Y-105927200D01*
X112433736Y-105745225D01*
X112433737Y-105745220D01*
X112435592Y-105739756D01*
X112464825Y-105538136D01*
X112466351Y-105479873D01*
X112447710Y-105276999D01*
X112446142Y-105271439D01*
X112393977Y-105086479D01*
X112393976Y-105086477D01*
X112392409Y-105080920D01*
X112381782Y-105059369D01*
X112304858Y-104903383D01*
X112302303Y-104898202D01*
X112283898Y-104873554D01*
X112183860Y-104739588D01*
X112183860Y-104739587D01*
X112180407Y-104734964D01*
X112030805Y-104596673D01*
X111976458Y-104562383D01*
X111863390Y-104491042D01*
X111863385Y-104491040D01*
X111858506Y-104487961D01*
X111669282Y-104412468D01*
X111469468Y-104372722D01*
X111463694Y-104372646D01*
X111463690Y-104372646D01*
X111360554Y-104371297D01*
X111265757Y-104370056D01*
X111260060Y-104371035D01*
X111260059Y-104371035D01*
X111126410Y-104394000D01*
X111064972Y-104404557D01*
X110873836Y-104475071D01*
X110698751Y-104579236D01*
X110545580Y-104713563D01*
X110542013Y-104718088D01*
X110542008Y-104718093D01*
X110455433Y-104827913D01*
X110419453Y-104873554D01*
X110324594Y-105053851D01*
X110264180Y-105248416D01*
X110240234Y-105450732D01*
X110240764Y-105458824D01*
X110240523Y-105459904D01*
X110240461Y-105462269D01*
X110239997Y-105462257D01*
X110225265Y-105528106D01*
X110204130Y-105556164D01*
X107335699Y-108424595D01*
X107273387Y-108458621D01*
X107246604Y-108461500D01*
X105001917Y-108461500D01*
X104933796Y-108441498D01*
X104916388Y-108428024D01*
X104821948Y-108340724D01*
X104817703Y-108336800D01*
X104740179Y-108287886D01*
X104650288Y-108231169D01*
X104650283Y-108231167D01*
X104645404Y-108228088D01*
X104456180Y-108152595D01*
X104256366Y-108112849D01*
X104250592Y-108112773D01*
X104250588Y-108112773D01*
X104147452Y-108111424D01*
X104052655Y-108110183D01*
X104046958Y-108111162D01*
X104046957Y-108111162D01*
X103857567Y-108143705D01*
X103851870Y-108144684D01*
X103660734Y-108215198D01*
X103485649Y-108319363D01*
X103332478Y-108453690D01*
X103328911Y-108458215D01*
X103328906Y-108458220D01*
X103242331Y-108568040D01*
X103206351Y-108613681D01*
X103111492Y-108793978D01*
X103051078Y-108988543D01*
X103027132Y-109190859D01*
X84508500Y-109190859D01*
X84508500Y-102840859D01*
X113949132Y-102840859D01*
X113962457Y-103044151D01*
X114012605Y-103241610D01*
X114097898Y-103426624D01*
X114215479Y-103592997D01*
X114361410Y-103735157D01*
X114366206Y-103738362D01*
X114366209Y-103738364D01*
X114472440Y-103809345D01*
X114530803Y-103848342D01*
X114536106Y-103850620D01*
X114536109Y-103850622D01*
X114692875Y-103917974D01*
X114747568Y-103963242D01*
X114769105Y-104030894D01*
X114763469Y-104071106D01*
X114736793Y-104157016D01*
X114736790Y-104157028D01*
X114735078Y-104162543D01*
X114711132Y-104364859D01*
X114724457Y-104568151D01*
X114774605Y-104765610D01*
X114859898Y-104950624D01*
X114977479Y-105116997D01*
X115123410Y-105259157D01*
X115128206Y-105262362D01*
X115128209Y-105262364D01*
X115266264Y-105354609D01*
X115292803Y-105372342D01*
X115298106Y-105374620D01*
X115298109Y-105374622D01*
X115454875Y-105441974D01*
X115509568Y-105487242D01*
X115531105Y-105554894D01*
X115525469Y-105595106D01*
X115498793Y-105681016D01*
X115498790Y-105681028D01*
X115497078Y-105686543D01*
X115473132Y-105888859D01*
X115486457Y-106092151D01*
X115536605Y-106289610D01*
X115621898Y-106474624D01*
X115739479Y-106640997D01*
X115885410Y-106783157D01*
X115890206Y-106786362D01*
X115890209Y-106786364D01*
X115958149Y-106831760D01*
X116054803Y-106896342D01*
X116060106Y-106898620D01*
X116060109Y-106898622D01*
X116149115Y-106936862D01*
X116241987Y-106976763D01*
X116314817Y-106993243D01*
X116435055Y-107020450D01*
X116435060Y-107020451D01*
X116440692Y-107021725D01*
X116446463Y-107021952D01*
X116446465Y-107021952D01*
X116509470Y-107024427D01*
X116644263Y-107029723D01*
X116845883Y-107000490D01*
X116851347Y-106998635D01*
X116851352Y-106998634D01*
X117033327Y-106936862D01*
X117033332Y-106936860D01*
X117038799Y-106935004D01*
X117216551Y-106835458D01*
X117373186Y-106705186D01*
X117503458Y-106548551D01*
X117603004Y-106370799D01*
X117604860Y-106365332D01*
X117604862Y-106365327D01*
X117666634Y-106183352D01*
X117666635Y-106183347D01*
X117668490Y-106177883D01*
X117697723Y-105976263D01*
X117699249Y-105918000D01*
X117683544Y-105747076D01*
X117697229Y-105677411D01*
X117715582Y-105651012D01*
X120928507Y-102099885D01*
X121895419Y-101031194D01*
X121896986Y-101029493D01*
X121943547Y-100979910D01*
X121948972Y-100974133D01*
X121968782Y-100938099D01*
X121975906Y-100926640D01*
X121994925Y-100899416D01*
X121994928Y-100899409D01*
X121999464Y-100892917D01*
X122002245Y-100885494D01*
X122008773Y-100868071D01*
X122016349Y-100851576D01*
X122025306Y-100835283D01*
X122025308Y-100835279D01*
X122029124Y-100828337D01*
X122039352Y-100788504D01*
X122043400Y-100775640D01*
X122046045Y-100768580D01*
X138518752Y-100768580D01*
X138543477Y-100886421D01*
X138546537Y-100896617D01*
X138627263Y-101101029D01*
X138631994Y-101110561D01*
X138746016Y-101298462D01*
X138752280Y-101307052D01*
X138896327Y-101473052D01*
X138903958Y-101480472D01*
X139073911Y-101619826D01*
X139082678Y-101625850D01*
X139273682Y-101734576D01*
X139283346Y-101739041D01*
X139489941Y-101814031D01*
X139500208Y-101816802D01*
X139717655Y-101856123D01*
X139725884Y-101857056D01*
X139730376Y-101857268D01*
X139743124Y-101853525D01*
X139744329Y-101852135D01*
X139746000Y-101844452D01*
X139746000Y-101835970D01*
X140254000Y-101835970D01*
X140258310Y-101850648D01*
X140270193Y-101852711D01*
X140374325Y-101843876D01*
X140384797Y-101842086D01*
X140597535Y-101786870D01*
X140607575Y-101783335D01*
X140807970Y-101693063D01*
X140817256Y-101687894D01*
X140999575Y-101565150D01*
X141007870Y-101558481D01*
X141166900Y-101406772D01*
X141173941Y-101398814D01*
X141305141Y-101222475D01*
X141310745Y-101213438D01*
X141410357Y-101017516D01*
X141414357Y-101007665D01*
X141479534Y-100797760D01*
X141481817Y-100787376D01*
X141483861Y-100771957D01*
X141481665Y-100757793D01*
X141468478Y-100754000D01*
X140272115Y-100754000D01*
X140256876Y-100758475D01*
X140255671Y-100759865D01*
X140254000Y-100767548D01*
X140254000Y-101835970D01*
X139746000Y-101835970D01*
X139746000Y-100772115D01*
X139741525Y-100756876D01*
X139740135Y-100755671D01*
X139732452Y-100754000D01*
X138533808Y-100754000D01*
X138520277Y-100757973D01*
X138518752Y-100768580D01*
X122046045Y-100768580D01*
X122057832Y-100737116D01*
X122060668Y-100710738D01*
X122063905Y-100692871D01*
X122068529Y-100674863D01*
X122070500Y-100667188D01*
X122070500Y-100626064D01*
X122071222Y-100612593D01*
X122074773Y-100579571D01*
X122074773Y-100579570D01*
X122075620Y-100571693D01*
X122071808Y-100545443D01*
X122070500Y-100527335D01*
X122070500Y-100400950D01*
X122090502Y-100332829D01*
X122107405Y-100311855D01*
X122725590Y-99693670D01*
X122787902Y-99659644D01*
X122819632Y-99656862D01*
X122994263Y-99663723D01*
X123195883Y-99634490D01*
X123201347Y-99632635D01*
X123201352Y-99632634D01*
X123383327Y-99570862D01*
X123383332Y-99570860D01*
X123388799Y-99569004D01*
X123396692Y-99564584D01*
X123552512Y-99477320D01*
X123566551Y-99469458D01*
X123723186Y-99339186D01*
X123853458Y-99182551D01*
X123953004Y-99004799D01*
X123954860Y-98999332D01*
X123954862Y-98999327D01*
X124016634Y-98817352D01*
X124016635Y-98817347D01*
X124018490Y-98811883D01*
X124041904Y-98650400D01*
X138491500Y-98650400D01*
X138491837Y-98653646D01*
X138491837Y-98653650D01*
X138498041Y-98713438D01*
X138502474Y-98756166D01*
X138558450Y-98923946D01*
X138651522Y-99074348D01*
X138776697Y-99199305D01*
X138782927Y-99203145D01*
X138782928Y-99203146D01*
X138795621Y-99210970D01*
X138922258Y-99289030D01*
X138922780Y-99289352D01*
X138970273Y-99342124D01*
X138981697Y-99412196D01*
X138953423Y-99477320D01*
X138943636Y-99487782D01*
X138833094Y-99593234D01*
X138826059Y-99601186D01*
X138694859Y-99777525D01*
X138689255Y-99786562D01*
X138589643Y-99982484D01*
X138585643Y-99992335D01*
X138520466Y-100202240D01*
X138518183Y-100212624D01*
X138516139Y-100228043D01*
X138518335Y-100242207D01*
X138531522Y-100246000D01*
X141466192Y-100246000D01*
X141479723Y-100242027D01*
X141481248Y-100231420D01*
X141456523Y-100113579D01*
X141453463Y-100103383D01*
X141372737Y-99898971D01*
X141368006Y-99889439D01*
X141253984Y-99701538D01*
X141247720Y-99692948D01*
X141103673Y-99526948D01*
X141096044Y-99519530D01*
X141064431Y-99493609D01*
X141024436Y-99434949D01*
X141022504Y-99363979D01*
X141059248Y-99303230D01*
X141078018Y-99289030D01*
X141208234Y-99208450D01*
X141224348Y-99198478D01*
X141349305Y-99073303D01*
X141380510Y-99022680D01*
X141438275Y-98928968D01*
X141438276Y-98928966D01*
X141442115Y-98922738D01*
X141497797Y-98754861D01*
X141508500Y-98650400D01*
X141508500Y-97349600D01*
X141508163Y-97346350D01*
X141498238Y-97250692D01*
X141498237Y-97250688D01*
X141497526Y-97243834D01*
X141441550Y-97076054D01*
X141348478Y-96925652D01*
X141223303Y-96800695D01*
X141215224Y-96795715D01*
X141078968Y-96711725D01*
X141078966Y-96711724D01*
X141072738Y-96707885D01*
X140940519Y-96664030D01*
X140911389Y-96654368D01*
X140911387Y-96654368D01*
X140904861Y-96652203D01*
X140898025Y-96651503D01*
X140898022Y-96651502D01*
X140854969Y-96647091D01*
X140800400Y-96641500D01*
X139199600Y-96641500D01*
X139196354Y-96641837D01*
X139196350Y-96641837D01*
X139100692Y-96651762D01*
X139100688Y-96651763D01*
X139093834Y-96652474D01*
X139087298Y-96654655D01*
X139087296Y-96654655D01*
X138955194Y-96698728D01*
X138926054Y-96708450D01*
X138775652Y-96801522D01*
X138650695Y-96926697D01*
X138646855Y-96932927D01*
X138646854Y-96932928D01*
X138641559Y-96941519D01*
X138557885Y-97077262D01*
X138502203Y-97245139D01*
X138491500Y-97349600D01*
X138491500Y-98650400D01*
X124041904Y-98650400D01*
X124047723Y-98610263D01*
X124049249Y-98552000D01*
X124030608Y-98349126D01*
X124016121Y-98297760D01*
X123976875Y-98158606D01*
X123976874Y-98158604D01*
X123975307Y-98153047D01*
X123885201Y-97970329D01*
X123763305Y-97807091D01*
X123673646Y-97724211D01*
X123617943Y-97672719D01*
X123617940Y-97672717D01*
X123613703Y-97668800D01*
X123510023Y-97603383D01*
X123446288Y-97563169D01*
X123446283Y-97563167D01*
X123441404Y-97560088D01*
X123252180Y-97484595D01*
X123052366Y-97444849D01*
X123046592Y-97444773D01*
X123046588Y-97444773D01*
X122883513Y-97442639D01*
X122815660Y-97421747D01*
X122769873Y-97367488D01*
X122761271Y-97339610D01*
X122761138Y-97338891D01*
X122760608Y-97333126D01*
X122705307Y-97137047D01*
X122687623Y-97101186D01*
X122617756Y-96959510D01*
X122615201Y-96954329D01*
X122598438Y-96931880D01*
X122496758Y-96795715D01*
X122496758Y-96795714D01*
X122493305Y-96791091D01*
X122379585Y-96685969D01*
X122347943Y-96656719D01*
X122347940Y-96656717D01*
X122343703Y-96652800D01*
X122297675Y-96623759D01*
X122176288Y-96547169D01*
X122176283Y-96547167D01*
X122171404Y-96544088D01*
X121990906Y-96472076D01*
X121935047Y-96428256D01*
X121911747Y-96361192D01*
X121928403Y-96292177D01*
X121944316Y-96270343D01*
X123974610Y-94034466D01*
X124035213Y-93997481D01*
X124072837Y-93993267D01*
X124091599Y-93994004D01*
X124186263Y-93997723D01*
X124387883Y-93968490D01*
X124393347Y-93966635D01*
X124393352Y-93966634D01*
X124575327Y-93904862D01*
X124575332Y-93904860D01*
X124580799Y-93903004D01*
X124758551Y-93803458D01*
X124915186Y-93673186D01*
X125045458Y-93516551D01*
X125145004Y-93338799D01*
X125146860Y-93333332D01*
X125146862Y-93333327D01*
X125208634Y-93151352D01*
X125208635Y-93151347D01*
X125210490Y-93145883D01*
X125239723Y-92944263D01*
X125241249Y-92886000D01*
X125222608Y-92683126D01*
X125167307Y-92487047D01*
X125156680Y-92465496D01*
X125079756Y-92309510D01*
X125077201Y-92304329D01*
X125058796Y-92279681D01*
X124958758Y-92145715D01*
X124958758Y-92145714D01*
X124955305Y-92141091D01*
X124805703Y-92002800D01*
X124759675Y-91973759D01*
X124638288Y-91897169D01*
X124638283Y-91897167D01*
X124633404Y-91894088D01*
X124444180Y-91818595D01*
X124244366Y-91778849D01*
X124238592Y-91778773D01*
X124238588Y-91778773D01*
X124135452Y-91777424D01*
X124040655Y-91776183D01*
X124034958Y-91777162D01*
X124034957Y-91777162D01*
X123845567Y-91809705D01*
X123839870Y-91810684D01*
X123648734Y-91881198D01*
X123473649Y-91985363D01*
X123320478Y-92119690D01*
X123316911Y-92124215D01*
X123316906Y-92124220D01*
X123230331Y-92234040D01*
X123194351Y-92279681D01*
X123099492Y-92459978D01*
X123039078Y-92654543D01*
X123015132Y-92856859D01*
X123015510Y-92862625D01*
X123028455Y-93060128D01*
X123012951Y-93129411D01*
X122996006Y-93153073D01*
X122229772Y-93996894D01*
X115232828Y-101702332D01*
X115216044Y-101720815D01*
X115155441Y-101757800D01*
X115121114Y-101762100D01*
X114974655Y-101760183D01*
X114968958Y-101761162D01*
X114968957Y-101761162D01*
X114779567Y-101793705D01*
X114773870Y-101794684D01*
X114582734Y-101865198D01*
X114407649Y-101969363D01*
X114254478Y-102103690D01*
X114250911Y-102108215D01*
X114250906Y-102108220D01*
X114164331Y-102218040D01*
X114128351Y-102263681D01*
X114033492Y-102443978D01*
X113973078Y-102638543D01*
X113949132Y-102840859D01*
X84508500Y-102840859D01*
X84508500Y-101150400D01*
X88491500Y-101150400D01*
X88491837Y-101153646D01*
X88491837Y-101153650D01*
X88498041Y-101213438D01*
X88502474Y-101256166D01*
X88558450Y-101423946D01*
X88651522Y-101574348D01*
X88776697Y-101699305D01*
X88782927Y-101703145D01*
X88782928Y-101703146D01*
X88920090Y-101787694D01*
X88927262Y-101792115D01*
X88993337Y-101814031D01*
X89088611Y-101845632D01*
X89088613Y-101845632D01*
X89095139Y-101847797D01*
X89101975Y-101848497D01*
X89101978Y-101848498D01*
X89145031Y-101852909D01*
X89199600Y-101858500D01*
X90800400Y-101858500D01*
X90803646Y-101858163D01*
X90803650Y-101858163D01*
X90899308Y-101848238D01*
X90899312Y-101848237D01*
X90906166Y-101847526D01*
X90912702Y-101845345D01*
X90912704Y-101845345D01*
X91044806Y-101801272D01*
X91073946Y-101791550D01*
X91224348Y-101698478D01*
X91349305Y-101573303D01*
X91354331Y-101565150D01*
X91438275Y-101428968D01*
X91438276Y-101428966D01*
X91442115Y-101422738D01*
X91497797Y-101254861D01*
X91508500Y-101150400D01*
X91508500Y-99849600D01*
X91508163Y-99846350D01*
X91498238Y-99750692D01*
X91498237Y-99750688D01*
X91497526Y-99743834D01*
X91487356Y-99713349D01*
X91443868Y-99583002D01*
X91441550Y-99576054D01*
X91348478Y-99425652D01*
X91223303Y-99300695D01*
X91204902Y-99289352D01*
X91166066Y-99265413D01*
X91077220Y-99210647D01*
X91029727Y-99157876D01*
X91018303Y-99087804D01*
X91046577Y-99022680D01*
X91056364Y-99012218D01*
X91166906Y-98906766D01*
X91173941Y-98898814D01*
X91305141Y-98722475D01*
X91310745Y-98713438D01*
X91410357Y-98517516D01*
X91414357Y-98507665D01*
X91479534Y-98297760D01*
X91481817Y-98287376D01*
X91483861Y-98271957D01*
X91481665Y-98257793D01*
X91468478Y-98254000D01*
X88533808Y-98254000D01*
X88520277Y-98257973D01*
X88518752Y-98268580D01*
X88543477Y-98386421D01*
X88546537Y-98396617D01*
X88627263Y-98601029D01*
X88631994Y-98610561D01*
X88746016Y-98798462D01*
X88752280Y-98807052D01*
X88896327Y-98973052D01*
X88903956Y-98980470D01*
X88935569Y-99006391D01*
X88975564Y-99065051D01*
X88977496Y-99136021D01*
X88940752Y-99196770D01*
X88921983Y-99210969D01*
X88775652Y-99301522D01*
X88650695Y-99426697D01*
X88646855Y-99432927D01*
X88646854Y-99432928D01*
X88568315Y-99560342D01*
X88557885Y-99577262D01*
X88536024Y-99643170D01*
X88521863Y-99685867D01*
X88502203Y-99745139D01*
X88491500Y-99849600D01*
X88491500Y-101150400D01*
X84508500Y-101150400D01*
X84508500Y-97728043D01*
X88516139Y-97728043D01*
X88518335Y-97742207D01*
X88531522Y-97746000D01*
X89727885Y-97746000D01*
X89743124Y-97741525D01*
X89744329Y-97740135D01*
X89746000Y-97732452D01*
X89746000Y-97727885D01*
X90254000Y-97727885D01*
X90258475Y-97743124D01*
X90259865Y-97744329D01*
X90267548Y-97746000D01*
X91466192Y-97746000D01*
X91479723Y-97742027D01*
X91481248Y-97731420D01*
X91456523Y-97613579D01*
X91453463Y-97603383D01*
X91372737Y-97398971D01*
X91368006Y-97389439D01*
X91253984Y-97201538D01*
X91247720Y-97192948D01*
X91103673Y-97026948D01*
X91096042Y-97019528D01*
X90926089Y-96880174D01*
X90917322Y-96874150D01*
X90726318Y-96765424D01*
X90716654Y-96760959D01*
X90510059Y-96685969D01*
X90499792Y-96683198D01*
X90282345Y-96643877D01*
X90274116Y-96642944D01*
X90269624Y-96642732D01*
X90256876Y-96646475D01*
X90255671Y-96647865D01*
X90254000Y-96655548D01*
X90254000Y-97727885D01*
X89746000Y-97727885D01*
X89746000Y-96664030D01*
X89741690Y-96649352D01*
X89729807Y-96647289D01*
X89625675Y-96656124D01*
X89615203Y-96657914D01*
X89402465Y-96713130D01*
X89392425Y-96716665D01*
X89192030Y-96806937D01*
X89182744Y-96812106D01*
X89000425Y-96934850D01*
X88992130Y-96941519D01*
X88833100Y-97093228D01*
X88826059Y-97101186D01*
X88694859Y-97277525D01*
X88689255Y-97286562D01*
X88589643Y-97482484D01*
X88585643Y-97492335D01*
X88520466Y-97702240D01*
X88518183Y-97712624D01*
X88516139Y-97728043D01*
X84508500Y-97728043D01*
X84508500Y-82797386D01*
X87567759Y-82797386D01*
X87575216Y-82807753D01*
X87814935Y-83001874D01*
X87820272Y-83005751D01*
X88140685Y-83213830D01*
X88146394Y-83217127D01*
X88486811Y-83390578D01*
X88492836Y-83393260D01*
X88849502Y-83530171D01*
X88855784Y-83532212D01*
X89224816Y-83631094D01*
X89231266Y-83632465D01*
X89608629Y-83692234D01*
X89615167Y-83692920D01*
X89996699Y-83712916D01*
X90003301Y-83712916D01*
X90384833Y-83692920D01*
X90391371Y-83692234D01*
X90768734Y-83632465D01*
X90775184Y-83631094D01*
X91144216Y-83532212D01*
X91150498Y-83530171D01*
X91507164Y-83393260D01*
X91513189Y-83390578D01*
X91853606Y-83217127D01*
X91859315Y-83213830D01*
X92179728Y-83005751D01*
X92185065Y-83001874D01*
X92423835Y-82808522D01*
X92431527Y-82797386D01*
X137567759Y-82797386D01*
X137575216Y-82807753D01*
X137814935Y-83001874D01*
X137820272Y-83005751D01*
X138140685Y-83213830D01*
X138146394Y-83217127D01*
X138486811Y-83390578D01*
X138492836Y-83393260D01*
X138849502Y-83530171D01*
X138855784Y-83532212D01*
X139224816Y-83631094D01*
X139231266Y-83632465D01*
X139608629Y-83692234D01*
X139615167Y-83692920D01*
X139996699Y-83712916D01*
X140003301Y-83712916D01*
X140384833Y-83692920D01*
X140391371Y-83692234D01*
X140768734Y-83632465D01*
X140775184Y-83631094D01*
X141144216Y-83532212D01*
X141150498Y-83530171D01*
X141507164Y-83393260D01*
X141513189Y-83390578D01*
X141853606Y-83217127D01*
X141859315Y-83213830D01*
X142179728Y-83005751D01*
X142185065Y-83001874D01*
X142423835Y-82808522D01*
X142432300Y-82796267D01*
X142425966Y-82785176D01*
X140012812Y-80372022D01*
X139998868Y-80364408D01*
X139997035Y-80364539D01*
X139990420Y-80368790D01*
X137574900Y-82784310D01*
X137567759Y-82797386D01*
X92431527Y-82797386D01*
X92432300Y-82796267D01*
X92425966Y-82785176D01*
X90012812Y-80372022D01*
X89998868Y-80364408D01*
X89997035Y-80364539D01*
X89990420Y-80368790D01*
X87574900Y-82784310D01*
X87567759Y-82797386D01*
X84508500Y-82797386D01*
X84508500Y-80053250D01*
X84510246Y-80032345D01*
X84512770Y-80017344D01*
X84512770Y-80017341D01*
X84513576Y-80012552D01*
X84513689Y-80003301D01*
X86287084Y-80003301D01*
X86307080Y-80384833D01*
X86307766Y-80391371D01*
X86367535Y-80768734D01*
X86368906Y-80775184D01*
X86467788Y-81144216D01*
X86469829Y-81150498D01*
X86606740Y-81507164D01*
X86609422Y-81513189D01*
X86782872Y-81853603D01*
X86786169Y-81859313D01*
X86994253Y-82179735D01*
X86998123Y-82185061D01*
X87191478Y-82423835D01*
X87203733Y-82432300D01*
X87214824Y-82425966D01*
X89627978Y-80012812D01*
X89634356Y-80001132D01*
X90364408Y-80001132D01*
X90364539Y-80002965D01*
X90368790Y-80009580D01*
X92784310Y-82425100D01*
X92797386Y-82432241D01*
X92807753Y-82424784D01*
X93001877Y-82185061D01*
X93005747Y-82179735D01*
X93213831Y-81859313D01*
X93217128Y-81853603D01*
X93390578Y-81513189D01*
X93393260Y-81507164D01*
X93530171Y-81150498D01*
X93532212Y-81144216D01*
X93624337Y-80800400D01*
X112641500Y-80800400D01*
X112652474Y-80906166D01*
X112708450Y-81073946D01*
X112801522Y-81224348D01*
X112926697Y-81349305D01*
X112932927Y-81353145D01*
X112932928Y-81353146D01*
X113070090Y-81437694D01*
X113077262Y-81442115D01*
X113120701Y-81456523D01*
X113238611Y-81495632D01*
X113238613Y-81495632D01*
X113245139Y-81497797D01*
X113251975Y-81498497D01*
X113251978Y-81498498D01*
X113295031Y-81502909D01*
X113349600Y-81508500D01*
X114650400Y-81508500D01*
X114653646Y-81508163D01*
X114653650Y-81508163D01*
X114749308Y-81498238D01*
X114749312Y-81498237D01*
X114756166Y-81497526D01*
X114762702Y-81495345D01*
X114762704Y-81495345D01*
X114894806Y-81451272D01*
X114923946Y-81441550D01*
X115074348Y-81348478D01*
X115199305Y-81223303D01*
X115289353Y-81077220D01*
X115342124Y-81029727D01*
X115412196Y-81018303D01*
X115477320Y-81046577D01*
X115487782Y-81056364D01*
X115593234Y-81166906D01*
X115601186Y-81173941D01*
X115777525Y-81305141D01*
X115786562Y-81310745D01*
X115982484Y-81410357D01*
X115992335Y-81414357D01*
X116202240Y-81479534D01*
X116212624Y-81481817D01*
X116228043Y-81483861D01*
X116242207Y-81481665D01*
X116246000Y-81468478D01*
X116246000Y-81466192D01*
X116754000Y-81466192D01*
X116757973Y-81479723D01*
X116768580Y-81481248D01*
X116886421Y-81456523D01*
X116896617Y-81453463D01*
X117101029Y-81372737D01*
X117110561Y-81368006D01*
X117298462Y-81253984D01*
X117307052Y-81247720D01*
X117473052Y-81103673D01*
X117480472Y-81096042D01*
X117619826Y-80926089D01*
X117625850Y-80917322D01*
X117734576Y-80726318D01*
X117739041Y-80716654D01*
X117814031Y-80510059D01*
X117816802Y-80499792D01*
X117856123Y-80282345D01*
X117857056Y-80274116D01*
X117857268Y-80269624D01*
X117853525Y-80256876D01*
X117852135Y-80255671D01*
X117844452Y-80254000D01*
X116772115Y-80254000D01*
X116756876Y-80258475D01*
X116755671Y-80259865D01*
X116754000Y-80267548D01*
X116754000Y-81466192D01*
X116246000Y-81466192D01*
X116246000Y-80003301D01*
X136287084Y-80003301D01*
X136307080Y-80384833D01*
X136307766Y-80391371D01*
X136367535Y-80768734D01*
X136368906Y-80775184D01*
X136467788Y-81144216D01*
X136469829Y-81150498D01*
X136606740Y-81507164D01*
X136609422Y-81513189D01*
X136782872Y-81853603D01*
X136786169Y-81859313D01*
X136994253Y-82179735D01*
X136998123Y-82185061D01*
X137191478Y-82423835D01*
X137203733Y-82432300D01*
X137214824Y-82425966D01*
X139627978Y-80012812D01*
X139634356Y-80001132D01*
X140364408Y-80001132D01*
X140364539Y-80002965D01*
X140368790Y-80009580D01*
X142784310Y-82425100D01*
X142797386Y-82432241D01*
X142807753Y-82424784D01*
X143001877Y-82185061D01*
X143005747Y-82179735D01*
X143213831Y-81859313D01*
X143217128Y-81853603D01*
X143390578Y-81513189D01*
X143393260Y-81507164D01*
X143530171Y-81150498D01*
X143532212Y-81144216D01*
X143631094Y-80775184D01*
X143632465Y-80768734D01*
X143692234Y-80391371D01*
X143692920Y-80384833D01*
X143712916Y-80003301D01*
X143712916Y-79996699D01*
X143692920Y-79615167D01*
X143692234Y-79608629D01*
X143632465Y-79231266D01*
X143631094Y-79224816D01*
X143532212Y-78855784D01*
X143530171Y-78849502D01*
X143393260Y-78492836D01*
X143390578Y-78486811D01*
X143217128Y-78146397D01*
X143213831Y-78140687D01*
X143005747Y-77820265D01*
X143001877Y-77814939D01*
X142808522Y-77576165D01*
X142796267Y-77567700D01*
X142785176Y-77574034D01*
X140372022Y-79987188D01*
X140364408Y-80001132D01*
X139634356Y-80001132D01*
X139635592Y-79998868D01*
X139635461Y-79997035D01*
X139631210Y-79990420D01*
X137215690Y-77574900D01*
X137202614Y-77567759D01*
X137192247Y-77575216D01*
X136998123Y-77814939D01*
X136994253Y-77820265D01*
X136786169Y-78140687D01*
X136782872Y-78146397D01*
X136609422Y-78486811D01*
X136606740Y-78492836D01*
X136469829Y-78849502D01*
X136467788Y-78855784D01*
X136368906Y-79224816D01*
X136367535Y-79231266D01*
X136307766Y-79608629D01*
X136307080Y-79615167D01*
X136287084Y-79996699D01*
X136287084Y-80003301D01*
X116246000Y-80003301D01*
X116246000Y-79727885D01*
X116754000Y-79727885D01*
X116758475Y-79743124D01*
X116759865Y-79744329D01*
X116767548Y-79746000D01*
X117835970Y-79746000D01*
X117850648Y-79741690D01*
X117852711Y-79729807D01*
X117843876Y-79625675D01*
X117842086Y-79615203D01*
X117786870Y-79402465D01*
X117783335Y-79392425D01*
X117693063Y-79192030D01*
X117687894Y-79182744D01*
X117565150Y-79000425D01*
X117558481Y-78992130D01*
X117406772Y-78833100D01*
X117398814Y-78826059D01*
X117222475Y-78694859D01*
X117213438Y-78689255D01*
X117017516Y-78589643D01*
X117007665Y-78585643D01*
X116797760Y-78520466D01*
X116787376Y-78518183D01*
X116771957Y-78516139D01*
X116757793Y-78518335D01*
X116754000Y-78531522D01*
X116754000Y-79727885D01*
X116246000Y-79727885D01*
X116246000Y-78533808D01*
X116242027Y-78520277D01*
X116231420Y-78518752D01*
X116113579Y-78543477D01*
X116103383Y-78546537D01*
X115898971Y-78627263D01*
X115889439Y-78631994D01*
X115701538Y-78746016D01*
X115692948Y-78752280D01*
X115526948Y-78896327D01*
X115519530Y-78903956D01*
X115493609Y-78935569D01*
X115434949Y-78975564D01*
X115363979Y-78977496D01*
X115303230Y-78940752D01*
X115289030Y-78921982D01*
X115202332Y-78781880D01*
X115198478Y-78775652D01*
X115073303Y-78650695D01*
X115042965Y-78631994D01*
X114928968Y-78561725D01*
X114928966Y-78561724D01*
X114922738Y-78557885D01*
X114803498Y-78518335D01*
X114761389Y-78504368D01*
X114761387Y-78504368D01*
X114754861Y-78502203D01*
X114748025Y-78501503D01*
X114748022Y-78501502D01*
X114704969Y-78497091D01*
X114650400Y-78491500D01*
X113349600Y-78491500D01*
X113346354Y-78491837D01*
X113346350Y-78491837D01*
X113250692Y-78501762D01*
X113250688Y-78501763D01*
X113243834Y-78502474D01*
X113237298Y-78504655D01*
X113237296Y-78504655D01*
X113105194Y-78548728D01*
X113076054Y-78558450D01*
X112925652Y-78651522D01*
X112800695Y-78776697D01*
X112796855Y-78782927D01*
X112796854Y-78782928D01*
X112726954Y-78896327D01*
X112707885Y-78927262D01*
X112652203Y-79095139D01*
X112641500Y-79199600D01*
X112641500Y-80800400D01*
X93624337Y-80800400D01*
X93631094Y-80775184D01*
X93632465Y-80768734D01*
X93692234Y-80391371D01*
X93692920Y-80384833D01*
X93712916Y-80003301D01*
X93712916Y-79996699D01*
X93692920Y-79615167D01*
X93692234Y-79608629D01*
X93632465Y-79231266D01*
X93631094Y-79224816D01*
X93532212Y-78855784D01*
X93530171Y-78849502D01*
X93393260Y-78492836D01*
X93390578Y-78486811D01*
X93217128Y-78146397D01*
X93213831Y-78140687D01*
X93005747Y-77820265D01*
X93001877Y-77814939D01*
X92808522Y-77576165D01*
X92796267Y-77567700D01*
X92785176Y-77574034D01*
X90372022Y-79987188D01*
X90364408Y-80001132D01*
X89634356Y-80001132D01*
X89635592Y-79998868D01*
X89635461Y-79997035D01*
X89631210Y-79990420D01*
X87215690Y-77574900D01*
X87202614Y-77567759D01*
X87192247Y-77575216D01*
X86998123Y-77814939D01*
X86994253Y-77820265D01*
X86786169Y-78140687D01*
X86782872Y-78146397D01*
X86609422Y-78486811D01*
X86606740Y-78492836D01*
X86469829Y-78849502D01*
X86467788Y-78855784D01*
X86368906Y-79224816D01*
X86367535Y-79231266D01*
X86307766Y-79608629D01*
X86307080Y-79615167D01*
X86287084Y-79996699D01*
X86287084Y-80003301D01*
X84513689Y-80003301D01*
X84513729Y-80000000D01*
X84513039Y-79995185D01*
X84513039Y-79995178D01*
X84511316Y-79983148D01*
X84510151Y-79960077D01*
X84527041Y-79551722D01*
X84527901Y-79541344D01*
X84582752Y-79101302D01*
X84584466Y-79091030D01*
X84608272Y-78977496D01*
X84675467Y-78657024D01*
X84678023Y-78646928D01*
X84804561Y-78221899D01*
X84807938Y-78212062D01*
X84969147Y-77798919D01*
X84973318Y-77789411D01*
X85078610Y-77574034D01*
X85168082Y-77391015D01*
X85173037Y-77381859D01*
X85279177Y-77203733D01*
X87567700Y-77203733D01*
X87574034Y-77214824D01*
X89987188Y-79627978D01*
X90001132Y-79635592D01*
X90002965Y-79635461D01*
X90009580Y-79631210D01*
X92425100Y-77215690D01*
X92431630Y-77203733D01*
X137567700Y-77203733D01*
X137574034Y-77214824D01*
X139987188Y-79627978D01*
X140001132Y-79635592D01*
X140002965Y-79635461D01*
X140009580Y-79631210D01*
X142425100Y-77215690D01*
X142432241Y-77202614D01*
X142424784Y-77192247D01*
X142185065Y-76998126D01*
X142179728Y-76994249D01*
X141859315Y-76786170D01*
X141853606Y-76782873D01*
X141513189Y-76609422D01*
X141507164Y-76606740D01*
X141150498Y-76469829D01*
X141144216Y-76467788D01*
X140775184Y-76368906D01*
X140768734Y-76367535D01*
X140391371Y-76307766D01*
X140384833Y-76307080D01*
X140003301Y-76287084D01*
X139996699Y-76287084D01*
X139615167Y-76307080D01*
X139608629Y-76307766D01*
X139231266Y-76367535D01*
X139224816Y-76368906D01*
X138855784Y-76467788D01*
X138849502Y-76469829D01*
X138492836Y-76606740D01*
X138486811Y-76609422D01*
X138146397Y-76782872D01*
X138140687Y-76786169D01*
X137820265Y-76994253D01*
X137814939Y-76998123D01*
X137576165Y-77191478D01*
X137567700Y-77203733D01*
X92431630Y-77203733D01*
X92432241Y-77202614D01*
X92424784Y-77192247D01*
X92185065Y-76998126D01*
X92179728Y-76994249D01*
X91859315Y-76786170D01*
X91853606Y-76782873D01*
X91513189Y-76609422D01*
X91507164Y-76606740D01*
X91150498Y-76469829D01*
X91144216Y-76467788D01*
X90775184Y-76368906D01*
X90768734Y-76367535D01*
X90391371Y-76307766D01*
X90384833Y-76307080D01*
X90003301Y-76287084D01*
X89996699Y-76287084D01*
X89615167Y-76307080D01*
X89608629Y-76307766D01*
X89231266Y-76367535D01*
X89224816Y-76368906D01*
X88855784Y-76467788D01*
X88849502Y-76469829D01*
X88492836Y-76606740D01*
X88486811Y-76609422D01*
X88146397Y-76782872D01*
X88140687Y-76786169D01*
X87820265Y-76994253D01*
X87814939Y-76998123D01*
X87576165Y-77191478D01*
X87567700Y-77203733D01*
X85279177Y-77203733D01*
X85400030Y-77000915D01*
X85405726Y-76992196D01*
X85663405Y-76631295D01*
X85669801Y-76623077D01*
X85956413Y-76284674D01*
X85963467Y-76277013D01*
X86277013Y-75963467D01*
X86284674Y-75956413D01*
X86623077Y-75669801D01*
X86631295Y-75663405D01*
X86992196Y-75405726D01*
X87000915Y-75400030D01*
X87381859Y-75173037D01*
X87391017Y-75168081D01*
X87789419Y-74973314D01*
X87798919Y-74969147D01*
X88212062Y-74807938D01*
X88221899Y-74804561D01*
X88646928Y-74678023D01*
X88657024Y-74675467D01*
X88927946Y-74618661D01*
X89091033Y-74584465D01*
X89101298Y-74582753D01*
X89265326Y-74562307D01*
X89541344Y-74527901D01*
X89551722Y-74527041D01*
X89729324Y-74519695D01*
X89956339Y-74510306D01*
X89980920Y-74511698D01*
X89993724Y-74513691D01*
X90002626Y-74512527D01*
X90002628Y-74512527D01*
X90019610Y-74510306D01*
X90025286Y-74509564D01*
X90041621Y-74508500D01*
X139950633Y-74508500D01*
X139970018Y-74510000D01*
G37*
%TD.AperFunction*%
%TD*%
M02*
