%TF.GenerationSoftware,KiCad,Pcbnew,(6.0.11)*%
%TF.CreationDate,2023-02-16T17:01:17+01:00*%
%TF.ProjectId,uCKicad,75434b69-6361-4642-9e6b-696361645f70,rev?*%
%TF.SameCoordinates,Original*%
%TF.FileFunction,Soldermask,Top*%
%TF.FilePolarity,Negative*%
%FSLAX46Y46*%
G04 Gerber Fmt 4.6, Leading zero omitted, Abs format (unit mm)*
G04 Created by KiCad (PCBNEW (6.0.11)) date 2023-02-16 17:01:17*
%MOMM*%
%LPD*%
G01*
G04 APERTURE LIST*
G04 Aperture macros list*
%AMRoundRect*
0 Rectangle with rounded corners*
0 $1 Rounding radius*
0 $2 $3 $4 $5 $6 $7 $8 $9 X,Y pos of 4 corners*
0 Add a 4 corners polygon primitive as box body*
4,1,4,$2,$3,$4,$5,$6,$7,$8,$9,$2,$3,0*
0 Add four circle primitives for the rounded corners*
1,1,$1+$1,$2,$3*
1,1,$1+$1,$4,$5*
1,1,$1+$1,$6,$7*
1,1,$1+$1,$8,$9*
0 Add four rect primitives between the rounded corners*
20,1,$1+$1,$2,$3,$4,$5,0*
20,1,$1+$1,$4,$5,$6,$7,0*
20,1,$1+$1,$6,$7,$8,$9,0*
20,1,$1+$1,$8,$9,$2,$3,0*%
G04 Aperture macros list end*
%ADD10RoundRect,0.250000X0.825000X0.150000X-0.825000X0.150000X-0.825000X-0.150000X0.825000X-0.150000X0*%
%ADD11C,6.600000*%
%ADD12RoundRect,0.100000X1.200000X0.370000X-1.200000X0.370000X-1.200000X-0.370000X1.200000X-0.370000X0*%
%ADD13RoundRect,0.350000X0.337500X0.475000X-0.337500X0.475000X-0.337500X-0.475000X0.337500X-0.475000X0*%
%ADD14RoundRect,0.350000X-0.750000X0.600000X-0.750000X-0.600000X0.750000X-0.600000X0.750000X0.600000X0*%
%ADD15O,2.200000X1.900000*%
%ADD16RoundRect,0.350000X-0.475000X0.337500X-0.475000X-0.337500X0.475000X-0.337500X0.475000X0.337500X0*%
%ADD17RoundRect,0.225000X-0.625000X-0.125000X0.625000X-0.125000X0.625000X0.125000X-0.625000X0.125000X0*%
%ADD18RoundRect,0.225000X-0.125000X-0.625000X0.125000X-0.625000X0.125000X0.625000X-0.125000X0.625000X0*%
%ADD19RoundRect,0.337500X-0.287500X-0.237500X0.287500X-0.237500X0.287500X0.237500X-0.287500X0.237500X0*%
%ADD20RoundRect,0.350000X0.475000X-0.337500X0.475000X0.337500X-0.475000X0.337500X-0.475000X-0.337500X0*%
%ADD21RoundRect,0.250000X0.512500X0.150000X-0.512500X0.150000X-0.512500X-0.150000X0.512500X-0.150000X0*%
%ADD22RoundRect,0.350000X-0.600000X-0.750000X0.600000X-0.750000X0.600000X0.750000X-0.600000X0.750000X0*%
%ADD23O,1.900000X2.200000*%
%ADD24RoundRect,0.350000X-0.350000X0.275000X-0.350000X-0.275000X0.350000X-0.275000X0.350000X0.275000X0*%
%ADD25RoundRect,0.350000X-0.350000X-0.450000X0.350000X-0.450000X0.350000X0.450000X-0.350000X0.450000X0*%
%ADD26RoundRect,0.350000X0.750000X-0.600000X0.750000X0.600000X-0.750000X0.600000X-0.750000X-0.600000X0*%
%ADD27RoundRect,0.350000X0.250000X0.475000X-0.250000X0.475000X-0.250000X-0.475000X0.250000X-0.475000X0*%
%ADD28RoundRect,0.350000X0.475000X-0.250000X0.475000X0.250000X-0.475000X0.250000X-0.475000X-0.250000X0*%
%ADD29RoundRect,0.337500X0.237500X-0.287500X0.237500X0.287500X-0.237500X0.287500X-0.237500X-0.287500X0*%
%ADD30RoundRect,0.350000X0.450000X-0.350000X0.450000X0.350000X-0.450000X0.350000X-0.450000X-0.350000X0*%
%ADD31RoundRect,0.350000X0.350000X0.450000X-0.350000X0.450000X-0.350000X-0.450000X0.350000X-0.450000X0*%
G04 APERTURE END LIST*
D10*
%TO.C,U2*%
X118807000Y-115951000D03*
X118807000Y-114681000D03*
X118807000Y-113411000D03*
X118807000Y-112141000D03*
X113857000Y-112141000D03*
X113857000Y-113411000D03*
X113857000Y-114681000D03*
X113857000Y-115951000D03*
%TD*%
D11*
%TO.C,H1*%
X90000000Y-80000000D03*
%TD*%
D12*
%TO.C,J1*%
X130474000Y-97790000D03*
X126574000Y-97790000D03*
X130474000Y-96520000D03*
X126574000Y-96520000D03*
X130474000Y-95250000D03*
X126574000Y-95250000D03*
X130474000Y-93980000D03*
X126574000Y-93980000D03*
X130474000Y-92710000D03*
X126574000Y-92710000D03*
X130474000Y-91440000D03*
X126574000Y-91440000D03*
X130474000Y-90170000D03*
X126574000Y-90170000D03*
%TD*%
D13*
%TO.C,C9*%
X118385500Y-123181000D03*
X116310500Y-123181000D03*
%TD*%
D14*
%TO.C,J3*%
X140000000Y-98000000D03*
D15*
X140000000Y-100500000D03*
%TD*%
D16*
%TO.C,C7*%
X103950000Y-103265000D03*
X103950000Y-105340000D03*
%TD*%
D11*
%TO.C,H4*%
X140000000Y-80000000D03*
%TD*%
D17*
%TO.C,U3*%
X113173000Y-100578000D03*
X113173000Y-101378000D03*
X113173000Y-102178000D03*
X113173000Y-102978000D03*
X113173000Y-103778000D03*
X113173000Y-104578000D03*
X113173000Y-105378000D03*
X113173000Y-106178000D03*
D18*
X114548000Y-107553000D03*
X115348000Y-107553000D03*
X116148000Y-107553000D03*
X116948000Y-107553000D03*
X117748000Y-107553000D03*
X118548000Y-107553000D03*
X119348000Y-107553000D03*
X120148000Y-107553000D03*
D17*
X121523000Y-106178000D03*
X121523000Y-105378000D03*
X121523000Y-104578000D03*
X121523000Y-103778000D03*
X121523000Y-102978000D03*
X121523000Y-102178000D03*
X121523000Y-101378000D03*
X121523000Y-100578000D03*
D18*
X120148000Y-99203000D03*
X119348000Y-99203000D03*
X118548000Y-99203000D03*
X117748000Y-99203000D03*
X116948000Y-99203000D03*
X116148000Y-99203000D03*
X115348000Y-99203000D03*
X114548000Y-99203000D03*
%TD*%
D16*
%TO.C,C5*%
X107950000Y-103335000D03*
X107950000Y-105410000D03*
%TD*%
%TO.C,C1*%
X126348000Y-108340500D03*
X126348000Y-110415500D03*
%TD*%
D19*
%TO.C,D1*%
X124473000Y-105378000D03*
X126223000Y-105378000D03*
%TD*%
D20*
%TO.C,C3*%
X112076000Y-97173500D03*
X112076000Y-95098500D03*
%TD*%
D21*
%TO.C,U1*%
X105000000Y-81900000D03*
X105000000Y-80950000D03*
X105000000Y-80000000D03*
X102725000Y-80000000D03*
X102725000Y-81900000D03*
%TD*%
D22*
%TO.C,J4*%
X114000000Y-80000000D03*
D23*
X116500000Y-80000000D03*
%TD*%
D24*
%TO.C,L1*%
X99950000Y-100958000D03*
X99950000Y-103258000D03*
%TD*%
D16*
%TO.C,C2*%
X122348000Y-108303000D03*
X122348000Y-110378000D03*
%TD*%
D25*
%TO.C,R1*%
X130348000Y-105378000D03*
X132348000Y-105378000D03*
%TD*%
D26*
%TO.C,J2*%
X90000000Y-100500000D03*
D15*
X90000000Y-98000000D03*
%TD*%
D20*
%TO.C,C10*%
X109120500Y-100415500D03*
X109120500Y-98340500D03*
%TD*%
D11*
%TO.C,H2*%
X90000000Y-120000000D03*
%TD*%
D27*
%TO.C,C8*%
X118348000Y-119446000D03*
X116448000Y-119446000D03*
%TD*%
D28*
%TO.C,C11*%
X108265000Y-81688748D03*
X108265000Y-79788748D03*
%TD*%
D29*
%TO.C,D2*%
X100000000Y-85875000D03*
X100000000Y-84125000D03*
%TD*%
D30*
%TO.C,R2*%
X96000000Y-86000000D03*
X96000000Y-84000000D03*
%TD*%
D31*
%TO.C,R3*%
X116348000Y-94378000D03*
X114348000Y-94378000D03*
%TD*%
D11*
%TO.C,H3*%
X140000000Y-120000000D03*
%TD*%
D28*
%TO.C,C6*%
X100000000Y-82000000D03*
X100000000Y-80100000D03*
%TD*%
M02*
