M48
; DRILL file {KiCad (6.0.11)} date Thu 16 Feb 2023 17:00:51 CET
; FORMAT={-:-/ absolute / inch / decimal}
; #@! TF.CreationDate,2023-02-16T17:00:51+01:00
; #@! TF.GenerationSoftware,Kicad,Pcbnew,(6.0.11)
; #@! TF.FileFunction,Plated,1,2,PTH
FMAT,2
INCH
; #@! TA.AperFunction,Plated,PTH,ViaDrill
T1C0.0236
; #@! TA.AperFunction,Plated,PTH,ComponentDrill
T2C0.0394
; #@! TA.AperFunction,Plated,PTH,ComponentDrill
T3C0.1260
%
G90
G05
T1
X4.1Y-4.3
X4.15Y-3.96
X4.384Y-4.1528
X4.53Y-4.05
X4.56Y-4.11
X4.58Y-4.62
X4.59Y-4.17
X4.75Y-4.62
X4.79Y-3.84
X4.84Y-3.88
X4.8869Y-3.6569
X5.05Y-4.02
T2
X3.5433Y-3.8583
X3.5433Y-3.9567
X4.4882Y-3.1496
X4.5866Y-3.1496
X5.5118Y-3.8583
X5.5118Y-3.9567
T3
X3.5433Y-3.1496
X3.5433Y-4.7244
X5.5118Y-3.1496
X5.5118Y-4.7244
T0
M30
