%TF.GenerationSoftware,KiCad,Pcbnew,(6.0.11)*%
%TF.CreationDate,2023-02-16T17:01:17+01:00*%
%TF.ProjectId,uCKicad,75434b69-6361-4642-9e6b-696361645f70,rev?*%
%TF.SameCoordinates,Original*%
%TF.FileFunction,Copper,L1,Top*%
%TF.FilePolarity,Positive*%
%FSLAX46Y46*%
G04 Gerber Fmt 4.6, Leading zero omitted, Abs format (unit mm)*
G04 Created by KiCad (PCBNEW (6.0.11)) date 2023-02-16 17:01:17*
%MOMM*%
%LPD*%
G01*
G04 APERTURE LIST*
G04 Aperture macros list*
%AMRoundRect*
0 Rectangle with rounded corners*
0 $1 Rounding radius*
0 $2 $3 $4 $5 $6 $7 $8 $9 X,Y pos of 4 corners*
0 Add a 4 corners polygon primitive as box body*
4,1,4,$2,$3,$4,$5,$6,$7,$8,$9,$2,$3,0*
0 Add four circle primitives for the rounded corners*
1,1,$1+$1,$2,$3*
1,1,$1+$1,$4,$5*
1,1,$1+$1,$6,$7*
1,1,$1+$1,$8,$9*
0 Add four rect primitives between the rounded corners*
20,1,$1+$1,$2,$3,$4,$5,0*
20,1,$1+$1,$4,$5,$6,$7,0*
20,1,$1+$1,$6,$7,$8,$9,0*
20,1,$1+$1,$8,$9,$2,$3,0*%
G04 Aperture macros list end*
%ADD10C,0.300000*%
%TA.AperFunction,NonConductor*%
%ADD11C,0.300000*%
%TD*%
%TA.AperFunction,SMDPad,CuDef*%
%ADD12RoundRect,0.150000X0.825000X0.150000X-0.825000X0.150000X-0.825000X-0.150000X0.825000X-0.150000X0*%
%TD*%
%TA.AperFunction,ComponentPad*%
%ADD13C,6.400000*%
%TD*%
%TA.AperFunction,SMDPad,CuDef*%
%ADD14R,2.400000X0.740000*%
%TD*%
%TA.AperFunction,SMDPad,CuDef*%
%ADD15RoundRect,0.250000X0.337500X0.475000X-0.337500X0.475000X-0.337500X-0.475000X0.337500X-0.475000X0*%
%TD*%
%TA.AperFunction,ComponentPad*%
%ADD16RoundRect,0.250000X-0.750000X0.600000X-0.750000X-0.600000X0.750000X-0.600000X0.750000X0.600000X0*%
%TD*%
%TA.AperFunction,ComponentPad*%
%ADD17O,2.000000X1.700000*%
%TD*%
%TA.AperFunction,SMDPad,CuDef*%
%ADD18RoundRect,0.250000X-0.475000X0.337500X-0.475000X-0.337500X0.475000X-0.337500X0.475000X0.337500X0*%
%TD*%
%TA.AperFunction,SMDPad,CuDef*%
%ADD19RoundRect,0.125000X-0.625000X-0.125000X0.625000X-0.125000X0.625000X0.125000X-0.625000X0.125000X0*%
%TD*%
%TA.AperFunction,SMDPad,CuDef*%
%ADD20RoundRect,0.125000X-0.125000X-0.625000X0.125000X-0.625000X0.125000X0.625000X-0.125000X0.625000X0*%
%TD*%
%TA.AperFunction,SMDPad,CuDef*%
%ADD21RoundRect,0.237500X-0.287500X-0.237500X0.287500X-0.237500X0.287500X0.237500X-0.287500X0.237500X0*%
%TD*%
%TA.AperFunction,SMDPad,CuDef*%
%ADD22RoundRect,0.250000X0.475000X-0.337500X0.475000X0.337500X-0.475000X0.337500X-0.475000X-0.337500X0*%
%TD*%
%TA.AperFunction,SMDPad,CuDef*%
%ADD23RoundRect,0.150000X0.512500X0.150000X-0.512500X0.150000X-0.512500X-0.150000X0.512500X-0.150000X0*%
%TD*%
%TA.AperFunction,ComponentPad*%
%ADD24RoundRect,0.250000X-0.600000X-0.750000X0.600000X-0.750000X0.600000X0.750000X-0.600000X0.750000X0*%
%TD*%
%TA.AperFunction,ComponentPad*%
%ADD25O,1.700000X2.000000*%
%TD*%
%TA.AperFunction,SMDPad,CuDef*%
%ADD26RoundRect,0.250000X-0.350000X0.275000X-0.350000X-0.275000X0.350000X-0.275000X0.350000X0.275000X0*%
%TD*%
%TA.AperFunction,SMDPad,CuDef*%
%ADD27RoundRect,0.250000X-0.350000X-0.450000X0.350000X-0.450000X0.350000X0.450000X-0.350000X0.450000X0*%
%TD*%
%TA.AperFunction,ComponentPad*%
%ADD28RoundRect,0.250000X0.750000X-0.600000X0.750000X0.600000X-0.750000X0.600000X-0.750000X-0.600000X0*%
%TD*%
%TA.AperFunction,SMDPad,CuDef*%
%ADD29RoundRect,0.250000X0.250000X0.475000X-0.250000X0.475000X-0.250000X-0.475000X0.250000X-0.475000X0*%
%TD*%
%TA.AperFunction,SMDPad,CuDef*%
%ADD30RoundRect,0.250000X0.475000X-0.250000X0.475000X0.250000X-0.475000X0.250000X-0.475000X-0.250000X0*%
%TD*%
%TA.AperFunction,SMDPad,CuDef*%
%ADD31RoundRect,0.237500X0.237500X-0.287500X0.237500X0.287500X-0.237500X0.287500X-0.237500X-0.287500X0*%
%TD*%
%TA.AperFunction,SMDPad,CuDef*%
%ADD32RoundRect,0.250000X0.450000X-0.350000X0.450000X0.350000X-0.450000X0.350000X-0.450000X-0.350000X0*%
%TD*%
%TA.AperFunction,SMDPad,CuDef*%
%ADD33RoundRect,0.250000X0.350000X0.450000X-0.350000X0.450000X-0.350000X-0.450000X0.350000X-0.450000X0*%
%TD*%
%TA.AperFunction,ViaPad*%
%ADD34C,1.200000*%
%TD*%
%TA.AperFunction,Conductor*%
%ADD35C,0.500000*%
%TD*%
%TA.AperFunction,Conductor*%
%ADD36C,0.300000*%
%TD*%
G04 APERTURE END LIST*
D10*
D11*
X94992857Y-118971071D02*
X95850000Y-118971071D01*
X95421428Y-120471071D02*
X95421428Y-118971071D01*
X96350000Y-120471071D02*
X96350000Y-118971071D01*
X96350000Y-119685357D02*
X97207142Y-119685357D01*
X97207142Y-120471071D02*
X97207142Y-118971071D01*
X98207142Y-118971071D02*
X98492857Y-118971071D01*
X98635714Y-119042500D01*
X98778571Y-119185357D01*
X98850000Y-119471071D01*
X98850000Y-119971071D01*
X98778571Y-120256785D01*
X98635714Y-120399642D01*
X98492857Y-120471071D01*
X98207142Y-120471071D01*
X98064285Y-120399642D01*
X97921428Y-120256785D01*
X97850000Y-119971071D01*
X97850000Y-119471071D01*
X97921428Y-119185357D01*
X98064285Y-119042500D01*
X98207142Y-118971071D01*
X99492857Y-120471071D02*
X99492857Y-118971071D01*
X99992857Y-120042500D01*
X100492857Y-118971071D01*
X100492857Y-120471071D01*
X101135714Y-120042500D02*
X101850000Y-120042500D01*
X100992857Y-120471071D02*
X101492857Y-118971071D01*
X101992857Y-120471071D01*
X102421428Y-120399642D02*
X102635714Y-120471071D01*
X102992857Y-120471071D01*
X103135714Y-120399642D01*
X103207142Y-120328214D01*
X103278571Y-120185357D01*
X103278571Y-120042500D01*
X103207142Y-119899642D01*
X103135714Y-119828214D01*
X102992857Y-119756785D01*
X102707142Y-119685357D01*
X102564285Y-119613928D01*
X102492857Y-119542500D01*
X102421428Y-119399642D01*
X102421428Y-119256785D01*
X102492857Y-119113928D01*
X102564285Y-119042500D01*
X102707142Y-118971071D01*
X103064285Y-118971071D01*
X103278571Y-119042500D01*
X105564285Y-119685357D02*
X105064285Y-119685357D01*
X105064285Y-120471071D02*
X105064285Y-118971071D01*
X105778571Y-118971071D01*
X106992857Y-120471071D02*
X106992857Y-119685357D01*
X106921428Y-119542500D01*
X106778571Y-119471071D01*
X106492857Y-119471071D01*
X106350000Y-119542500D01*
X106992857Y-120399642D02*
X106850000Y-120471071D01*
X106492857Y-120471071D01*
X106350000Y-120399642D01*
X106278571Y-120256785D01*
X106278571Y-120113928D01*
X106350000Y-119971071D01*
X106492857Y-119899642D01*
X106850000Y-119899642D01*
X106992857Y-119828214D01*
X107707142Y-120471071D02*
X107707142Y-119471071D01*
X107707142Y-119756785D02*
X107778571Y-119613928D01*
X107850000Y-119542500D01*
X107992857Y-119471071D01*
X108135714Y-119471071D01*
X108635714Y-120471071D02*
X108635714Y-119471071D01*
X108635714Y-118971071D02*
X108564285Y-119042500D01*
X108635714Y-119113928D01*
X108707142Y-119042500D01*
X108635714Y-118971071D01*
X108635714Y-119113928D01*
X109350000Y-120471071D02*
X109350000Y-119471071D01*
X109350000Y-119613928D02*
X109421428Y-119542500D01*
X109564285Y-119471071D01*
X109778571Y-119471071D01*
X109921428Y-119542500D01*
X109992857Y-119685357D01*
X109992857Y-120471071D01*
X109992857Y-119685357D02*
X110064285Y-119542500D01*
X110207142Y-119471071D01*
X110421428Y-119471071D01*
X110564285Y-119542500D01*
X110635714Y-119685357D01*
X110635714Y-120471071D01*
X111992857Y-120471071D02*
X111992857Y-119685357D01*
X111921428Y-119542500D01*
X111778571Y-119471071D01*
X111492857Y-119471071D01*
X111350000Y-119542500D01*
X111992857Y-120399642D02*
X111850000Y-120471071D01*
X111492857Y-120471071D01*
X111350000Y-120399642D01*
X111278571Y-120256785D01*
X111278571Y-120113928D01*
X111350000Y-119971071D01*
X111492857Y-119899642D01*
X111850000Y-119899642D01*
X111992857Y-119828214D01*
X96207142Y-122886071D02*
X96207142Y-121386071D01*
X97064285Y-122886071D01*
X97064285Y-121386071D01*
X98064285Y-121386071D02*
X98350000Y-121386071D01*
X98492857Y-121457500D01*
X98635714Y-121600357D01*
X98707142Y-121886071D01*
X98707142Y-122386071D01*
X98635714Y-122671785D01*
X98492857Y-122814642D01*
X98350000Y-122886071D01*
X98064285Y-122886071D01*
X97921428Y-122814642D01*
X97778571Y-122671785D01*
X97707142Y-122386071D01*
X97707142Y-121886071D01*
X97778571Y-121600357D01*
X97921428Y-121457500D01*
X98064285Y-121386071D01*
X99635714Y-122171785D02*
X99635714Y-122886071D01*
X99135714Y-121386071D02*
X99635714Y-122171785D01*
X100135714Y-121386071D01*
X100921428Y-121386071D02*
X101207142Y-121386071D01*
X101350000Y-121457500D01*
X101492857Y-121600357D01*
X101564285Y-121886071D01*
X101564285Y-122386071D01*
X101492857Y-122671785D01*
X101350000Y-122814642D01*
X101207142Y-122886071D01*
X100921428Y-122886071D01*
X100778571Y-122814642D01*
X100635714Y-122671785D01*
X100564285Y-122386071D01*
X100564285Y-121886071D01*
X100635714Y-121600357D01*
X100778571Y-121457500D01*
X100921428Y-121386071D01*
X102207142Y-122886071D02*
X102207142Y-121386071D01*
X103064285Y-122886071D01*
X103064285Y-121386071D01*
X105207142Y-122171785D02*
X105207142Y-122886071D01*
X104707142Y-121386071D02*
X105207142Y-122171785D01*
X105707142Y-121386071D01*
X106850000Y-122886071D02*
X106850000Y-122100357D01*
X106778571Y-121957500D01*
X106635714Y-121886071D01*
X106350000Y-121886071D01*
X106207142Y-121957500D01*
X106850000Y-122814642D02*
X106707142Y-122886071D01*
X106350000Y-122886071D01*
X106207142Y-122814642D01*
X106135714Y-122671785D01*
X106135714Y-122528928D01*
X106207142Y-122386071D01*
X106350000Y-122314642D01*
X106707142Y-122314642D01*
X106850000Y-122243214D01*
X108135714Y-122814642D02*
X107992857Y-122886071D01*
X107707142Y-122886071D01*
X107564285Y-122814642D01*
X107492857Y-122671785D01*
X107492857Y-122100357D01*
X107564285Y-121957500D01*
X107707142Y-121886071D01*
X107992857Y-121886071D01*
X108135714Y-121957500D01*
X108207142Y-122100357D01*
X108207142Y-122243214D01*
X107492857Y-122386071D01*
X107564285Y-121386071D02*
X107635714Y-121457500D01*
X107564285Y-121528928D01*
X107492857Y-121457500D01*
X107564285Y-121386071D01*
X107564285Y-121528928D01*
X108135714Y-121386071D02*
X108207142Y-121457500D01*
X108135714Y-121528928D01*
X108064285Y-121457500D01*
X108135714Y-121386071D01*
X108135714Y-121528928D01*
X109064285Y-122886071D02*
X108921428Y-122814642D01*
X108850000Y-122671785D01*
X108850000Y-121386071D01*
X109850000Y-122886071D02*
X109707142Y-122814642D01*
X109635714Y-122671785D01*
X109635714Y-121386071D01*
X110992857Y-122814642D02*
X110850000Y-122886071D01*
X110564285Y-122886071D01*
X110421428Y-122814642D01*
X110350000Y-122671785D01*
X110350000Y-122100357D01*
X110421428Y-121957500D01*
X110564285Y-121886071D01*
X110850000Y-121886071D01*
X110992857Y-121957500D01*
X111064285Y-122100357D01*
X111064285Y-122243214D01*
X110350000Y-122386071D01*
D12*
%TO.P,U2,1,Vdd*%
%TO.N,+3.3VA*%
X118807000Y-115951000D03*
%TO.P,U2,2,~{CS}*%
%TO.N,DAC_nCS*%
X118807000Y-114681000D03*
%TO.P,U2,3,SCK*%
%TO.N,SPI1_SCK*%
X118807000Y-113411000D03*
%TO.P,U2,4,SDI*%
%TO.N,SPI1_MOSI*%
X118807000Y-112141000D03*
%TO.P,U2,5,~{LDAC}*%
%TO.N,DAC_nLDAC*%
X113857000Y-112141000D03*
%TO.P,U2,6,~{SHDN}*%
%TO.N,+3.3VA*%
X113857000Y-113411000D03*
%TO.P,U2,7,Vss*%
%TO.N,GND*%
X113857000Y-114681000D03*
%TO.P,U2,8,Vout*%
%TO.N,DAC_OUT*%
X113857000Y-115951000D03*
%TD*%
D13*
%TO.P,H1,1,1*%
%TO.N,GND*%
X90000000Y-80000000D03*
%TD*%
D14*
%TO.P,J1,1,Pin_1*%
%TO.N,unconnected-(J1-Pad1)*%
X130474000Y-97790000D03*
%TO.P,J1,2,Pin_2*%
%TO.N,unconnected-(J1-Pad2)*%
X126574000Y-97790000D03*
%TO.P,J1,3,Pin_3*%
%TO.N,+3.3V*%
X130474000Y-96520000D03*
%TO.P,J1,4,Pin_4*%
%TO.N,SWDIO*%
X126574000Y-96520000D03*
%TO.P,J1,5,Pin_5*%
%TO.N,GND*%
X130474000Y-95250000D03*
%TO.P,J1,6,Pin_6*%
%TO.N,SWCLK*%
X126574000Y-95250000D03*
%TO.P,J1,7,Pin_7*%
%TO.N,GND*%
X130474000Y-93980000D03*
%TO.P,J1,8,Pin_8*%
%TO.N,unconnected-(J1-Pad8)*%
X126574000Y-93980000D03*
%TO.P,J1,9,Pin_9*%
%TO.N,unconnected-(J1-Pad9)*%
X130474000Y-92710000D03*
%TO.P,J1,10,Pin_10*%
%TO.N,unconnected-(J1-Pad10)*%
X126574000Y-92710000D03*
%TO.P,J1,11,Pin_11*%
%TO.N,GND*%
X130474000Y-91440000D03*
%TO.P,J1,12,Pin_12*%
%TO.N,NRST*%
X126574000Y-91440000D03*
%TO.P,J1,13,Pin_13*%
%TO.N,USART2_RX*%
X130474000Y-90170000D03*
%TO.P,J1,14,Pin_14*%
%TO.N,USART2_TX*%
X126574000Y-90170000D03*
%TD*%
D15*
%TO.P,C9,1*%
%TO.N,+3.3VA*%
X118385500Y-123181000D03*
%TO.P,C9,2*%
%TO.N,GND*%
X116310500Y-123181000D03*
%TD*%
D16*
%TO.P,J3,1,Pin_1*%
%TO.N,DAC_OUT*%
X140000000Y-98000000D03*
D17*
%TO.P,J3,2,Pin_2*%
%TO.N,GND*%
X140000000Y-100500000D03*
%TD*%
D18*
%TO.P,C7,1*%
%TO.N,+3.3VA*%
X103950000Y-103265000D03*
%TO.P,C7,2*%
%TO.N,GND*%
X103950000Y-105340000D03*
%TD*%
D13*
%TO.P,H4,1,1*%
%TO.N,GND*%
X140000000Y-80000000D03*
%TD*%
D19*
%TO.P,U3,1,VDD*%
%TO.N,+3.3V*%
X113173000Y-100578000D03*
%TO.P,U3,2,PC14*%
%TO.N,unconnected-(U3-Pad2)*%
X113173000Y-101378000D03*
%TO.P,U3,3,PC15*%
%TO.N,unconnected-(U3-Pad3)*%
X113173000Y-102178000D03*
%TO.P,U3,4,NRST*%
%TO.N,NRST*%
X113173000Y-102978000D03*
%TO.P,U3,5,VDDA*%
%TO.N,+3.3VA*%
X113173000Y-103778000D03*
%TO.P,U3,6,PA0*%
%TO.N,USART2_RX*%
X113173000Y-104578000D03*
%TO.P,U3,7,PA1*%
%TO.N,ADC_IN1*%
X113173000Y-105378000D03*
%TO.P,U3,8,PA2*%
%TO.N,USART2_TX*%
X113173000Y-106178000D03*
D20*
%TO.P,U3,9,PA3*%
%TO.N,DAC_nLDAC*%
X114548000Y-107553000D03*
%TO.P,U3,10,PA4*%
%TO.N,DAC_nCS*%
X115348000Y-107553000D03*
%TO.P,U3,11,PA5*%
%TO.N,SPI1_SCK*%
X116148000Y-107553000D03*
%TO.P,U3,12,PA6*%
%TO.N,unconnected-(U3-Pad12)*%
X116948000Y-107553000D03*
%TO.P,U3,13,PA7*%
%TO.N,SPI1_MOSI*%
X117748000Y-107553000D03*
%TO.P,U3,14,PB0*%
%TO.N,unconnected-(U3-Pad14)*%
X118548000Y-107553000D03*
%TO.P,U3,15,PB1*%
%TO.N,unconnected-(U3-Pad15)*%
X119348000Y-107553000D03*
%TO.P,U3,16,VSS*%
%TO.N,GND*%
X120148000Y-107553000D03*
D19*
%TO.P,U3,17,VDD*%
%TO.N,+3.3V*%
X121523000Y-106178000D03*
%TO.P,U3,18,PA8*%
%TO.N,LED_STATUS*%
X121523000Y-105378000D03*
%TO.P,U3,19,PA9*%
%TO.N,unconnected-(U3-Pad19)*%
X121523000Y-104578000D03*
%TO.P,U3,20,PA10*%
%TO.N,unconnected-(U3-Pad20)*%
X121523000Y-103778000D03*
%TO.P,U3,21,PA11*%
%TO.N,unconnected-(U3-Pad21)*%
X121523000Y-102978000D03*
%TO.P,U3,22,PA12*%
%TO.N,unconnected-(U3-Pad22)*%
X121523000Y-102178000D03*
%TO.P,U3,23,PA13*%
%TO.N,SWDIO*%
X121523000Y-101378000D03*
%TO.P,U3,24,PA14*%
%TO.N,SWCLK*%
X121523000Y-100578000D03*
D20*
%TO.P,U3,25,PA15*%
%TO.N,unconnected-(U3-Pad25)*%
X120148000Y-99203000D03*
%TO.P,U3,26,PB3*%
%TO.N,unconnected-(U3-Pad26)*%
X119348000Y-99203000D03*
%TO.P,U3,27,PB4*%
%TO.N,unconnected-(U3-Pad27)*%
X118548000Y-99203000D03*
%TO.P,U3,28,PB5*%
%TO.N,unconnected-(U3-Pad28)*%
X117748000Y-99203000D03*
%TO.P,U3,29,PB6*%
%TO.N,unconnected-(U3-Pad29)*%
X116948000Y-99203000D03*
%TO.P,U3,30,PB7*%
%TO.N,unconnected-(U3-Pad30)*%
X116148000Y-99203000D03*
%TO.P,U3,31,PB9*%
%TO.N,/BOOT0*%
X115348000Y-99203000D03*
%TO.P,U3,32,VSS*%
%TO.N,GND*%
X114548000Y-99203000D03*
%TD*%
D18*
%TO.P,C5,1*%
%TO.N,+3.3VA*%
X107950000Y-103335000D03*
%TO.P,C5,2*%
%TO.N,GND*%
X107950000Y-105410000D03*
%TD*%
%TO.P,C1,1*%
%TO.N,+3.3V*%
X126348000Y-108340500D03*
%TO.P,C1,2*%
%TO.N,GND*%
X126348000Y-110415500D03*
%TD*%
D21*
%TO.P,D1,1,K*%
%TO.N,Net-(D1-Pad1)*%
X124473000Y-105378000D03*
%TO.P,D1,2,A*%
%TO.N,LED_STATUS*%
X126223000Y-105378000D03*
%TD*%
D22*
%TO.P,C3,1*%
%TO.N,+3.3V*%
X112076000Y-97173500D03*
%TO.P,C3,2*%
%TO.N,GND*%
X112076000Y-95098500D03*
%TD*%
D23*
%TO.P,U1,1,VIN*%
%TO.N,+5V*%
X105000000Y-81900000D03*
%TO.P,U1,2,GND*%
%TO.N,GND*%
X105000000Y-80950000D03*
%TO.P,U1,3,~{SHDN}*%
%TO.N,+5V*%
X105000000Y-80000000D03*
%TO.P,U1,4,NC*%
%TO.N,unconnected-(U1-Pad4)*%
X102725000Y-80000000D03*
%TO.P,U1,5,VOUT*%
%TO.N,+3.3V*%
X102725000Y-81900000D03*
%TD*%
D24*
%TO.P,J4,1,Pin_1*%
%TO.N,+5V*%
X114000000Y-80000000D03*
D25*
%TO.P,J4,2,Pin_2*%
%TO.N,GND*%
X116500000Y-80000000D03*
%TD*%
D26*
%TO.P,L1,1*%
%TO.N,+3.3V*%
X99950000Y-100958000D03*
%TO.P,L1,2*%
%TO.N,+3.3VA*%
X99950000Y-103258000D03*
%TD*%
D18*
%TO.P,C2,1*%
%TO.N,+3.3V*%
X122348000Y-108303000D03*
%TO.P,C2,2*%
%TO.N,GND*%
X122348000Y-110378000D03*
%TD*%
D27*
%TO.P,R1,1*%
%TO.N,Net-(D1-Pad1)*%
X130348000Y-105378000D03*
%TO.P,R1,2*%
%TO.N,GND*%
X132348000Y-105378000D03*
%TD*%
D28*
%TO.P,J2,1,Pin_1*%
%TO.N,ADC_IN1*%
X90000000Y-100500000D03*
D17*
%TO.P,J2,2,Pin_2*%
%TO.N,GND*%
X90000000Y-98000000D03*
%TD*%
D22*
%TO.P,C10,1*%
%TO.N,NRST*%
X109120500Y-100415500D03*
%TO.P,C10,2*%
%TO.N,GND*%
X109120500Y-98340500D03*
%TD*%
D13*
%TO.P,H2,1,1*%
%TO.N,GND*%
X90000000Y-120000000D03*
%TD*%
D29*
%TO.P,C8,1*%
%TO.N,+3.3VA*%
X118348000Y-119446000D03*
%TO.P,C8,2*%
%TO.N,GND*%
X116448000Y-119446000D03*
%TD*%
D30*
%TO.P,C11,1*%
%TO.N,+5V*%
X108265000Y-81688748D03*
%TO.P,C11,2*%
%TO.N,GND*%
X108265000Y-79788748D03*
%TD*%
D31*
%TO.P,D2,1,K*%
%TO.N,Net-(D2-Pad1)*%
X100000000Y-85875000D03*
%TO.P,D2,2,A*%
%TO.N,+3.3V*%
X100000000Y-84125000D03*
%TD*%
D32*
%TO.P,R2,1*%
%TO.N,Net-(D2-Pad1)*%
X96000000Y-86000000D03*
%TO.P,R2,2*%
%TO.N,GND*%
X96000000Y-84000000D03*
%TD*%
D33*
%TO.P,R3,1*%
%TO.N,/BOOT0*%
X116348000Y-94378000D03*
%TO.P,R3,2*%
%TO.N,GND*%
X114348000Y-94378000D03*
%TD*%
D13*
%TO.P,H3,1,1*%
%TO.N,GND*%
X140000000Y-120000000D03*
%TD*%
D30*
%TO.P,C6,1*%
%TO.N,+3.3V*%
X100000000Y-82000000D03*
%TO.P,C6,2*%
%TO.N,GND*%
X100000000Y-80100000D03*
%TD*%
D34*
%TO.N,GND*%
X105410000Y-100584000D03*
X128270000Y-102108000D03*
%TO.N,ADC_IN1*%
X111353102Y-105479873D03*
X104140000Y-109220000D03*
%TO.N,USART2_RX*%
X115824000Y-104394000D03*
X121666000Y-97536000D03*
%TO.N,USART2_TX*%
X122936000Y-98552000D03*
X116586000Y-105918000D03*
%TO.N,NRST*%
X115062000Y-102870000D03*
X124128000Y-92886000D03*
%TO.N,DAC_OUT*%
X116332000Y-117348000D03*
X120650000Y-117348000D03*
%TD*%
D35*
%TO.N,+3.3V*%
X130474000Y-96520000D02*
X131674000Y-96520000D01*
X131674000Y-96520000D02*
X134200000Y-99046000D01*
X134200000Y-99046000D02*
X134200000Y-106900000D01*
X134200000Y-106900000D02*
X132759500Y-108340500D01*
X132759500Y-108340500D02*
X126348000Y-108340500D01*
D36*
%TO.N,SWDIO*%
X126574000Y-96520000D02*
X125574000Y-96520000D01*
X125574000Y-96520000D02*
X124700000Y-97394000D01*
X124700000Y-97394000D02*
X124700000Y-99836000D01*
X124700000Y-99836000D02*
X123158000Y-101378000D01*
X123158000Y-101378000D02*
X121523000Y-101378000D01*
%TO.N,SWCLK*%
X126574000Y-95250000D02*
X125744000Y-95250000D01*
X125744000Y-95250000D02*
X124000000Y-96994000D01*
X124000000Y-96994000D02*
X124000000Y-99520000D01*
X124000000Y-99520000D02*
X122942000Y-100578000D01*
X122942000Y-100578000D02*
X121523000Y-100578000D01*
%TO.N,USART2_RX*%
X121666000Y-97536000D02*
X121666000Y-90834000D01*
X123900000Y-88600000D02*
X128904000Y-88600000D01*
X121666000Y-90834000D02*
X123900000Y-88600000D01*
X128904000Y-88600000D02*
X130474000Y-90170000D01*
%TO.N,USART2_TX*%
X126574000Y-90170000D02*
X124630000Y-90170000D01*
X124630000Y-90170000D02*
X122936000Y-91864000D01*
X122936000Y-91864000D02*
X122936000Y-98552000D01*
D35*
%TO.N,+3.3VA*%
X109835000Y-103335000D02*
X109235000Y-103335000D01*
X109974000Y-104074000D02*
X109235000Y-103335000D01*
X109235000Y-103335000D02*
X107950000Y-103335000D01*
X109982000Y-104074000D02*
X109974000Y-104074000D01*
X109982000Y-104074000D02*
X109982000Y-103482000D01*
X109982000Y-103482000D02*
X109835000Y-103335000D01*
X110278000Y-103778000D02*
X109835000Y-103335000D01*
X109982000Y-105639551D02*
X109982000Y-104074000D01*
X109982000Y-104074000D02*
X110278000Y-103778000D01*
D36*
X113173000Y-103778000D02*
X110278000Y-103778000D01*
D35*
%TO.N,+3.3V*%
X99950000Y-100958000D02*
X99950000Y-98678000D01*
X101454500Y-97173500D02*
X106317500Y-97173500D01*
X99950000Y-98678000D02*
X101454500Y-97173500D01*
X112076000Y-97173500D02*
X106317500Y-97173500D01*
X100000000Y-84125000D02*
X102159000Y-84125000D01*
X102159000Y-84125000D02*
X106317500Y-88283500D01*
X106317500Y-88283500D02*
X106317500Y-97173500D01*
D36*
%TO.N,USART2_TX*%
X115818000Y-106178000D02*
X113173000Y-106178000D01*
X116586000Y-105918000D02*
X115818000Y-106178000D01*
%TO.N,NRST*%
X124128000Y-92886000D02*
X125574000Y-91440000D01*
X125574000Y-91440000D02*
X126574000Y-91440000D01*
X115062000Y-102870000D02*
X114192000Y-102978000D01*
X114192000Y-102978000D02*
X113173000Y-102978000D01*
%TO.N,ADC_IN1*%
X113173000Y-105378000D02*
X111454975Y-105378000D01*
D35*
X111454975Y-105378000D02*
X111353102Y-105479873D01*
X90000000Y-100500000D02*
X98720000Y-109220000D01*
X98720000Y-109220000D02*
X104140000Y-109220000D01*
D36*
%TO.N,USART2_RX*%
X113173000Y-104578000D02*
X115640000Y-104578000D01*
X115640000Y-104578000D02*
X115824000Y-104394000D01*
D35*
%TO.N,+3.3V*%
X121523000Y-106178000D02*
X120148000Y-106178000D01*
X120148000Y-106178000D02*
X114548000Y-100578000D01*
X114548000Y-100578000D02*
X113173000Y-100578000D01*
D36*
%TO.N,NRST*%
X109120500Y-100415500D02*
X109988749Y-100415500D01*
X109988749Y-100415500D02*
X112551249Y-102978000D01*
X112551249Y-102978000D02*
X113173000Y-102978000D01*
%TO.N,DAC_OUT*%
X116332000Y-117348000D02*
X115254000Y-117348000D01*
X132129000Y-112473000D02*
X127254000Y-117348000D01*
X115254000Y-117348000D02*
X113857000Y-115951000D01*
X127254000Y-117348000D02*
X120650000Y-117348000D01*
D35*
%TO.N,+3.3VA*%
X118807000Y-115951000D02*
X118807000Y-118987000D01*
X118807000Y-118987000D02*
X118348000Y-119446000D01*
X113857000Y-113411000D02*
X115189000Y-113411000D01*
X115189000Y-113411000D02*
X117729000Y-115951000D01*
X117729000Y-115951000D02*
X118807000Y-115951000D01*
X107950000Y-103335000D02*
X107950000Y-103607551D01*
X109982000Y-105639551D02*
X109982000Y-110490000D01*
X109982000Y-110490000D02*
X112903000Y-113411000D01*
X112903000Y-113411000D02*
X113857000Y-113411000D01*
D36*
%TO.N,DAC_nLDAC*%
X113857000Y-112141000D02*
X113857000Y-108244000D01*
X113857000Y-108244000D02*
X114548000Y-107553000D01*
%TO.N,DAC_OUT*%
X132129000Y-112473000D02*
X137160000Y-107442000D01*
X137160000Y-107442000D02*
X137160000Y-100840000D01*
X137160000Y-100840000D02*
X140000000Y-98000000D01*
%TO.N,DAC_nCS*%
X118807000Y-114681000D02*
X118237000Y-114681000D01*
X118237000Y-114681000D02*
X115348000Y-111792000D01*
X115348000Y-111792000D02*
X115348000Y-107553000D01*
%TO.N,SPI1_SCK*%
X116148000Y-107553000D02*
X116148000Y-111164107D01*
X116148000Y-111164107D02*
X118394893Y-113411000D01*
X118394893Y-113411000D02*
X118807000Y-113411000D01*
%TO.N,SPI1_MOSI*%
X118807000Y-112141000D02*
X118807000Y-109917000D01*
X118807000Y-109917000D02*
X117748000Y-108858000D01*
X117748000Y-108858000D02*
X117748000Y-107553000D01*
D35*
%TO.N,+3.3VA*%
X118385500Y-123181000D02*
X118385500Y-119483500D01*
X118385500Y-119483500D02*
X118348000Y-119446000D01*
%TO.N,+3.3V*%
X122348000Y-108303000D02*
X122348000Y-107003000D01*
X122348000Y-107003000D02*
X121523000Y-106178000D01*
X126348000Y-108340500D02*
X122385500Y-108340500D01*
X122385500Y-108340500D02*
X122348000Y-108303000D01*
%TO.N,+3.3VA*%
X103950000Y-103265000D02*
X107880000Y-103265000D01*
X107880000Y-103265000D02*
X107950000Y-103335000D01*
X99950000Y-103260000D02*
X103945000Y-103260000D01*
X103945000Y-103260000D02*
X103950000Y-103265000D01*
%TO.N,+3.3V*%
X112076000Y-97173500D02*
X112076000Y-99481000D01*
X112076000Y-99481000D02*
X113173000Y-100578000D01*
D36*
%TO.N,+5V*%
X105000000Y-81900000D02*
X104252000Y-81900000D01*
X104252000Y-81900000D02*
X103886000Y-81534000D01*
X103886000Y-81534000D02*
X103886000Y-80264000D01*
X103886000Y-80264000D02*
X104150000Y-80000000D01*
X104150000Y-80000000D02*
X105000000Y-80000000D01*
D35*
X105000000Y-81900000D02*
X108053748Y-81900000D01*
X108053748Y-81900000D02*
X108265000Y-81688748D01*
X114000000Y-80000000D02*
X109953748Y-80000000D01*
X109953748Y-80000000D02*
X108265000Y-81688748D01*
%TO.N,+3.3V*%
X100000000Y-82000000D02*
X102625000Y-82000000D01*
X102625000Y-82000000D02*
X102725000Y-81900000D01*
X100000000Y-84125000D02*
X100000000Y-82000000D01*
D36*
%TO.N,LED_STATUS*%
X126223000Y-105378000D02*
X125398000Y-104553000D01*
X122144751Y-105378000D02*
X121523000Y-105378000D01*
X125398000Y-104553000D02*
X122969751Y-104553000D01*
X122969751Y-104553000D02*
X122144751Y-105378000D01*
%TO.N,Net-(D1-Pad1)*%
X130348000Y-105378000D02*
X129523000Y-106203000D01*
X129523000Y-106203000D02*
X125298000Y-106203000D01*
X125298000Y-106203000D02*
X124473000Y-105378000D01*
%TO.N,/BOOT0*%
X115348000Y-99203000D02*
X115348000Y-95378000D01*
X115348000Y-95378000D02*
X116348000Y-94378000D01*
%TO.N,Net-(D2-Pad1)*%
X100000000Y-85875000D02*
X96125000Y-85875000D01*
X96125000Y-85875000D02*
X96000000Y-86000000D01*
%TD*%
%TA.AperFunction,Conductor*%
%TO.N,GND*%
G36*
X139970018Y-74510000D02*
G01*
X139984851Y-74512310D01*
X139984855Y-74512310D01*
X139993724Y-74513691D01*
X140014664Y-74510953D01*
X140036202Y-74509997D01*
X140224026Y-74517766D01*
X140448278Y-74527041D01*
X140458656Y-74527901D01*
X140734674Y-74562307D01*
X140898702Y-74582753D01*
X140908967Y-74584465D01*
X141072054Y-74618661D01*
X141342976Y-74675467D01*
X141353072Y-74678023D01*
X141778101Y-74804561D01*
X141787938Y-74807938D01*
X142201081Y-74969147D01*
X142210581Y-74973314D01*
X142608983Y-75168081D01*
X142618141Y-75173037D01*
X142999085Y-75400030D01*
X143007804Y-75405726D01*
X143368705Y-75663405D01*
X143376923Y-75669801D01*
X143715326Y-75956413D01*
X143722987Y-75963467D01*
X144036533Y-76277013D01*
X144043587Y-76284674D01*
X144330199Y-76623077D01*
X144336595Y-76631295D01*
X144594274Y-76992196D01*
X144599970Y-77000915D01*
X144826963Y-77381859D01*
X144831918Y-77391015D01*
X144921391Y-77574034D01*
X145026682Y-77789411D01*
X145030853Y-77798919D01*
X145192062Y-78212062D01*
X145195439Y-78221899D01*
X145321977Y-78646928D01*
X145324533Y-78657024D01*
X145391729Y-78977496D01*
X145415534Y-79091030D01*
X145417247Y-79101298D01*
X145424071Y-79156037D01*
X145472099Y-79541344D01*
X145472959Y-79551722D01*
X145476428Y-79635592D01*
X145488057Y-79916748D01*
X145489694Y-79956335D01*
X145488302Y-79980920D01*
X145486309Y-79993724D01*
X145487473Y-80002626D01*
X145487473Y-80002628D01*
X145490436Y-80025283D01*
X145491500Y-80041621D01*
X145491500Y-119950633D01*
X145490000Y-119970018D01*
X145487690Y-119984851D01*
X145487690Y-119984855D01*
X145486309Y-119993724D01*
X145489047Y-120014659D01*
X145490003Y-120036202D01*
X145482234Y-120224026D01*
X145472959Y-120448278D01*
X145472099Y-120458656D01*
X145417248Y-120898698D01*
X145415534Y-120908970D01*
X145324533Y-121342976D01*
X145321977Y-121353072D01*
X145195439Y-121778101D01*
X145192062Y-121787938D01*
X145030853Y-122201081D01*
X145026686Y-122210581D01*
X144856801Y-122558086D01*
X144831919Y-122608983D01*
X144826963Y-122618141D01*
X144599970Y-122999085D01*
X144594274Y-123007804D01*
X144336595Y-123368705D01*
X144330199Y-123376923D01*
X144043587Y-123715326D01*
X144036533Y-123722987D01*
X143722987Y-124036533D01*
X143715326Y-124043587D01*
X143376923Y-124330199D01*
X143368705Y-124336595D01*
X143007804Y-124594274D01*
X142999085Y-124599970D01*
X142618141Y-124826963D01*
X142608985Y-124831918D01*
X142210581Y-125026686D01*
X142201081Y-125030853D01*
X141787938Y-125192062D01*
X141778101Y-125195439D01*
X141353072Y-125321977D01*
X141342975Y-125324533D01*
X140908967Y-125415535D01*
X140898702Y-125417247D01*
X140734674Y-125437693D01*
X140458656Y-125472099D01*
X140448278Y-125472959D01*
X140270676Y-125480305D01*
X140043661Y-125489694D01*
X140019080Y-125488302D01*
X140006276Y-125486309D01*
X139997374Y-125487473D01*
X139997372Y-125487473D01*
X139982323Y-125489441D01*
X139974714Y-125490436D01*
X139958379Y-125491500D01*
X90049367Y-125491500D01*
X90029982Y-125490000D01*
X90015149Y-125487690D01*
X90015145Y-125487690D01*
X90006276Y-125486309D01*
X89985336Y-125489047D01*
X89963798Y-125490003D01*
X89775974Y-125482234D01*
X89551722Y-125472959D01*
X89541344Y-125472099D01*
X89265326Y-125437693D01*
X89101298Y-125417247D01*
X89091033Y-125415535D01*
X88657025Y-125324533D01*
X88646928Y-125321977D01*
X88221899Y-125195439D01*
X88212062Y-125192062D01*
X87798919Y-125030853D01*
X87789419Y-125026686D01*
X87391015Y-124831918D01*
X87381859Y-124826963D01*
X87000915Y-124599970D01*
X86992196Y-124594274D01*
X86631295Y-124336595D01*
X86623077Y-124330199D01*
X86408545Y-124148500D01*
X94191500Y-124148500D01*
X113008500Y-124148500D01*
X113008500Y-123703095D01*
X115215001Y-123703095D01*
X115215338Y-123709614D01*
X115225257Y-123805206D01*
X115228149Y-123818600D01*
X115279588Y-123972784D01*
X115285761Y-123985962D01*
X115371063Y-124123807D01*
X115380099Y-124135208D01*
X115494829Y-124249739D01*
X115506240Y-124258751D01*
X115644243Y-124343816D01*
X115657424Y-124349963D01*
X115811710Y-124401138D01*
X115825086Y-124404005D01*
X115919438Y-124413672D01*
X115925854Y-124414000D01*
X116038385Y-124414000D01*
X116053624Y-124409525D01*
X116054829Y-124408135D01*
X116056500Y-124400452D01*
X116056500Y-123453115D01*
X116052025Y-123437876D01*
X116050635Y-123436671D01*
X116042952Y-123435000D01*
X115233116Y-123435000D01*
X115217877Y-123439475D01*
X115216672Y-123440865D01*
X115215001Y-123448548D01*
X115215001Y-123703095D01*
X113008500Y-123703095D01*
X113008500Y-122908885D01*
X115215000Y-122908885D01*
X115219475Y-122924124D01*
X115220865Y-122925329D01*
X115228548Y-122927000D01*
X116038385Y-122927000D01*
X116053624Y-122922525D01*
X116054829Y-122921135D01*
X116056500Y-122913452D01*
X116056500Y-121966116D01*
X116052025Y-121950877D01*
X116050635Y-121949672D01*
X116042952Y-121948001D01*
X115925905Y-121948001D01*
X115919386Y-121948338D01*
X115823794Y-121958257D01*
X115810400Y-121961149D01*
X115656216Y-122012588D01*
X115643038Y-122018761D01*
X115505193Y-122104063D01*
X115493792Y-122113099D01*
X115379261Y-122227829D01*
X115370249Y-122239240D01*
X115285184Y-122377243D01*
X115279037Y-122390424D01*
X115227862Y-122544710D01*
X115224995Y-122558086D01*
X115215328Y-122652438D01*
X115215000Y-122658855D01*
X115215000Y-122908885D01*
X113008500Y-122908885D01*
X113008500Y-119968095D01*
X115440001Y-119968095D01*
X115440338Y-119974614D01*
X115450257Y-120070206D01*
X115453149Y-120083600D01*
X115504588Y-120237784D01*
X115510761Y-120250962D01*
X115596063Y-120388807D01*
X115605099Y-120400208D01*
X115719829Y-120514739D01*
X115731240Y-120523751D01*
X115869243Y-120608816D01*
X115882424Y-120614963D01*
X116036710Y-120666138D01*
X116050086Y-120669005D01*
X116144438Y-120678672D01*
X116150854Y-120679000D01*
X116175885Y-120679000D01*
X116191124Y-120674525D01*
X116192329Y-120673135D01*
X116194000Y-120665452D01*
X116194000Y-119718115D01*
X116189525Y-119702876D01*
X116188135Y-119701671D01*
X116180452Y-119700000D01*
X115458116Y-119700000D01*
X115442877Y-119704475D01*
X115441672Y-119705865D01*
X115440001Y-119713548D01*
X115440001Y-119968095D01*
X113008500Y-119968095D01*
X113008500Y-117851500D01*
X94191500Y-117851500D01*
X94191500Y-124148500D01*
X86408545Y-124148500D01*
X86284674Y-124043587D01*
X86277013Y-124036533D01*
X85963467Y-123722987D01*
X85956413Y-123715326D01*
X85669801Y-123376923D01*
X85663405Y-123368705D01*
X85405726Y-123007804D01*
X85400030Y-122999085D01*
X85279844Y-122797386D01*
X87567759Y-122797386D01*
X87575216Y-122807753D01*
X87814935Y-123001874D01*
X87820272Y-123005751D01*
X88140685Y-123213830D01*
X88146394Y-123217127D01*
X88486811Y-123390578D01*
X88492836Y-123393260D01*
X88849502Y-123530171D01*
X88855784Y-123532212D01*
X89224816Y-123631094D01*
X89231266Y-123632465D01*
X89608629Y-123692234D01*
X89615167Y-123692920D01*
X89996699Y-123712916D01*
X90003301Y-123712916D01*
X90384833Y-123692920D01*
X90391371Y-123692234D01*
X90768734Y-123632465D01*
X90775184Y-123631094D01*
X91144216Y-123532212D01*
X91150498Y-123530171D01*
X91507164Y-123393260D01*
X91513189Y-123390578D01*
X91853606Y-123217127D01*
X91859315Y-123213830D01*
X92179728Y-123005751D01*
X92185065Y-123001874D01*
X92423835Y-122808522D01*
X92432300Y-122796267D01*
X92425966Y-122785176D01*
X90012812Y-120372022D01*
X89998868Y-120364408D01*
X89997035Y-120364539D01*
X89990420Y-120368790D01*
X87574900Y-122784310D01*
X87567759Y-122797386D01*
X85279844Y-122797386D01*
X85173037Y-122618141D01*
X85168081Y-122608983D01*
X85143199Y-122558086D01*
X84973314Y-122210581D01*
X84969147Y-122201081D01*
X84807938Y-121787938D01*
X84804561Y-121778101D01*
X84678023Y-121353072D01*
X84675467Y-121342976D01*
X84584466Y-120908970D01*
X84582752Y-120898698D01*
X84527901Y-120458656D01*
X84527041Y-120448278D01*
X84510462Y-120047439D01*
X84512100Y-120021329D01*
X84512769Y-120017351D01*
X84512770Y-120017345D01*
X84513576Y-120012552D01*
X84513689Y-120003301D01*
X86287084Y-120003301D01*
X86307080Y-120384833D01*
X86307766Y-120391371D01*
X86367535Y-120768734D01*
X86368906Y-120775184D01*
X86467788Y-121144216D01*
X86469829Y-121150498D01*
X86606740Y-121507164D01*
X86609422Y-121513189D01*
X86782872Y-121853603D01*
X86786169Y-121859313D01*
X86994253Y-122179735D01*
X86998123Y-122185061D01*
X87191478Y-122423835D01*
X87203733Y-122432300D01*
X87214824Y-122425966D01*
X89627978Y-120012812D01*
X89634356Y-120001132D01*
X90364408Y-120001132D01*
X90364539Y-120002965D01*
X90368790Y-120009580D01*
X92784310Y-122425100D01*
X92797386Y-122432241D01*
X92807753Y-122424784D01*
X93001877Y-122185061D01*
X93005747Y-122179735D01*
X93213831Y-121859313D01*
X93217128Y-121853603D01*
X93390578Y-121513189D01*
X93393260Y-121507164D01*
X93530171Y-121150498D01*
X93532212Y-121144216D01*
X93631094Y-120775184D01*
X93632465Y-120768734D01*
X93692234Y-120391371D01*
X93692920Y-120384833D01*
X93712916Y-120003301D01*
X93712916Y-119996699D01*
X93692920Y-119615167D01*
X93692234Y-119608629D01*
X93632465Y-119231266D01*
X93631094Y-119224816D01*
X93532212Y-118855784D01*
X93530171Y-118849502D01*
X93393260Y-118492836D01*
X93390578Y-118486811D01*
X93217128Y-118146397D01*
X93213831Y-118140687D01*
X93005747Y-117820265D01*
X93001877Y-117814939D01*
X92808522Y-117576165D01*
X92796267Y-117567700D01*
X92785176Y-117574034D01*
X90372022Y-119987188D01*
X90364408Y-120001132D01*
X89634356Y-120001132D01*
X89635592Y-119998868D01*
X89635461Y-119997035D01*
X89631210Y-119990420D01*
X87215690Y-117574900D01*
X87202614Y-117567759D01*
X87192247Y-117575216D01*
X86998123Y-117814939D01*
X86994253Y-117820265D01*
X86786169Y-118140687D01*
X86782872Y-118146397D01*
X86609422Y-118486811D01*
X86606740Y-118492836D01*
X86469829Y-118849502D01*
X86467788Y-118855784D01*
X86368906Y-119224816D01*
X86367535Y-119231266D01*
X86307766Y-119608629D01*
X86307080Y-119615167D01*
X86287084Y-119996699D01*
X86287084Y-120003301D01*
X84513689Y-120003301D01*
X84513729Y-120000000D01*
X84509773Y-119972376D01*
X84508500Y-119954514D01*
X84508500Y-117203733D01*
X87567700Y-117203733D01*
X87574034Y-117214824D01*
X89987188Y-119627978D01*
X90001132Y-119635592D01*
X90002965Y-119635461D01*
X90009580Y-119631210D01*
X92425100Y-117215690D01*
X92432241Y-117202614D01*
X92424784Y-117192247D01*
X92185065Y-116998126D01*
X92179728Y-116994249D01*
X91859315Y-116786170D01*
X91853606Y-116782873D01*
X91513189Y-116609422D01*
X91507164Y-116606740D01*
X91150498Y-116469829D01*
X91144216Y-116467788D01*
X90775184Y-116368906D01*
X90768734Y-116367535D01*
X90391371Y-116307766D01*
X90384833Y-116307080D01*
X90003301Y-116287084D01*
X89996699Y-116287084D01*
X89615167Y-116307080D01*
X89608629Y-116307766D01*
X89231266Y-116367535D01*
X89224816Y-116368906D01*
X88855784Y-116467788D01*
X88849502Y-116469829D01*
X88492836Y-116606740D01*
X88486811Y-116609422D01*
X88146397Y-116782872D01*
X88140687Y-116786169D01*
X87820265Y-116994253D01*
X87814939Y-116998123D01*
X87576165Y-117191478D01*
X87567700Y-117203733D01*
X84508500Y-117203733D01*
X84508500Y-101150400D01*
X88491500Y-101150400D01*
X88491837Y-101153646D01*
X88491837Y-101153650D01*
X88500021Y-101232521D01*
X88502474Y-101256166D01*
X88558450Y-101423946D01*
X88651522Y-101574348D01*
X88776697Y-101699305D01*
X88927262Y-101792115D01*
X88949247Y-101799407D01*
X89088611Y-101845632D01*
X89088613Y-101845632D01*
X89095139Y-101847797D01*
X89101975Y-101848497D01*
X89101978Y-101848498D01*
X89145031Y-101852909D01*
X89199600Y-101858500D01*
X90233629Y-101858500D01*
X90301750Y-101878502D01*
X90322724Y-101895405D01*
X98136230Y-109708911D01*
X98148616Y-109723323D01*
X98157149Y-109734918D01*
X98157154Y-109734923D01*
X98161492Y-109740818D01*
X98167070Y-109745557D01*
X98167073Y-109745560D01*
X98201768Y-109775035D01*
X98209284Y-109781965D01*
X98214979Y-109787660D01*
X98217861Y-109789940D01*
X98237251Y-109805281D01*
X98240655Y-109808072D01*
X98290656Y-109850551D01*
X98296285Y-109855333D01*
X98302801Y-109858661D01*
X98307850Y-109862028D01*
X98312979Y-109865195D01*
X98318716Y-109869734D01*
X98384875Y-109900655D01*
X98388769Y-109902558D01*
X98453808Y-109935769D01*
X98460916Y-109937508D01*
X98466559Y-109939607D01*
X98472322Y-109941524D01*
X98478950Y-109944622D01*
X98486112Y-109946112D01*
X98486113Y-109946112D01*
X98550412Y-109959486D01*
X98554696Y-109960456D01*
X98625610Y-109977808D01*
X98631212Y-109978156D01*
X98631215Y-109978156D01*
X98636764Y-109978500D01*
X98636762Y-109978536D01*
X98640755Y-109978775D01*
X98644947Y-109979149D01*
X98652115Y-109980640D01*
X98729520Y-109978546D01*
X98732928Y-109978500D01*
X103278696Y-109978500D01*
X103346817Y-109998502D01*
X103366618Y-110014246D01*
X103439410Y-110085157D01*
X103444206Y-110088362D01*
X103444209Y-110088364D01*
X103546968Y-110157025D01*
X103608803Y-110198342D01*
X103614106Y-110200620D01*
X103614109Y-110200622D01*
X103790680Y-110276483D01*
X103795987Y-110278763D01*
X103868817Y-110295243D01*
X103989055Y-110322450D01*
X103989060Y-110322451D01*
X103994692Y-110323725D01*
X104000463Y-110323952D01*
X104000465Y-110323952D01*
X104063470Y-110326427D01*
X104198263Y-110331723D01*
X104399883Y-110302490D01*
X104405347Y-110300635D01*
X104405352Y-110300634D01*
X104587327Y-110238862D01*
X104587332Y-110238860D01*
X104592799Y-110237004D01*
X104770551Y-110137458D01*
X104927186Y-110007186D01*
X105057458Y-109850551D01*
X105128709Y-109723323D01*
X105154180Y-109677842D01*
X105154181Y-109677840D01*
X105157004Y-109672799D01*
X105158860Y-109667332D01*
X105158862Y-109667327D01*
X105220634Y-109485352D01*
X105220635Y-109485347D01*
X105222490Y-109479883D01*
X105251723Y-109278263D01*
X105253249Y-109220000D01*
X105241245Y-109089360D01*
X105235137Y-109022880D01*
X105235136Y-109022877D01*
X105234608Y-109017126D01*
X105221160Y-108969445D01*
X105180875Y-108826606D01*
X105180874Y-108826604D01*
X105179307Y-108821047D01*
X105174599Y-108811499D01*
X105091756Y-108643510D01*
X105089201Y-108638329D01*
X105037702Y-108569363D01*
X104970758Y-108479715D01*
X104970758Y-108479714D01*
X104967305Y-108475091D01*
X104850727Y-108367327D01*
X104821943Y-108340719D01*
X104821940Y-108340717D01*
X104817703Y-108336800D01*
X104729259Y-108280996D01*
X104650288Y-108231169D01*
X104650283Y-108231167D01*
X104645404Y-108228088D01*
X104456180Y-108152595D01*
X104256366Y-108112849D01*
X104250592Y-108112773D01*
X104250588Y-108112773D01*
X104147452Y-108111424D01*
X104052655Y-108110183D01*
X104046958Y-108111162D01*
X104046957Y-108111162D01*
X103857567Y-108143705D01*
X103851870Y-108144684D01*
X103660734Y-108215198D01*
X103655773Y-108218150D01*
X103655772Y-108218150D01*
X103499565Y-108311084D01*
X103485649Y-108319363D01*
X103359225Y-108430233D01*
X103294823Y-108460109D01*
X103276150Y-108461500D01*
X99086371Y-108461500D01*
X99018250Y-108441498D01*
X98997276Y-108424595D01*
X96297276Y-105724595D01*
X102717001Y-105724595D01*
X102717338Y-105731114D01*
X102727257Y-105826706D01*
X102730149Y-105840100D01*
X102781588Y-105994284D01*
X102787761Y-106007462D01*
X102873063Y-106145307D01*
X102882099Y-106156708D01*
X102996829Y-106271239D01*
X103008240Y-106280251D01*
X103146243Y-106365316D01*
X103159424Y-106371463D01*
X103313710Y-106422638D01*
X103327086Y-106425505D01*
X103421438Y-106435172D01*
X103427854Y-106435500D01*
X103677885Y-106435500D01*
X103693124Y-106431025D01*
X103694329Y-106429635D01*
X103696000Y-106421952D01*
X103696000Y-106417384D01*
X104204000Y-106417384D01*
X104208475Y-106432623D01*
X104209865Y-106433828D01*
X104217548Y-106435499D01*
X104472095Y-106435499D01*
X104478614Y-106435162D01*
X104574206Y-106425243D01*
X104587600Y-106422351D01*
X104741784Y-106370912D01*
X104754962Y-106364739D01*
X104892807Y-106279437D01*
X104904208Y-106270401D01*
X105018739Y-106155671D01*
X105027751Y-106144260D01*
X105112816Y-106006257D01*
X105118963Y-105993076D01*
X105170138Y-105838790D01*
X105173005Y-105825414D01*
X105176163Y-105794595D01*
X106717001Y-105794595D01*
X106717338Y-105801114D01*
X106727257Y-105896706D01*
X106730149Y-105910100D01*
X106781588Y-106064284D01*
X106787761Y-106077462D01*
X106873063Y-106215307D01*
X106882099Y-106226708D01*
X106996829Y-106341239D01*
X107008240Y-106350251D01*
X107146243Y-106435316D01*
X107159424Y-106441463D01*
X107313710Y-106492638D01*
X107327086Y-106495505D01*
X107421438Y-106505172D01*
X107427854Y-106505500D01*
X107677885Y-106505500D01*
X107693124Y-106501025D01*
X107694329Y-106499635D01*
X107696000Y-106491952D01*
X107696000Y-105682115D01*
X107691525Y-105666876D01*
X107690135Y-105665671D01*
X107682452Y-105664000D01*
X106735116Y-105664000D01*
X106719877Y-105668475D01*
X106718672Y-105669865D01*
X106717001Y-105677548D01*
X106717001Y-105794595D01*
X105176163Y-105794595D01*
X105182672Y-105731062D01*
X105183000Y-105724646D01*
X105183000Y-105612115D01*
X105178525Y-105596876D01*
X105177135Y-105595671D01*
X105169452Y-105594000D01*
X104222115Y-105594000D01*
X104206876Y-105598475D01*
X104205671Y-105599865D01*
X104204000Y-105607548D01*
X104204000Y-106417384D01*
X103696000Y-106417384D01*
X103696000Y-105612115D01*
X103691525Y-105596876D01*
X103690135Y-105595671D01*
X103682452Y-105594000D01*
X102735116Y-105594000D01*
X102719877Y-105598475D01*
X102718672Y-105599865D01*
X102717001Y-105607548D01*
X102717001Y-105724595D01*
X96297276Y-105724595D01*
X91545405Y-100972724D01*
X91511379Y-100910412D01*
X91508500Y-100883629D01*
X91508500Y-99849600D01*
X91508163Y-99846350D01*
X91498238Y-99750692D01*
X91498237Y-99750688D01*
X91497526Y-99743834D01*
X91492031Y-99727362D01*
X91443868Y-99583002D01*
X91441550Y-99576054D01*
X91348478Y-99425652D01*
X91223303Y-99300695D01*
X91077220Y-99210647D01*
X91029727Y-99157876D01*
X91018303Y-99087804D01*
X91046577Y-99022680D01*
X91056364Y-99012218D01*
X91166906Y-98906766D01*
X91173941Y-98898814D01*
X91305141Y-98722475D01*
X91310745Y-98713438D01*
X91410357Y-98517516D01*
X91414357Y-98507665D01*
X91479534Y-98297760D01*
X91481817Y-98287376D01*
X91483861Y-98271957D01*
X91481665Y-98257793D01*
X91468478Y-98254000D01*
X88533808Y-98254000D01*
X88520277Y-98257973D01*
X88518752Y-98268580D01*
X88543477Y-98386421D01*
X88546537Y-98396617D01*
X88627263Y-98601029D01*
X88631994Y-98610561D01*
X88746016Y-98798462D01*
X88752280Y-98807052D01*
X88896327Y-98973052D01*
X88903956Y-98980470D01*
X88935569Y-99006391D01*
X88975564Y-99065051D01*
X88977496Y-99136021D01*
X88940752Y-99196770D01*
X88921983Y-99210969D01*
X88775652Y-99301522D01*
X88650695Y-99426697D01*
X88646855Y-99432927D01*
X88646854Y-99432928D01*
X88585402Y-99532622D01*
X88557885Y-99577262D01*
X88502203Y-99745139D01*
X88501503Y-99751975D01*
X88501502Y-99751978D01*
X88501166Y-99755262D01*
X88491500Y-99849600D01*
X88491500Y-101150400D01*
X84508500Y-101150400D01*
X84508500Y-97728043D01*
X88516139Y-97728043D01*
X88518335Y-97742207D01*
X88531522Y-97746000D01*
X89727885Y-97746000D01*
X89743124Y-97741525D01*
X89744329Y-97740135D01*
X89746000Y-97732452D01*
X89746000Y-97727885D01*
X90254000Y-97727885D01*
X90258475Y-97743124D01*
X90259865Y-97744329D01*
X90267548Y-97746000D01*
X91466192Y-97746000D01*
X91479723Y-97742027D01*
X91481248Y-97731420D01*
X91456523Y-97613579D01*
X91453463Y-97603383D01*
X91372737Y-97398971D01*
X91368006Y-97389439D01*
X91253984Y-97201538D01*
X91247720Y-97192948D01*
X91103673Y-97026948D01*
X91096042Y-97019528D01*
X90926089Y-96880174D01*
X90917322Y-96874150D01*
X90726318Y-96765424D01*
X90716654Y-96760959D01*
X90510059Y-96685969D01*
X90499792Y-96683198D01*
X90282345Y-96643877D01*
X90274116Y-96642944D01*
X90269624Y-96642732D01*
X90256876Y-96646475D01*
X90255671Y-96647865D01*
X90254000Y-96655548D01*
X90254000Y-97727885D01*
X89746000Y-97727885D01*
X89746000Y-96664030D01*
X89741690Y-96649352D01*
X89729807Y-96647289D01*
X89625675Y-96656124D01*
X89615203Y-96657914D01*
X89402465Y-96713130D01*
X89392425Y-96716665D01*
X89192030Y-96806937D01*
X89182744Y-96812106D01*
X89000425Y-96934850D01*
X88992130Y-96941519D01*
X88833100Y-97093228D01*
X88826059Y-97101186D01*
X88694859Y-97277525D01*
X88689255Y-97286562D01*
X88589643Y-97482484D01*
X88585643Y-97492335D01*
X88520466Y-97702240D01*
X88518183Y-97712624D01*
X88516139Y-97728043D01*
X84508500Y-97728043D01*
X84508500Y-86400400D01*
X94791500Y-86400400D01*
X94791837Y-86403646D01*
X94791837Y-86403650D01*
X94799751Y-86479920D01*
X94802474Y-86506166D01*
X94804655Y-86512702D01*
X94804655Y-86512704D01*
X94820926Y-86561473D01*
X94858450Y-86673946D01*
X94951522Y-86824348D01*
X95076697Y-86949305D01*
X95082927Y-86953145D01*
X95082928Y-86953146D01*
X95220090Y-87037694D01*
X95227262Y-87042115D01*
X95307005Y-87068564D01*
X95388611Y-87095632D01*
X95388613Y-87095632D01*
X95395139Y-87097797D01*
X95401975Y-87098497D01*
X95401978Y-87098498D01*
X95445031Y-87102909D01*
X95499600Y-87108500D01*
X96500400Y-87108500D01*
X96503646Y-87108163D01*
X96503650Y-87108163D01*
X96599308Y-87098238D01*
X96599312Y-87098237D01*
X96606166Y-87097526D01*
X96612702Y-87095345D01*
X96612704Y-87095345D01*
X96744806Y-87051272D01*
X96773946Y-87041550D01*
X96924348Y-86948478D01*
X97049305Y-86823303D01*
X97142115Y-86672738D01*
X97159663Y-86619832D01*
X97200094Y-86561473D01*
X97265658Y-86534236D01*
X97279256Y-86533500D01*
X99044564Y-86533500D01*
X99112685Y-86553502D01*
X99151708Y-86593197D01*
X99170030Y-86622805D01*
X99170036Y-86622812D01*
X99173884Y-86629031D01*
X99179062Y-86634200D01*
X99291816Y-86746758D01*
X99291821Y-86746762D01*
X99296997Y-86751929D01*
X99303227Y-86755769D01*
X99303228Y-86755770D01*
X99412787Y-86823303D01*
X99445080Y-86843209D01*
X99610191Y-86897974D01*
X99617027Y-86898674D01*
X99617030Y-86898675D01*
X99668526Y-86903951D01*
X99712928Y-86908500D01*
X100287072Y-86908500D01*
X100290318Y-86908163D01*
X100290322Y-86908163D01*
X100384235Y-86898419D01*
X100384239Y-86898418D01*
X100391093Y-86897707D01*
X100397629Y-86895526D01*
X100397631Y-86895526D01*
X100530395Y-86851232D01*
X100556107Y-86842654D01*
X100704031Y-86751116D01*
X100709204Y-86745934D01*
X100821758Y-86633184D01*
X100821762Y-86633179D01*
X100826929Y-86628003D01*
X100918209Y-86479920D01*
X100972974Y-86314809D01*
X100983500Y-86212072D01*
X100983500Y-85537928D01*
X100979770Y-85501978D01*
X100973419Y-85440765D01*
X100973418Y-85440761D01*
X100972707Y-85433907D01*
X100917654Y-85268893D01*
X100864457Y-85182928D01*
X100829969Y-85127195D01*
X100829968Y-85127194D01*
X100826116Y-85120969D01*
X100803779Y-85098671D01*
X100769701Y-85036391D01*
X100774704Y-84965571D01*
X100817201Y-84908698D01*
X100883699Y-84883829D01*
X100892798Y-84883500D01*
X101792629Y-84883500D01*
X101860750Y-84903502D01*
X101881724Y-84920405D01*
X105522095Y-88560776D01*
X105556121Y-88623088D01*
X105559000Y-88649871D01*
X105559000Y-96289000D01*
X105538998Y-96357121D01*
X105485342Y-96403614D01*
X105433000Y-96415000D01*
X101521569Y-96415000D01*
X101502621Y-96413567D01*
X101495280Y-96412450D01*
X101488383Y-96411401D01*
X101488381Y-96411401D01*
X101481151Y-96410301D01*
X101473859Y-96410894D01*
X101473856Y-96410894D01*
X101428482Y-96414585D01*
X101418267Y-96415000D01*
X101410207Y-96415000D01*
X101396917Y-96416549D01*
X101381993Y-96418289D01*
X101377618Y-96418722D01*
X101312161Y-96424046D01*
X101312158Y-96424047D01*
X101304863Y-96424640D01*
X101297899Y-96426896D01*
X101291940Y-96428087D01*
X101286085Y-96429471D01*
X101278819Y-96430318D01*
X101210173Y-96455235D01*
X101206045Y-96456652D01*
X101143564Y-96476893D01*
X101143562Y-96476894D01*
X101136601Y-96479149D01*
X101130346Y-96482945D01*
X101124872Y-96485451D01*
X101119442Y-96488170D01*
X101112563Y-96490667D01*
X101051516Y-96530691D01*
X101047827Y-96533018D01*
X101027635Y-96545271D01*
X100990193Y-96567991D01*
X100990188Y-96567995D01*
X100985392Y-96570905D01*
X100977016Y-96578303D01*
X100976993Y-96578277D01*
X100974003Y-96580926D01*
X100970764Y-96583634D01*
X100964648Y-96587644D01*
X100959621Y-96592951D01*
X100959617Y-96592954D01*
X100911372Y-96643883D01*
X100908994Y-96646325D01*
X99461089Y-98094230D01*
X99446677Y-98106616D01*
X99435082Y-98115149D01*
X99435077Y-98115154D01*
X99429182Y-98119492D01*
X99424443Y-98125070D01*
X99424440Y-98125073D01*
X99394965Y-98159768D01*
X99388035Y-98167284D01*
X99382340Y-98172979D01*
X99380060Y-98175861D01*
X99364719Y-98195251D01*
X99361928Y-98198655D01*
X99323263Y-98244167D01*
X99314667Y-98254285D01*
X99311339Y-98260801D01*
X99307972Y-98265850D01*
X99304805Y-98270979D01*
X99300266Y-98276716D01*
X99269345Y-98342875D01*
X99267442Y-98346769D01*
X99234231Y-98411808D01*
X99232492Y-98418916D01*
X99230393Y-98424559D01*
X99228476Y-98430322D01*
X99225378Y-98436950D01*
X99223888Y-98444112D01*
X99223888Y-98444113D01*
X99210514Y-98508412D01*
X99209544Y-98512696D01*
X99192192Y-98583610D01*
X99191844Y-98589212D01*
X99191844Y-98589215D01*
X99191599Y-98593171D01*
X99191500Y-98594764D01*
X99191464Y-98594762D01*
X99191225Y-98598755D01*
X99190851Y-98602947D01*
X99189360Y-98610115D01*
X99190363Y-98647183D01*
X99191454Y-98687521D01*
X99191500Y-98690928D01*
X99191500Y-99973572D01*
X99171498Y-100041693D01*
X99137112Y-100075495D01*
X99137612Y-100076125D01*
X99131880Y-100080668D01*
X99125652Y-100084522D01*
X99000695Y-100209697D01*
X98996855Y-100215927D01*
X98996854Y-100215928D01*
X98927412Y-100328584D01*
X98907885Y-100360262D01*
X98892326Y-100407170D01*
X98861589Y-100499842D01*
X98852203Y-100528139D01*
X98841500Y-100632600D01*
X98841500Y-101283400D01*
X98852474Y-101389166D01*
X98854655Y-101395702D01*
X98854655Y-101395704D01*
X98871140Y-101445115D01*
X98908450Y-101556946D01*
X99001522Y-101707348D01*
X99006704Y-101712521D01*
X99033270Y-101739041D01*
X99126697Y-101832305D01*
X99132927Y-101836145D01*
X99132928Y-101836146D01*
X99270090Y-101920694D01*
X99277262Y-101925115D01*
X99357005Y-101951564D01*
X99438611Y-101978632D01*
X99438613Y-101978632D01*
X99445139Y-101980797D01*
X99451975Y-101981497D01*
X99451978Y-101981498D01*
X99463829Y-101982712D01*
X99529556Y-102009554D01*
X99570337Y-102067669D01*
X99573225Y-102138607D01*
X99537303Y-102199845D01*
X99473975Y-102231941D01*
X99463987Y-102233383D01*
X99450693Y-102234762D01*
X99450690Y-102234763D01*
X99443834Y-102235474D01*
X99437298Y-102237655D01*
X99437296Y-102237655D01*
X99400372Y-102249974D01*
X99276054Y-102291450D01*
X99125652Y-102384522D01*
X99000695Y-102509697D01*
X98996855Y-102515927D01*
X98996854Y-102515928D01*
X98935140Y-102616047D01*
X98907885Y-102660262D01*
X98905581Y-102667209D01*
X98868182Y-102779965D01*
X98852203Y-102828139D01*
X98841500Y-102932600D01*
X98841500Y-103583400D01*
X98841837Y-103586646D01*
X98841837Y-103586650D01*
X98842340Y-103591492D01*
X98852474Y-103689166D01*
X98908450Y-103856946D01*
X99001522Y-104007348D01*
X99006704Y-104012521D01*
X99015655Y-104021456D01*
X99126697Y-104132305D01*
X99132927Y-104136145D01*
X99132928Y-104136146D01*
X99270090Y-104220694D01*
X99277262Y-104225115D01*
X99313945Y-104237282D01*
X99438611Y-104278632D01*
X99438613Y-104278632D01*
X99445139Y-104280797D01*
X99451975Y-104281497D01*
X99451978Y-104281498D01*
X99495031Y-104285909D01*
X99549600Y-104291500D01*
X100350400Y-104291500D01*
X100353646Y-104291163D01*
X100353650Y-104291163D01*
X100449308Y-104281238D01*
X100449312Y-104281237D01*
X100456166Y-104280526D01*
X100462702Y-104278345D01*
X100462704Y-104278345D01*
X100606669Y-104230314D01*
X100623946Y-104224550D01*
X100774348Y-104131478D01*
X100779521Y-104126296D01*
X100779526Y-104126292D01*
X100850211Y-104055483D01*
X100912493Y-104021403D01*
X100939384Y-104018500D01*
X102770447Y-104018500D01*
X102838568Y-104038502D01*
X102869193Y-104066236D01*
X102872669Y-104070622D01*
X102876522Y-104076848D01*
X103001697Y-104201805D01*
X103006235Y-104204602D01*
X103046824Y-104261853D01*
X103050054Y-104332776D01*
X103014428Y-104394187D01*
X103005932Y-104401562D01*
X102995793Y-104409598D01*
X102881261Y-104524329D01*
X102872249Y-104535740D01*
X102787184Y-104673743D01*
X102781037Y-104686924D01*
X102729862Y-104841210D01*
X102726995Y-104854586D01*
X102717328Y-104948938D01*
X102717000Y-104955355D01*
X102717000Y-105067885D01*
X102721475Y-105083124D01*
X102722865Y-105084329D01*
X102730548Y-105086000D01*
X105164884Y-105086000D01*
X105180123Y-105081525D01*
X105181328Y-105080135D01*
X105182999Y-105072452D01*
X105182999Y-104955405D01*
X105182662Y-104948886D01*
X105172743Y-104853294D01*
X105169851Y-104839900D01*
X105118412Y-104685716D01*
X105112239Y-104672538D01*
X105026937Y-104534693D01*
X105017901Y-104523292D01*
X104903172Y-104408762D01*
X104894238Y-104401706D01*
X104853177Y-104343788D01*
X104849947Y-104272865D01*
X104885574Y-104211454D01*
X104893407Y-104204654D01*
X104899348Y-104200978D01*
X105024305Y-104075803D01*
X105027261Y-104071007D01*
X105084614Y-104030345D01*
X105125578Y-104023500D01*
X106729990Y-104023500D01*
X106798111Y-104043502D01*
X106837133Y-104083196D01*
X106876522Y-104146848D01*
X107001697Y-104271805D01*
X107006235Y-104274602D01*
X107046824Y-104331853D01*
X107050054Y-104402776D01*
X107014428Y-104464187D01*
X107005932Y-104471562D01*
X106995793Y-104479598D01*
X106881261Y-104594329D01*
X106872249Y-104605740D01*
X106787184Y-104743743D01*
X106781037Y-104756924D01*
X106729862Y-104911210D01*
X106726995Y-104924586D01*
X106717328Y-105018938D01*
X106717000Y-105025355D01*
X106717000Y-105137885D01*
X106721475Y-105153124D01*
X106722865Y-105154329D01*
X106730548Y-105156000D01*
X108078000Y-105156000D01*
X108146121Y-105176002D01*
X108192614Y-105229658D01*
X108204000Y-105282000D01*
X108204000Y-106487384D01*
X108208475Y-106502623D01*
X108209865Y-106503828D01*
X108217548Y-106505499D01*
X108472095Y-106505499D01*
X108478614Y-106505162D01*
X108574206Y-106495243D01*
X108587600Y-106492351D01*
X108741784Y-106440912D01*
X108754962Y-106434739D01*
X108892807Y-106349437D01*
X108904208Y-106340401D01*
X109008327Y-106236101D01*
X109070610Y-106202022D01*
X109141430Y-106207025D01*
X109198303Y-106249522D01*
X109223171Y-106316021D01*
X109223500Y-106325119D01*
X109223500Y-110422930D01*
X109222067Y-110441880D01*
X109218801Y-110463349D01*
X109219394Y-110470641D01*
X109219394Y-110470644D01*
X109223085Y-110516018D01*
X109223500Y-110526233D01*
X109223500Y-110534293D01*
X109223925Y-110537937D01*
X109226789Y-110562507D01*
X109227222Y-110566882D01*
X109232519Y-110632000D01*
X109233140Y-110639637D01*
X109235396Y-110646601D01*
X109236587Y-110652560D01*
X109237971Y-110658415D01*
X109238818Y-110665681D01*
X109263735Y-110734327D01*
X109265152Y-110738455D01*
X109287649Y-110807899D01*
X109291445Y-110814154D01*
X109293951Y-110819628D01*
X109296670Y-110825058D01*
X109299167Y-110831937D01*
X109303180Y-110838057D01*
X109303180Y-110838058D01*
X109339186Y-110892976D01*
X109341523Y-110896680D01*
X109379405Y-110959107D01*
X109383121Y-110963315D01*
X109383122Y-110963316D01*
X109386803Y-110967484D01*
X109386776Y-110967508D01*
X109389429Y-110970500D01*
X109392132Y-110973733D01*
X109396144Y-110979852D01*
X109401456Y-110984884D01*
X109452383Y-111033128D01*
X109454825Y-111035506D01*
X112319230Y-113899911D01*
X112331616Y-113914323D01*
X112340149Y-113925918D01*
X112340154Y-113925923D01*
X112344492Y-113931818D01*
X112350070Y-113936557D01*
X112350073Y-113936560D01*
X112384768Y-113966035D01*
X112392284Y-113972965D01*
X112397980Y-113978661D01*
X112400841Y-113980924D01*
X112400846Y-113980929D01*
X112420266Y-113996293D01*
X112423662Y-113999078D01*
X112448198Y-114019923D01*
X112487162Y-114079269D01*
X112487856Y-114150262D01*
X112475073Y-114180086D01*
X112427352Y-114260779D01*
X112421107Y-114275210D01*
X112382061Y-114409605D01*
X112382101Y-114423706D01*
X112389370Y-114427000D01*
X113985000Y-114427000D01*
X114053121Y-114447002D01*
X114099614Y-114500658D01*
X114111000Y-114553000D01*
X114111000Y-114809000D01*
X114090998Y-114877121D01*
X114037342Y-114923614D01*
X113985000Y-114935000D01*
X112395122Y-114935000D01*
X112381591Y-114938973D01*
X112380456Y-114946871D01*
X112421107Y-115086790D01*
X112427352Y-115101221D01*
X112503911Y-115230677D01*
X112509871Y-115238360D01*
X112535820Y-115304444D01*
X112521922Y-115374067D01*
X112511579Y-115390161D01*
X112507547Y-115394193D01*
X112422855Y-115537399D01*
X112376438Y-115697169D01*
X112373500Y-115734498D01*
X112373500Y-116167502D01*
X112376438Y-116204831D01*
X112400451Y-116287486D01*
X112417495Y-116346150D01*
X112422855Y-116364601D01*
X112426892Y-116371427D01*
X112503509Y-116500980D01*
X112503511Y-116500983D01*
X112507547Y-116507807D01*
X112625193Y-116625453D01*
X112632017Y-116629489D01*
X112632020Y-116629491D01*
X112728622Y-116686621D01*
X112768399Y-116710145D01*
X112776010Y-116712356D01*
X112776012Y-116712357D01*
X112787120Y-116715584D01*
X112928169Y-116756562D01*
X112934574Y-116757066D01*
X112934579Y-116757067D01*
X112963042Y-116759307D01*
X112963050Y-116759307D01*
X112965498Y-116759500D01*
X113682050Y-116759500D01*
X113750171Y-116779502D01*
X113771140Y-116796400D01*
X114730351Y-117755610D01*
X114738331Y-117764381D01*
X114738339Y-117764390D01*
X114742584Y-117771080D01*
X114768405Y-117795327D01*
X114794273Y-117819619D01*
X114797115Y-117822374D01*
X114817667Y-117842926D01*
X114820801Y-117845357D01*
X114821163Y-117845638D01*
X114830191Y-117853348D01*
X114863867Y-117884972D01*
X114870818Y-117888793D01*
X114870819Y-117888794D01*
X114882655Y-117895301D01*
X114899184Y-117906158D01*
X114909869Y-117914447D01*
X114909871Y-117914448D01*
X114916131Y-117919304D01*
X114958544Y-117937657D01*
X114969181Y-117942868D01*
X115009663Y-117965124D01*
X115017342Y-117967096D01*
X115017343Y-117967096D01*
X115030434Y-117970457D01*
X115049136Y-117976859D01*
X115068823Y-117985379D01*
X115076652Y-117986619D01*
X115114448Y-117992605D01*
X115126074Y-117995013D01*
X115163135Y-118004529D01*
X115163136Y-118004529D01*
X115170812Y-118006500D01*
X115192258Y-118006500D01*
X115211968Y-118008051D01*
X115233151Y-118011406D01*
X115279135Y-118007059D01*
X115290994Y-118006500D01*
X115374655Y-118006500D01*
X115442776Y-118026502D01*
X115477551Y-118059779D01*
X115485479Y-118070997D01*
X115631410Y-118213157D01*
X115655057Y-118228958D01*
X115700584Y-118283432D01*
X115709433Y-118353875D01*
X115674228Y-118422740D01*
X115604261Y-118492829D01*
X115595249Y-118504240D01*
X115510184Y-118642243D01*
X115504037Y-118655424D01*
X115452862Y-118809710D01*
X115449995Y-118823086D01*
X115440328Y-118917438D01*
X115440000Y-118923855D01*
X115440000Y-119173885D01*
X115444475Y-119189124D01*
X115445865Y-119190329D01*
X115453548Y-119192000D01*
X116576000Y-119192000D01*
X116644121Y-119212002D01*
X116690614Y-119265658D01*
X116702000Y-119318000D01*
X116702000Y-120660884D01*
X116706475Y-120676123D01*
X116707865Y-120677328D01*
X116715548Y-120678999D01*
X116745095Y-120678999D01*
X116751614Y-120678662D01*
X116847206Y-120668743D01*
X116860600Y-120665851D01*
X117014784Y-120614412D01*
X117027962Y-120608239D01*
X117165807Y-120522937D01*
X117177208Y-120513901D01*
X117291738Y-120399172D01*
X117298794Y-120390238D01*
X117356712Y-120349177D01*
X117427635Y-120345947D01*
X117489046Y-120381574D01*
X117495846Y-120389407D01*
X117499522Y-120395348D01*
X117562941Y-120458656D01*
X117590018Y-120485686D01*
X117624097Y-120547968D01*
X117627000Y-120574859D01*
X117627000Y-122005410D01*
X117606998Y-122073531D01*
X117579482Y-122103914D01*
X117573652Y-122107522D01*
X117448695Y-122232697D01*
X117445898Y-122237235D01*
X117388647Y-122277824D01*
X117317724Y-122281054D01*
X117256313Y-122245428D01*
X117248938Y-122236932D01*
X117240902Y-122226793D01*
X117126171Y-122112261D01*
X117114760Y-122103249D01*
X116976757Y-122018184D01*
X116963576Y-122012037D01*
X116809290Y-121960862D01*
X116795914Y-121957995D01*
X116701562Y-121948328D01*
X116695145Y-121948000D01*
X116582615Y-121948000D01*
X116567376Y-121952475D01*
X116566171Y-121953865D01*
X116564500Y-121961548D01*
X116564500Y-124395884D01*
X116568975Y-124411123D01*
X116570365Y-124412328D01*
X116578048Y-124413999D01*
X116695095Y-124413999D01*
X116701614Y-124413662D01*
X116797206Y-124403743D01*
X116810600Y-124400851D01*
X116964784Y-124349412D01*
X116977962Y-124343239D01*
X117115807Y-124257937D01*
X117127208Y-124248901D01*
X117241738Y-124134172D01*
X117248794Y-124125238D01*
X117306712Y-124084177D01*
X117377635Y-124080947D01*
X117439046Y-124116574D01*
X117445846Y-124124407D01*
X117449522Y-124130348D01*
X117574697Y-124255305D01*
X117580927Y-124259145D01*
X117580928Y-124259146D01*
X117718288Y-124343816D01*
X117725262Y-124348115D01*
X117805005Y-124374564D01*
X117886611Y-124401632D01*
X117886613Y-124401632D01*
X117893139Y-124403797D01*
X117899975Y-124404497D01*
X117899978Y-124404498D01*
X117943031Y-124408909D01*
X117997600Y-124414500D01*
X118773400Y-124414500D01*
X118776646Y-124414163D01*
X118776650Y-124414163D01*
X118872308Y-124404238D01*
X118872312Y-124404237D01*
X118879166Y-124403526D01*
X118885702Y-124401345D01*
X118885704Y-124401345D01*
X119017806Y-124357272D01*
X119046946Y-124347550D01*
X119197348Y-124254478D01*
X119322305Y-124129303D01*
X119364517Y-124060823D01*
X119411275Y-123984968D01*
X119411276Y-123984966D01*
X119415115Y-123978738D01*
X119470797Y-123810861D01*
X119481500Y-123706400D01*
X119481500Y-122797386D01*
X137567759Y-122797386D01*
X137575216Y-122807753D01*
X137814935Y-123001874D01*
X137820272Y-123005751D01*
X138140685Y-123213830D01*
X138146394Y-123217127D01*
X138486811Y-123390578D01*
X138492836Y-123393260D01*
X138849502Y-123530171D01*
X138855784Y-123532212D01*
X139224816Y-123631094D01*
X139231266Y-123632465D01*
X139608629Y-123692234D01*
X139615167Y-123692920D01*
X139996699Y-123712916D01*
X140003301Y-123712916D01*
X140384833Y-123692920D01*
X140391371Y-123692234D01*
X140768734Y-123632465D01*
X140775184Y-123631094D01*
X141144216Y-123532212D01*
X141150498Y-123530171D01*
X141507164Y-123393260D01*
X141513189Y-123390578D01*
X141853606Y-123217127D01*
X141859315Y-123213830D01*
X142179728Y-123005751D01*
X142185065Y-123001874D01*
X142423835Y-122808522D01*
X142432300Y-122796267D01*
X142425966Y-122785176D01*
X140012812Y-120372022D01*
X139998868Y-120364408D01*
X139997035Y-120364539D01*
X139990420Y-120368790D01*
X137574900Y-122784310D01*
X137567759Y-122797386D01*
X119481500Y-122797386D01*
X119481500Y-122655600D01*
X119481163Y-122652350D01*
X119471238Y-122556692D01*
X119471237Y-122556688D01*
X119470526Y-122549834D01*
X119414550Y-122382054D01*
X119321478Y-122231652D01*
X119196303Y-122106695D01*
X119191507Y-122103739D01*
X119150845Y-122046386D01*
X119144000Y-122005422D01*
X119144000Y-120499828D01*
X119164002Y-120431707D01*
X119180826Y-120410811D01*
X119192133Y-120399484D01*
X119197305Y-120394303D01*
X119201146Y-120388072D01*
X119286275Y-120249968D01*
X119286276Y-120249966D01*
X119290115Y-120243738D01*
X119345797Y-120075861D01*
X119353231Y-120003301D01*
X136287084Y-120003301D01*
X136307080Y-120384833D01*
X136307766Y-120391371D01*
X136367535Y-120768734D01*
X136368906Y-120775184D01*
X136467788Y-121144216D01*
X136469829Y-121150498D01*
X136606740Y-121507164D01*
X136609422Y-121513189D01*
X136782872Y-121853603D01*
X136786169Y-121859313D01*
X136994253Y-122179735D01*
X136998123Y-122185061D01*
X137191478Y-122423835D01*
X137203733Y-122432300D01*
X137214824Y-122425966D01*
X139627978Y-120012812D01*
X139634356Y-120001132D01*
X140364408Y-120001132D01*
X140364539Y-120002965D01*
X140368790Y-120009580D01*
X142784310Y-122425100D01*
X142797386Y-122432241D01*
X142807753Y-122424784D01*
X143001877Y-122185061D01*
X143005747Y-122179735D01*
X143213831Y-121859313D01*
X143217128Y-121853603D01*
X143390578Y-121513189D01*
X143393260Y-121507164D01*
X143530171Y-121150498D01*
X143532212Y-121144216D01*
X143631094Y-120775184D01*
X143632465Y-120768734D01*
X143692234Y-120391371D01*
X143692920Y-120384833D01*
X143712916Y-120003301D01*
X143712916Y-119996699D01*
X143692920Y-119615167D01*
X143692234Y-119608629D01*
X143632465Y-119231266D01*
X143631094Y-119224816D01*
X143532212Y-118855784D01*
X143530171Y-118849502D01*
X143393260Y-118492836D01*
X143390578Y-118486811D01*
X143217128Y-118146397D01*
X143213831Y-118140687D01*
X143005747Y-117820265D01*
X143001877Y-117814939D01*
X142808522Y-117576165D01*
X142796267Y-117567700D01*
X142785176Y-117574034D01*
X140372022Y-119987188D01*
X140364408Y-120001132D01*
X139634356Y-120001132D01*
X139635592Y-119998868D01*
X139635461Y-119997035D01*
X139631210Y-119990420D01*
X137215690Y-117574900D01*
X137202614Y-117567759D01*
X137192247Y-117575216D01*
X136998123Y-117814939D01*
X136994253Y-117820265D01*
X136786169Y-118140687D01*
X136782872Y-118146397D01*
X136609422Y-118486811D01*
X136606740Y-118492836D01*
X136469829Y-118849502D01*
X136467788Y-118855784D01*
X136368906Y-119224816D01*
X136367535Y-119231266D01*
X136307766Y-119608629D01*
X136307080Y-119615167D01*
X136287084Y-119996699D01*
X136287084Y-120003301D01*
X119353231Y-120003301D01*
X119356500Y-119971400D01*
X119356500Y-119558791D01*
X119376502Y-119490670D01*
X119383683Y-119480617D01*
X119392279Y-119469751D01*
X119395072Y-119466345D01*
X119437591Y-119416297D01*
X119437592Y-119416295D01*
X119442333Y-119410715D01*
X119445661Y-119404199D01*
X119449028Y-119399150D01*
X119452195Y-119394021D01*
X119456734Y-119388284D01*
X119487655Y-119322125D01*
X119489561Y-119318225D01*
X119516403Y-119265658D01*
X119522769Y-119253192D01*
X119524508Y-119246084D01*
X119526607Y-119240441D01*
X119528524Y-119234678D01*
X119531622Y-119228050D01*
X119546487Y-119156583D01*
X119547457Y-119152299D01*
X119563473Y-119086845D01*
X119564808Y-119081390D01*
X119565500Y-119070236D01*
X119565536Y-119070238D01*
X119565775Y-119066245D01*
X119566149Y-119062053D01*
X119567640Y-119054885D01*
X119565546Y-118977479D01*
X119565500Y-118974072D01*
X119565500Y-118130866D01*
X119585502Y-118062745D01*
X119639158Y-118016252D01*
X119709432Y-118006148D01*
X119774012Y-118035642D01*
X119794396Y-118058145D01*
X119803479Y-118070997D01*
X119949410Y-118213157D01*
X119954205Y-118216361D01*
X119954209Y-118216364D01*
X120022149Y-118261760D01*
X120118803Y-118326342D01*
X120124106Y-118328620D01*
X120124109Y-118328622D01*
X120300680Y-118404483D01*
X120305987Y-118406763D01*
X120376596Y-118422740D01*
X120499055Y-118450450D01*
X120499060Y-118450451D01*
X120504692Y-118451725D01*
X120510463Y-118451952D01*
X120510465Y-118451952D01*
X120573470Y-118454427D01*
X120708263Y-118459723D01*
X120909883Y-118430490D01*
X120915347Y-118428635D01*
X120915352Y-118428634D01*
X121097327Y-118366862D01*
X121097332Y-118366860D01*
X121102799Y-118365004D01*
X121122672Y-118353875D01*
X121248681Y-118283306D01*
X121280551Y-118265458D01*
X121437186Y-118135186D01*
X121506429Y-118051930D01*
X121565365Y-118012347D01*
X121603302Y-118006500D01*
X127171944Y-118006500D01*
X127183800Y-118007059D01*
X127183803Y-118007059D01*
X127191537Y-118008788D01*
X127262369Y-118006562D01*
X127266327Y-118006500D01*
X127295432Y-118006500D01*
X127299832Y-118005944D01*
X127311664Y-118005012D01*
X127357831Y-118003562D01*
X127378421Y-117997580D01*
X127397782Y-117993570D01*
X127405424Y-117992605D01*
X127411204Y-117991875D01*
X127411205Y-117991875D01*
X127419064Y-117990882D01*
X127426429Y-117987966D01*
X127426433Y-117987965D01*
X127462021Y-117973874D01*
X127473231Y-117970035D01*
X127517600Y-117957145D01*
X127536065Y-117946225D01*
X127553805Y-117937534D01*
X127573756Y-117929635D01*
X127611129Y-117902482D01*
X127621048Y-117895967D01*
X127653977Y-117876493D01*
X127653981Y-117876490D01*
X127660807Y-117872453D01*
X127675971Y-117857289D01*
X127691005Y-117844448D01*
X127701943Y-117836501D01*
X127708357Y-117831841D01*
X127737803Y-117796247D01*
X127745792Y-117787468D01*
X128329527Y-117203733D01*
X137567700Y-117203733D01*
X137574034Y-117214824D01*
X139987188Y-119627978D01*
X140001132Y-119635592D01*
X140002965Y-119635461D01*
X140009580Y-119631210D01*
X142425100Y-117215690D01*
X142432241Y-117202614D01*
X142424784Y-117192247D01*
X142185065Y-116998126D01*
X142179728Y-116994249D01*
X141859315Y-116786170D01*
X141853606Y-116782873D01*
X141513189Y-116609422D01*
X141507164Y-116606740D01*
X141150498Y-116469829D01*
X141144216Y-116467788D01*
X140775184Y-116368906D01*
X140768734Y-116367535D01*
X140391371Y-116307766D01*
X140384833Y-116307080D01*
X140003301Y-116287084D01*
X139996699Y-116287084D01*
X139615167Y-116307080D01*
X139608629Y-116307766D01*
X139231266Y-116367535D01*
X139224816Y-116368906D01*
X138855784Y-116467788D01*
X138849502Y-116469829D01*
X138492836Y-116606740D01*
X138486811Y-116609422D01*
X138146397Y-116782872D01*
X138140687Y-116786169D01*
X137820265Y-116994253D01*
X137814939Y-116998123D01*
X137576165Y-117191478D01*
X137567700Y-117203733D01*
X128329527Y-117203733D01*
X132623927Y-112909333D01*
X137567600Y-107965659D01*
X137576381Y-107957669D01*
X137576390Y-107957661D01*
X137583080Y-107953416D01*
X137631621Y-107901725D01*
X137634375Y-107898884D01*
X137654926Y-107878333D01*
X137657638Y-107874837D01*
X137665349Y-107865808D01*
X137691544Y-107837913D01*
X137696972Y-107832133D01*
X137700794Y-107825181D01*
X137707301Y-107813345D01*
X137718158Y-107796816D01*
X137726447Y-107786131D01*
X137726448Y-107786129D01*
X137731304Y-107779869D01*
X137749657Y-107737456D01*
X137754868Y-107726819D01*
X137777124Y-107686337D01*
X137782457Y-107665566D01*
X137788859Y-107646864D01*
X137797379Y-107627177D01*
X137804605Y-107581552D01*
X137807013Y-107569926D01*
X137816529Y-107532865D01*
X137816529Y-107532864D01*
X137818500Y-107525188D01*
X137818500Y-107503742D01*
X137820051Y-107484031D01*
X137822166Y-107470678D01*
X137823406Y-107462849D01*
X137819059Y-107416864D01*
X137818500Y-107405006D01*
X137818500Y-101164950D01*
X137838502Y-101096829D01*
X137855405Y-101075855D01*
X138292391Y-100638869D01*
X138354703Y-100604843D01*
X138425518Y-100609908D01*
X138482354Y-100652455D01*
X138504801Y-100702090D01*
X138543477Y-100886420D01*
X138546537Y-100896617D01*
X138627263Y-101101029D01*
X138631994Y-101110561D01*
X138746016Y-101298462D01*
X138752280Y-101307052D01*
X138896327Y-101473052D01*
X138903958Y-101480472D01*
X139073911Y-101619826D01*
X139082678Y-101625850D01*
X139273682Y-101734576D01*
X139283346Y-101739041D01*
X139489941Y-101814031D01*
X139500208Y-101816802D01*
X139717655Y-101856123D01*
X139725884Y-101857056D01*
X139730376Y-101857268D01*
X139743124Y-101853525D01*
X139744329Y-101852135D01*
X139746000Y-101844452D01*
X139746000Y-101835970D01*
X140254000Y-101835970D01*
X140258310Y-101850648D01*
X140270193Y-101852711D01*
X140374325Y-101843876D01*
X140384797Y-101842086D01*
X140597535Y-101786870D01*
X140607575Y-101783335D01*
X140807970Y-101693063D01*
X140817256Y-101687894D01*
X140999575Y-101565150D01*
X141007870Y-101558481D01*
X141166900Y-101406772D01*
X141173941Y-101398814D01*
X141305141Y-101222475D01*
X141310745Y-101213438D01*
X141410357Y-101017516D01*
X141414357Y-101007665D01*
X141479534Y-100797760D01*
X141481817Y-100787376D01*
X141483861Y-100771957D01*
X141481665Y-100757793D01*
X141468478Y-100754000D01*
X140272115Y-100754000D01*
X140256876Y-100758475D01*
X140255671Y-100759865D01*
X140254000Y-100767548D01*
X140254000Y-101835970D01*
X139746000Y-101835970D01*
X139746000Y-100372000D01*
X139766002Y-100303879D01*
X139819658Y-100257386D01*
X139872000Y-100246000D01*
X141466192Y-100246000D01*
X141479723Y-100242027D01*
X141481248Y-100231420D01*
X141456523Y-100113579D01*
X141453463Y-100103383D01*
X141372737Y-99898971D01*
X141368006Y-99889439D01*
X141253984Y-99701538D01*
X141247720Y-99692948D01*
X141103673Y-99526948D01*
X141096044Y-99519530D01*
X141064431Y-99493609D01*
X141024436Y-99434949D01*
X141022504Y-99363979D01*
X141059248Y-99303230D01*
X141078018Y-99289030D01*
X141094188Y-99279024D01*
X141224348Y-99198478D01*
X141349305Y-99073303D01*
X141385313Y-99014888D01*
X141438275Y-98928968D01*
X141438276Y-98928966D01*
X141442115Y-98922738D01*
X141483335Y-98798462D01*
X141495632Y-98761389D01*
X141495632Y-98761387D01*
X141497797Y-98754861D01*
X141499056Y-98742579D01*
X141503629Y-98697942D01*
X141508500Y-98650400D01*
X141508500Y-97349600D01*
X141505174Y-97317540D01*
X141498238Y-97250692D01*
X141498237Y-97250688D01*
X141497526Y-97243834D01*
X141441550Y-97076054D01*
X141348478Y-96925652D01*
X141223303Y-96800695D01*
X141204113Y-96788866D01*
X141078968Y-96711725D01*
X141078966Y-96711724D01*
X141072738Y-96707885D01*
X140940519Y-96664030D01*
X140911389Y-96654368D01*
X140911387Y-96654368D01*
X140904861Y-96652203D01*
X140898025Y-96651503D01*
X140898022Y-96651502D01*
X140854969Y-96647091D01*
X140800400Y-96641500D01*
X139199600Y-96641500D01*
X139196354Y-96641837D01*
X139196350Y-96641837D01*
X139100692Y-96651762D01*
X139100688Y-96651763D01*
X139093834Y-96652474D01*
X139087298Y-96654655D01*
X139087296Y-96654655D01*
X138991270Y-96686692D01*
X138926054Y-96708450D01*
X138775652Y-96801522D01*
X138650695Y-96926697D01*
X138646855Y-96932927D01*
X138646854Y-96932928D01*
X138641559Y-96941519D01*
X138557885Y-97077262D01*
X138540916Y-97128422D01*
X138517431Y-97199229D01*
X138502203Y-97245139D01*
X138491500Y-97349600D01*
X138491500Y-98525050D01*
X138471498Y-98593171D01*
X138454595Y-98614145D01*
X136752395Y-100316345D01*
X136743615Y-100324335D01*
X136743613Y-100324337D01*
X136736920Y-100328584D01*
X136731494Y-100334362D01*
X136731493Y-100334363D01*
X136688396Y-100380257D01*
X136685641Y-100383099D01*
X136665073Y-100403667D01*
X136662356Y-100407170D01*
X136654648Y-100416195D01*
X136623028Y-100449867D01*
X136619207Y-100456818D01*
X136619206Y-100456819D01*
X136612697Y-100468658D01*
X136601843Y-100485182D01*
X136594018Y-100495271D01*
X136588696Y-100502132D01*
X136585549Y-100509404D01*
X136585548Y-100509406D01*
X136570346Y-100544535D01*
X136565124Y-100555195D01*
X136556624Y-100570657D01*
X136542876Y-100595663D01*
X136537541Y-100616441D01*
X136531142Y-100635131D01*
X136522620Y-100654824D01*
X136521380Y-100662655D01*
X136515394Y-100700448D01*
X136512987Y-100712071D01*
X136501500Y-100756812D01*
X136501500Y-100778259D01*
X136499949Y-100797969D01*
X136496594Y-100819152D01*
X136497340Y-100827043D01*
X136500941Y-100865138D01*
X136501500Y-100876996D01*
X136501500Y-107117051D01*
X136481498Y-107185172D01*
X136464595Y-107206146D01*
X134079909Y-109590831D01*
X127018145Y-116652595D01*
X126955833Y-116686621D01*
X126929050Y-116689500D01*
X121604995Y-116689500D01*
X121536874Y-116669498D01*
X121504038Y-116638890D01*
X121489815Y-116619844D01*
X121477305Y-116603091D01*
X121335295Y-116471818D01*
X121331943Y-116468719D01*
X121331940Y-116468717D01*
X121327703Y-116464800D01*
X121281675Y-116435759D01*
X121160288Y-116359169D01*
X121160283Y-116359167D01*
X121155404Y-116356088D01*
X120966180Y-116280595D01*
X120766366Y-116240849D01*
X120760592Y-116240773D01*
X120760588Y-116240773D01*
X120657452Y-116239424D01*
X120562655Y-116238183D01*
X120556958Y-116239162D01*
X120556957Y-116239162D01*
X120437838Y-116259630D01*
X120367313Y-116251453D01*
X120312406Y-116206446D01*
X120290500Y-116135450D01*
X120290500Y-115734498D01*
X120287562Y-115697169D01*
X120241145Y-115537399D01*
X120156453Y-115394193D01*
X120153771Y-115391511D01*
X120128498Y-115327139D01*
X120142400Y-115257516D01*
X120152572Y-115241688D01*
X120156453Y-115237807D01*
X120241145Y-115094601D01*
X120243415Y-115086790D01*
X120285767Y-114941008D01*
X120287562Y-114934831D01*
X120288074Y-114928333D01*
X120290307Y-114899958D01*
X120290307Y-114899950D01*
X120290500Y-114897502D01*
X120290500Y-114464498D01*
X120287562Y-114427169D01*
X120258528Y-114327231D01*
X120243357Y-114275012D01*
X120243356Y-114275010D01*
X120241145Y-114267399D01*
X120156453Y-114124193D01*
X120153771Y-114121511D01*
X120128498Y-114057139D01*
X120142400Y-113987516D01*
X120152572Y-113971688D01*
X120156453Y-113967807D01*
X120241145Y-113824601D01*
X120287562Y-113664831D01*
X120290500Y-113627502D01*
X120290500Y-113194498D01*
X120287562Y-113157169D01*
X120241145Y-112997399D01*
X120156453Y-112854193D01*
X120153771Y-112851511D01*
X120128498Y-112787139D01*
X120142400Y-112717516D01*
X120152572Y-112701688D01*
X120156453Y-112697807D01*
X120241145Y-112554601D01*
X120287562Y-112394831D01*
X120290500Y-112357502D01*
X120290500Y-111924498D01*
X120287562Y-111887169D01*
X120241145Y-111727399D01*
X120207057Y-111669759D01*
X120160491Y-111591020D01*
X120160489Y-111591017D01*
X120156453Y-111584193D01*
X120038807Y-111466547D01*
X120031983Y-111462511D01*
X120031980Y-111462509D01*
X119902427Y-111385892D01*
X119902428Y-111385892D01*
X119895601Y-111381855D01*
X119887990Y-111379644D01*
X119887988Y-111379643D01*
X119835769Y-111364472D01*
X119735831Y-111335438D01*
X119729426Y-111334934D01*
X119729421Y-111334933D01*
X119700958Y-111332693D01*
X119700950Y-111332693D01*
X119698502Y-111332500D01*
X119591500Y-111332500D01*
X119523379Y-111312498D01*
X119476886Y-111258842D01*
X119465500Y-111206500D01*
X119465500Y-110762595D01*
X121115001Y-110762595D01*
X121115338Y-110769114D01*
X121125257Y-110864706D01*
X121128149Y-110878100D01*
X121179588Y-111032284D01*
X121185761Y-111045462D01*
X121271063Y-111183307D01*
X121280099Y-111194708D01*
X121394829Y-111309239D01*
X121406240Y-111318251D01*
X121544243Y-111403316D01*
X121557424Y-111409463D01*
X121711710Y-111460638D01*
X121725086Y-111463505D01*
X121819438Y-111473172D01*
X121825854Y-111473500D01*
X122075885Y-111473500D01*
X122091124Y-111469025D01*
X122092329Y-111467635D01*
X122094000Y-111459952D01*
X122094000Y-111455384D01*
X122602000Y-111455384D01*
X122606475Y-111470623D01*
X122607865Y-111471828D01*
X122615548Y-111473499D01*
X122870095Y-111473499D01*
X122876614Y-111473162D01*
X122972206Y-111463243D01*
X122985600Y-111460351D01*
X123139784Y-111408912D01*
X123152962Y-111402739D01*
X123290807Y-111317437D01*
X123302208Y-111308401D01*
X123416739Y-111193671D01*
X123425751Y-111182260D01*
X123510816Y-111044257D01*
X123516963Y-111031076D01*
X123568138Y-110876790D01*
X123571005Y-110863414D01*
X123577492Y-110800095D01*
X125115001Y-110800095D01*
X125115338Y-110806614D01*
X125125257Y-110902206D01*
X125128149Y-110915600D01*
X125179588Y-111069784D01*
X125185761Y-111082962D01*
X125271063Y-111220807D01*
X125280099Y-111232208D01*
X125394829Y-111346739D01*
X125406240Y-111355751D01*
X125544243Y-111440816D01*
X125557424Y-111446963D01*
X125711710Y-111498138D01*
X125725086Y-111501005D01*
X125819438Y-111510672D01*
X125825854Y-111511000D01*
X126075885Y-111511000D01*
X126091124Y-111506525D01*
X126092329Y-111505135D01*
X126094000Y-111497452D01*
X126094000Y-111492884D01*
X126602000Y-111492884D01*
X126606475Y-111508123D01*
X126607865Y-111509328D01*
X126615548Y-111510999D01*
X126870095Y-111510999D01*
X126876614Y-111510662D01*
X126972206Y-111500743D01*
X126985600Y-111497851D01*
X127139784Y-111446412D01*
X127152962Y-111440239D01*
X127290807Y-111354937D01*
X127302208Y-111345901D01*
X127416739Y-111231171D01*
X127425751Y-111219760D01*
X127510816Y-111081757D01*
X127516963Y-111068576D01*
X127568138Y-110914290D01*
X127571005Y-110900914D01*
X127580672Y-110806562D01*
X127581000Y-110800146D01*
X127581000Y-110687615D01*
X127576525Y-110672376D01*
X127575135Y-110671171D01*
X127567452Y-110669500D01*
X126620115Y-110669500D01*
X126604876Y-110673975D01*
X126603671Y-110675365D01*
X126602000Y-110683048D01*
X126602000Y-111492884D01*
X126094000Y-111492884D01*
X126094000Y-110687615D01*
X126089525Y-110672376D01*
X126088135Y-110671171D01*
X126080452Y-110669500D01*
X125133116Y-110669500D01*
X125117877Y-110673975D01*
X125116672Y-110675365D01*
X125115001Y-110683048D01*
X125115001Y-110800095D01*
X123577492Y-110800095D01*
X123580672Y-110769062D01*
X123581000Y-110762646D01*
X123581000Y-110650115D01*
X123576525Y-110634876D01*
X123575135Y-110633671D01*
X123567452Y-110632000D01*
X122620115Y-110632000D01*
X122604876Y-110636475D01*
X122603671Y-110637865D01*
X122602000Y-110645548D01*
X122602000Y-111455384D01*
X122094000Y-111455384D01*
X122094000Y-110650115D01*
X122089525Y-110634876D01*
X122088135Y-110633671D01*
X122080452Y-110632000D01*
X121133116Y-110632000D01*
X121117877Y-110636475D01*
X121116672Y-110637865D01*
X121115001Y-110645548D01*
X121115001Y-110762595D01*
X119465500Y-110762595D01*
X119465500Y-109999056D01*
X119466059Y-109987200D01*
X119466059Y-109987197D01*
X119467788Y-109979463D01*
X119465562Y-109908631D01*
X119465500Y-109904673D01*
X119465500Y-109875568D01*
X119464944Y-109871168D01*
X119464012Y-109859330D01*
X119463887Y-109855333D01*
X119462562Y-109813169D01*
X119456580Y-109792579D01*
X119452570Y-109773216D01*
X119450875Y-109759796D01*
X119450875Y-109759795D01*
X119449882Y-109751936D01*
X119446966Y-109744571D01*
X119446965Y-109744567D01*
X119432874Y-109708979D01*
X119429035Y-109697769D01*
X119416145Y-109653400D01*
X119405229Y-109634943D01*
X119396534Y-109617193D01*
X119388635Y-109597244D01*
X119383976Y-109590831D01*
X119361477Y-109559864D01*
X119354960Y-109549943D01*
X119331452Y-109510193D01*
X119316291Y-109495032D01*
X119303449Y-109479997D01*
X119290841Y-109462643D01*
X119255248Y-109433198D01*
X119246467Y-109425208D01*
X118812768Y-108991508D01*
X118778743Y-108929196D01*
X118783808Y-108858380D01*
X118826355Y-108801545D01*
X118866711Y-108781416D01*
X118912847Y-108768012D01*
X118983153Y-108768012D01*
X119116925Y-108806877D01*
X119116927Y-108806877D01*
X119123111Y-108808674D01*
X119135762Y-108809670D01*
X119156562Y-108811307D01*
X119156575Y-108811308D01*
X119159021Y-108811500D01*
X119347885Y-108811500D01*
X119536978Y-108811499D01*
X119544766Y-108810886D01*
X119566474Y-108809179D01*
X119566477Y-108809178D01*
X119572889Y-108808674D01*
X119579063Y-108806880D01*
X119579070Y-108806879D01*
X119713743Y-108767752D01*
X119784049Y-108767752D01*
X119880605Y-108795804D01*
X119894705Y-108795764D01*
X119898000Y-108788494D01*
X119898000Y-108701095D01*
X119918002Y-108632974D01*
X119934905Y-108612000D01*
X119977542Y-108569363D01*
X119981573Y-108562547D01*
X119981576Y-108562543D01*
X120054984Y-108438414D01*
X120059018Y-108431593D01*
X120068023Y-108400597D01*
X120101878Y-108284072D01*
X120101879Y-108284069D01*
X120103674Y-108277889D01*
X120104670Y-108265238D01*
X120106307Y-108244438D01*
X120106308Y-108244425D01*
X120106500Y-108241979D01*
X120106499Y-107428999D01*
X120126501Y-107360879D01*
X120180157Y-107314386D01*
X120232499Y-107303000D01*
X120887884Y-107303000D01*
X120903123Y-107298525D01*
X120904328Y-107297135D01*
X120905999Y-107289452D01*
X120905999Y-107062500D01*
X120926001Y-106994379D01*
X120979657Y-106947886D01*
X121031999Y-106936500D01*
X121156629Y-106936500D01*
X121224750Y-106956502D01*
X121245724Y-106973405D01*
X121434823Y-107162504D01*
X121468849Y-107224816D01*
X121463784Y-107295631D01*
X121421237Y-107352467D01*
X121412039Y-107358738D01*
X121398652Y-107367022D01*
X121393479Y-107372204D01*
X121351419Y-107414337D01*
X121273695Y-107492197D01*
X121269855Y-107498427D01*
X121269854Y-107498428D01*
X121195318Y-107619348D01*
X121180885Y-107642762D01*
X121178581Y-107649709D01*
X121134213Y-107783475D01*
X121093783Y-107841835D01*
X121028218Y-107869072D01*
X120958337Y-107856539D01*
X120929664Y-107829899D01*
X120929486Y-107830104D01*
X120900135Y-107804671D01*
X120892452Y-107803000D01*
X120416115Y-107803000D01*
X120400876Y-107807475D01*
X120399671Y-107808865D01*
X120398000Y-107816548D01*
X120398000Y-108782743D01*
X120401973Y-108796274D01*
X120409871Y-108797409D01*
X120518780Y-108765768D01*
X120533217Y-108759520D01*
X120657227Y-108686181D01*
X120669665Y-108676532D01*
X120771532Y-108574665D01*
X120781181Y-108562227D01*
X120854520Y-108438217D01*
X120860768Y-108423780D01*
X120867503Y-108400597D01*
X120905716Y-108340762D01*
X120970212Y-108311084D01*
X121040515Y-108320987D01*
X121094303Y-108367327D01*
X121114500Y-108435750D01*
X121114500Y-108690900D01*
X121114837Y-108694146D01*
X121114837Y-108694150D01*
X121123892Y-108781416D01*
X121125474Y-108796666D01*
X121127655Y-108803202D01*
X121127655Y-108803204D01*
X121163194Y-108909727D01*
X121181450Y-108964446D01*
X121274522Y-109114848D01*
X121399697Y-109239805D01*
X121404235Y-109242602D01*
X121444824Y-109299853D01*
X121448054Y-109370776D01*
X121412428Y-109432187D01*
X121403932Y-109439562D01*
X121393793Y-109447598D01*
X121279261Y-109562329D01*
X121270249Y-109573740D01*
X121185184Y-109711743D01*
X121179037Y-109724924D01*
X121127862Y-109879210D01*
X121124995Y-109892586D01*
X121115328Y-109986938D01*
X121115000Y-109993355D01*
X121115000Y-110105885D01*
X121119475Y-110121124D01*
X121120865Y-110122329D01*
X121128548Y-110124000D01*
X123562884Y-110124000D01*
X123578123Y-110119525D01*
X123579328Y-110118135D01*
X123580999Y-110110452D01*
X123580999Y-109993405D01*
X123580662Y-109986886D01*
X123570743Y-109891294D01*
X123567851Y-109877900D01*
X123516412Y-109723716D01*
X123510239Y-109710538D01*
X123424937Y-109572693D01*
X123415901Y-109561292D01*
X123301172Y-109446762D01*
X123292238Y-109439706D01*
X123251177Y-109381788D01*
X123247947Y-109310865D01*
X123283574Y-109249454D01*
X123291407Y-109242654D01*
X123297348Y-109238978D01*
X123319982Y-109216305D01*
X123400165Y-109135982D01*
X123462448Y-109101903D01*
X123489338Y-109099000D01*
X125172410Y-109099000D01*
X125240531Y-109119002D01*
X125270914Y-109146518D01*
X125274522Y-109152348D01*
X125399697Y-109277305D01*
X125404235Y-109280102D01*
X125444824Y-109337353D01*
X125448054Y-109408276D01*
X125412428Y-109469687D01*
X125403932Y-109477062D01*
X125393793Y-109485098D01*
X125279261Y-109599829D01*
X125270249Y-109611240D01*
X125185184Y-109749243D01*
X125179037Y-109762424D01*
X125127862Y-109916710D01*
X125124995Y-109930086D01*
X125115328Y-110024438D01*
X125115000Y-110030855D01*
X125115000Y-110143385D01*
X125119475Y-110158624D01*
X125120865Y-110159829D01*
X125128548Y-110161500D01*
X127562884Y-110161500D01*
X127578123Y-110157025D01*
X127579328Y-110155635D01*
X127580999Y-110147952D01*
X127580999Y-110030905D01*
X127580662Y-110024386D01*
X127570743Y-109928794D01*
X127567851Y-109915400D01*
X127516412Y-109761216D01*
X127510239Y-109748038D01*
X127424937Y-109610193D01*
X127415901Y-109598792D01*
X127301172Y-109484262D01*
X127292238Y-109477206D01*
X127251177Y-109419288D01*
X127247947Y-109348365D01*
X127283574Y-109286954D01*
X127291407Y-109280154D01*
X127297348Y-109276478D01*
X127422305Y-109151303D01*
X127425261Y-109146507D01*
X127482614Y-109105845D01*
X127523578Y-109099000D01*
X132692430Y-109099000D01*
X132711380Y-109100433D01*
X132725615Y-109102599D01*
X132725619Y-109102599D01*
X132732849Y-109103699D01*
X132740141Y-109103106D01*
X132740144Y-109103106D01*
X132785518Y-109099415D01*
X132795733Y-109099000D01*
X132803793Y-109099000D01*
X132817083Y-109097451D01*
X132832007Y-109095711D01*
X132836382Y-109095278D01*
X132901839Y-109089954D01*
X132901842Y-109089953D01*
X132909137Y-109089360D01*
X132916101Y-109087104D01*
X132922060Y-109085913D01*
X132927915Y-109084529D01*
X132935181Y-109083682D01*
X133003827Y-109058765D01*
X133007955Y-109057348D01*
X133070436Y-109037107D01*
X133070438Y-109037106D01*
X133077399Y-109034851D01*
X133083654Y-109031055D01*
X133089128Y-109028549D01*
X133094558Y-109025830D01*
X133101437Y-109023333D01*
X133119385Y-109011566D01*
X133162476Y-108983314D01*
X133166180Y-108980977D01*
X133228607Y-108943095D01*
X133236984Y-108935697D01*
X133237008Y-108935724D01*
X133240000Y-108933071D01*
X133243233Y-108930368D01*
X133249352Y-108926356D01*
X133302628Y-108870117D01*
X133305006Y-108867675D01*
X134688911Y-107483770D01*
X134703323Y-107471384D01*
X134714918Y-107462851D01*
X134714923Y-107462846D01*
X134720818Y-107458508D01*
X134725557Y-107452930D01*
X134725560Y-107452927D01*
X134755035Y-107418232D01*
X134761965Y-107410716D01*
X134767661Y-107405020D01*
X134769924Y-107402159D01*
X134769929Y-107402154D01*
X134785285Y-107382744D01*
X134788074Y-107379342D01*
X134830596Y-107329291D01*
X134830597Y-107329290D01*
X134835333Y-107323715D01*
X134838661Y-107317198D01*
X134842027Y-107312150D01*
X134845190Y-107307028D01*
X134849735Y-107301284D01*
X134880664Y-107235105D01*
X134882563Y-107231221D01*
X134915769Y-107166192D01*
X134917510Y-107159077D01*
X134919613Y-107153422D01*
X134921522Y-107147683D01*
X134924622Y-107141050D01*
X134939491Y-107069565D01*
X134940461Y-107065282D01*
X134956473Y-106999844D01*
X134957808Y-106994390D01*
X134958500Y-106983236D01*
X134958535Y-106983238D01*
X134958775Y-106979266D01*
X134959152Y-106975045D01*
X134960641Y-106967885D01*
X134958546Y-106890458D01*
X134958500Y-106887050D01*
X134958500Y-99113063D01*
X134959933Y-99094114D01*
X134962097Y-99079886D01*
X134963198Y-99072651D01*
X134958915Y-99019990D01*
X134958500Y-99009777D01*
X134958500Y-99001707D01*
X134958078Y-98998087D01*
X134958077Y-98998069D01*
X134955208Y-98973461D01*
X134954775Y-98969086D01*
X134949454Y-98903661D01*
X134949453Y-98903658D01*
X134948860Y-98896363D01*
X134946604Y-98889399D01*
X134945413Y-98883440D01*
X134944029Y-98877585D01*
X134943182Y-98870319D01*
X134918265Y-98801673D01*
X134916848Y-98797545D01*
X134896607Y-98735064D01*
X134896606Y-98735062D01*
X134894351Y-98728101D01*
X134890555Y-98721846D01*
X134888049Y-98716372D01*
X134885330Y-98710942D01*
X134882833Y-98704063D01*
X134842809Y-98643016D01*
X134840472Y-98639312D01*
X134805509Y-98581693D01*
X134805505Y-98581688D01*
X134802595Y-98576892D01*
X134795197Y-98568516D01*
X134795223Y-98568493D01*
X134792574Y-98565503D01*
X134789866Y-98562264D01*
X134785856Y-98556148D01*
X134780549Y-98551121D01*
X134780546Y-98551117D01*
X134729617Y-98502872D01*
X134727175Y-98500494D01*
X132257770Y-96031089D01*
X132245384Y-96016677D01*
X132236851Y-96005082D01*
X132236846Y-96005077D01*
X132232508Y-95999182D01*
X132226930Y-95994443D01*
X132226927Y-95994440D01*
X132192232Y-95964965D01*
X132184716Y-95958035D01*
X132179021Y-95952340D01*
X132177951Y-95951493D01*
X132140624Y-95891655D01*
X132141580Y-95820665D01*
X132144005Y-95813558D01*
X132172478Y-95737606D01*
X132176105Y-95722351D01*
X132181631Y-95671486D01*
X132182000Y-95664672D01*
X132182000Y-95522115D01*
X132177525Y-95506876D01*
X132176135Y-95505671D01*
X132168452Y-95504000D01*
X128784116Y-95504000D01*
X128768877Y-95508475D01*
X128767672Y-95509865D01*
X128766001Y-95517548D01*
X128766001Y-95664669D01*
X128766371Y-95671490D01*
X128771895Y-95722352D01*
X128775522Y-95737607D01*
X128813929Y-95840059D01*
X128819112Y-95910866D01*
X128813929Y-95928517D01*
X128775029Y-96032282D01*
X128775027Y-96032288D01*
X128772255Y-96039684D01*
X128765500Y-96101866D01*
X128765500Y-96938134D01*
X128772255Y-97000316D01*
X128775027Y-97007712D01*
X128775029Y-97007718D01*
X128813662Y-97110771D01*
X128818845Y-97181578D01*
X128813662Y-97199229D01*
X128775029Y-97302282D01*
X128775027Y-97302288D01*
X128772255Y-97309684D01*
X128765500Y-97371866D01*
X128765500Y-98208134D01*
X128772255Y-98270316D01*
X128823385Y-98406705D01*
X128910739Y-98523261D01*
X129027295Y-98610615D01*
X129163684Y-98661745D01*
X129225866Y-98668500D01*
X131722134Y-98668500D01*
X131784316Y-98661745D01*
X131920705Y-98610615D01*
X132037261Y-98523261D01*
X132124615Y-98406705D01*
X132147810Y-98344834D01*
X132155008Y-98325632D01*
X132197649Y-98268867D01*
X132264211Y-98244167D01*
X132333560Y-98259374D01*
X132362085Y-98280766D01*
X133404595Y-99323276D01*
X133438621Y-99385588D01*
X133441500Y-99412371D01*
X133441500Y-104295312D01*
X133421498Y-104363433D01*
X133367842Y-104409926D01*
X133297568Y-104420030D01*
X133232988Y-104390536D01*
X133226482Y-104384485D01*
X133176171Y-104334261D01*
X133164760Y-104325249D01*
X133026757Y-104240184D01*
X133013576Y-104234037D01*
X132859290Y-104182862D01*
X132845914Y-104179995D01*
X132751562Y-104170328D01*
X132745145Y-104170000D01*
X132620115Y-104170000D01*
X132604876Y-104174475D01*
X132603671Y-104175865D01*
X132602000Y-104183548D01*
X132602000Y-106567884D01*
X132606475Y-106583123D01*
X132607865Y-106584328D01*
X132615548Y-106585999D01*
X132745095Y-106585999D01*
X132751614Y-106585662D01*
X132847206Y-106575743D01*
X132860600Y-106572851D01*
X133014784Y-106521412D01*
X133027962Y-106515239D01*
X133165807Y-106429937D01*
X133177213Y-106420897D01*
X133226328Y-106371697D01*
X133288610Y-106337618D01*
X133359430Y-106342621D01*
X133416303Y-106385119D01*
X133441171Y-106451618D01*
X133441500Y-106460715D01*
X133441500Y-106533630D01*
X133421498Y-106601751D01*
X133404599Y-106622721D01*
X132482222Y-107545097D01*
X132419912Y-107579121D01*
X132393129Y-107582000D01*
X127523590Y-107582000D01*
X127455469Y-107561998D01*
X127425086Y-107534482D01*
X127421478Y-107528652D01*
X127296303Y-107403695D01*
X127284097Y-107396171D01*
X127151968Y-107314725D01*
X127151966Y-107314724D01*
X127145738Y-107310885D01*
X127037593Y-107275015D01*
X126984389Y-107257368D01*
X126984387Y-107257368D01*
X126977861Y-107255203D01*
X126971025Y-107254503D01*
X126971022Y-107254502D01*
X126927969Y-107250091D01*
X126873400Y-107244500D01*
X125822600Y-107244500D01*
X125819354Y-107244837D01*
X125819350Y-107244837D01*
X125723692Y-107254762D01*
X125723688Y-107254763D01*
X125716834Y-107255474D01*
X125710298Y-107257655D01*
X125710296Y-107257655D01*
X125596469Y-107295631D01*
X125549054Y-107311450D01*
X125398652Y-107404522D01*
X125273695Y-107529697D01*
X125270739Y-107534493D01*
X125213386Y-107575155D01*
X125172422Y-107582000D01*
X123547899Y-107582000D01*
X123479778Y-107561998D01*
X123440755Y-107522303D01*
X123425332Y-107497380D01*
X123421478Y-107491152D01*
X123296303Y-107366195D01*
X123287679Y-107360879D01*
X123166384Y-107286111D01*
X123118890Y-107233338D01*
X123106500Y-107178851D01*
X123106500Y-107070069D01*
X123107933Y-107051118D01*
X123110099Y-107036883D01*
X123110099Y-107036881D01*
X123111199Y-107029651D01*
X123109614Y-107010157D01*
X123106915Y-106976982D01*
X123106500Y-106966767D01*
X123106500Y-106958707D01*
X123103889Y-106936307D01*
X123103211Y-106930493D01*
X123102778Y-106926118D01*
X123097454Y-106860661D01*
X123097453Y-106860658D01*
X123096860Y-106853363D01*
X123094604Y-106846399D01*
X123093413Y-106840440D01*
X123092029Y-106834585D01*
X123091182Y-106827319D01*
X123066265Y-106758673D01*
X123064848Y-106754545D01*
X123044607Y-106692064D01*
X123044606Y-106692062D01*
X123042351Y-106685101D01*
X123038555Y-106678846D01*
X123036049Y-106673372D01*
X123033330Y-106667942D01*
X123030833Y-106661063D01*
X122990809Y-106600016D01*
X122988472Y-106596312D01*
X122985611Y-106591596D01*
X122967872Y-106562363D01*
X122953509Y-106538693D01*
X122953505Y-106538688D01*
X122950595Y-106533892D01*
X122943197Y-106525516D01*
X122943223Y-106525493D01*
X122940574Y-106522503D01*
X122937866Y-106519264D01*
X122933856Y-106513148D01*
X122928549Y-106508121D01*
X122928546Y-106508117D01*
X122877617Y-106459872D01*
X122875175Y-106457494D01*
X122818405Y-106400724D01*
X122784379Y-106338412D01*
X122781500Y-106311629D01*
X122781499Y-105991496D01*
X122781499Y-105989022D01*
X122778674Y-105953111D01*
X122776880Y-105946937D01*
X122776879Y-105946930D01*
X122738012Y-105813153D01*
X122738012Y-105742845D01*
X122739981Y-105736068D01*
X122771883Y-105682128D01*
X123205606Y-105248405D01*
X123267918Y-105214379D01*
X123294701Y-105211500D01*
X123313500Y-105211500D01*
X123381621Y-105231502D01*
X123428114Y-105285158D01*
X123439500Y-105337500D01*
X123439500Y-105665072D01*
X123439837Y-105668318D01*
X123439837Y-105668322D01*
X123447570Y-105742845D01*
X123450293Y-105769093D01*
X123452474Y-105775629D01*
X123452474Y-105775631D01*
X123469083Y-105825414D01*
X123505346Y-105934107D01*
X123596884Y-106082031D01*
X123602066Y-106087204D01*
X123714816Y-106199758D01*
X123714821Y-106199762D01*
X123719997Y-106204929D01*
X123726227Y-106208769D01*
X123726228Y-106208770D01*
X123826212Y-106270401D01*
X123868080Y-106296209D01*
X124033191Y-106350974D01*
X124040027Y-106351674D01*
X124040030Y-106351675D01*
X124091526Y-106356951D01*
X124135928Y-106361500D01*
X124473050Y-106361500D01*
X124541171Y-106381502D01*
X124562145Y-106398405D01*
X124774345Y-106610605D01*
X124782335Y-106619385D01*
X124786584Y-106626080D01*
X124792362Y-106631506D01*
X124792363Y-106631507D01*
X124838257Y-106674604D01*
X124841099Y-106677359D01*
X124861667Y-106697927D01*
X124865170Y-106700644D01*
X124874195Y-106708352D01*
X124907867Y-106739972D01*
X124914818Y-106743793D01*
X124914819Y-106743794D01*
X124926658Y-106750303D01*
X124943182Y-106761157D01*
X124953865Y-106769443D01*
X124960132Y-106774304D01*
X124984006Y-106784635D01*
X125002536Y-106792654D01*
X125013181Y-106797869D01*
X125053663Y-106820124D01*
X125061337Y-106822094D01*
X125061344Y-106822097D01*
X125074426Y-106825455D01*
X125093134Y-106831860D01*
X125112823Y-106840380D01*
X125120649Y-106841619D01*
X125120651Y-106841620D01*
X125145159Y-106845501D01*
X125158459Y-106847608D01*
X125170070Y-106850012D01*
X125201107Y-106857981D01*
X125207135Y-106859529D01*
X125207136Y-106859529D01*
X125214812Y-106861500D01*
X125236258Y-106861500D01*
X125255968Y-106863051D01*
X125269322Y-106865166D01*
X125269323Y-106865166D01*
X125277152Y-106866406D01*
X125323141Y-106862059D01*
X125334996Y-106861500D01*
X129440944Y-106861500D01*
X129452800Y-106862059D01*
X129452803Y-106862059D01*
X129460537Y-106863788D01*
X129531369Y-106861562D01*
X129535327Y-106861500D01*
X129564432Y-106861500D01*
X129568832Y-106860944D01*
X129580664Y-106860012D01*
X129626831Y-106858562D01*
X129647421Y-106852580D01*
X129666782Y-106848570D01*
X129674408Y-106847607D01*
X129680204Y-106846875D01*
X129680205Y-106846875D01*
X129688064Y-106845882D01*
X129695429Y-106842966D01*
X129695433Y-106842965D01*
X129731021Y-106828874D01*
X129742231Y-106825035D01*
X129786600Y-106812145D01*
X129805065Y-106801225D01*
X129822805Y-106792534D01*
X129842756Y-106784635D01*
X129880129Y-106757482D01*
X129890048Y-106750967D01*
X129922977Y-106731493D01*
X129922981Y-106731490D01*
X129929807Y-106727453D01*
X129944971Y-106712289D01*
X129960005Y-106699448D01*
X129977357Y-106686841D01*
X130006803Y-106651247D01*
X130014792Y-106642468D01*
X130033855Y-106623405D01*
X130096167Y-106589379D01*
X130122950Y-106586500D01*
X130748400Y-106586500D01*
X130751646Y-106586163D01*
X130751650Y-106586163D01*
X130847308Y-106576238D01*
X130847312Y-106576237D01*
X130854166Y-106575526D01*
X130860702Y-106573345D01*
X130860704Y-106573345D01*
X131014998Y-106521868D01*
X131021946Y-106519550D01*
X131172348Y-106426478D01*
X131227817Y-106370912D01*
X131259138Y-106339537D01*
X131321421Y-106305458D01*
X131392241Y-106310461D01*
X131437329Y-106339382D01*
X131519829Y-106421739D01*
X131531240Y-106430751D01*
X131669243Y-106515816D01*
X131682424Y-106521963D01*
X131836710Y-106573138D01*
X131850086Y-106576005D01*
X131944438Y-106585672D01*
X131950854Y-106586000D01*
X132075885Y-106586000D01*
X132091124Y-106581525D01*
X132092329Y-106580135D01*
X132094000Y-106572452D01*
X132094000Y-104188116D01*
X132089525Y-104172877D01*
X132088135Y-104171672D01*
X132080452Y-104170001D01*
X131950905Y-104170001D01*
X131944386Y-104170338D01*
X131848794Y-104180257D01*
X131835400Y-104183149D01*
X131681216Y-104234588D01*
X131668038Y-104240761D01*
X131530193Y-104326063D01*
X131518792Y-104335099D01*
X131437570Y-104416462D01*
X131375287Y-104450541D01*
X131304467Y-104445538D01*
X131259380Y-104416617D01*
X131176488Y-104333870D01*
X131176483Y-104333866D01*
X131171303Y-104328695D01*
X131117146Y-104295312D01*
X131026968Y-104239725D01*
X131026966Y-104239724D01*
X131020738Y-104235885D01*
X130924411Y-104203935D01*
X130859389Y-104182368D01*
X130859387Y-104182368D01*
X130852861Y-104180203D01*
X130846025Y-104179503D01*
X130846022Y-104179502D01*
X130802969Y-104175091D01*
X130748400Y-104169500D01*
X129947600Y-104169500D01*
X129944354Y-104169837D01*
X129944350Y-104169837D01*
X129848692Y-104179762D01*
X129848688Y-104179763D01*
X129841834Y-104180474D01*
X129835298Y-104182655D01*
X129835296Y-104182655D01*
X129708029Y-104225115D01*
X129674054Y-104236450D01*
X129523652Y-104329522D01*
X129398695Y-104454697D01*
X129394855Y-104460927D01*
X129394854Y-104460928D01*
X129315330Y-104589940D01*
X129305885Y-104605262D01*
X129250203Y-104773139D01*
X129249503Y-104779975D01*
X129249502Y-104779978D01*
X129245846Y-104815662D01*
X129239500Y-104877600D01*
X129239500Y-105418500D01*
X129219498Y-105486621D01*
X129165842Y-105533114D01*
X129113500Y-105544500D01*
X127382500Y-105544500D01*
X127314379Y-105524498D01*
X127267886Y-105470842D01*
X127256500Y-105418500D01*
X127256500Y-105090928D01*
X127255989Y-105086000D01*
X127246419Y-104993765D01*
X127246418Y-104993761D01*
X127245707Y-104986907D01*
X127242736Y-104978000D01*
X127192972Y-104828841D01*
X127190654Y-104821893D01*
X127099116Y-104673969D01*
X127093934Y-104668796D01*
X126981184Y-104556242D01*
X126981179Y-104556238D01*
X126976003Y-104551071D01*
X126932620Y-104524329D01*
X126834150Y-104463631D01*
X126834148Y-104463630D01*
X126827920Y-104459791D01*
X126662809Y-104405026D01*
X126655973Y-104404326D01*
X126655970Y-104404325D01*
X126604474Y-104399049D01*
X126560072Y-104394500D01*
X126222950Y-104394500D01*
X126154829Y-104374498D01*
X126133855Y-104357595D01*
X125921657Y-104145397D01*
X125913668Y-104136618D01*
X125913663Y-104136612D01*
X125909416Y-104129920D01*
X125857741Y-104081394D01*
X125854900Y-104078640D01*
X125834333Y-104058073D01*
X125830826Y-104055353D01*
X125821804Y-104047647D01*
X125817390Y-104043502D01*
X125788133Y-104016028D01*
X125781181Y-104012206D01*
X125769342Y-104005697D01*
X125752818Y-103994843D01*
X125742132Y-103986555D01*
X125735868Y-103981696D01*
X125728596Y-103978549D01*
X125728594Y-103978548D01*
X125693465Y-103963346D01*
X125682805Y-103958124D01*
X125649284Y-103939695D01*
X125649282Y-103939694D01*
X125642337Y-103935876D01*
X125621559Y-103930541D01*
X125602869Y-103924142D01*
X125583176Y-103915620D01*
X125537552Y-103908394D01*
X125525929Y-103905987D01*
X125492631Y-103897438D01*
X125481188Y-103894500D01*
X125459741Y-103894500D01*
X125440031Y-103892949D01*
X125426677Y-103890834D01*
X125418848Y-103889594D01*
X125372859Y-103893941D01*
X125361004Y-103894500D01*
X123051807Y-103894500D01*
X123039951Y-103893941D01*
X123039948Y-103893941D01*
X123032214Y-103892212D01*
X122977197Y-103893941D01*
X122961382Y-103894438D01*
X122957424Y-103894500D01*
X122928319Y-103894500D01*
X122923919Y-103895056D01*
X122911960Y-103895992D01*
X122911666Y-103896001D01*
X122911329Y-103896011D01*
X122842632Y-103878088D01*
X122794530Y-103825870D01*
X122781500Y-103770070D01*
X122781499Y-103591496D01*
X122781499Y-103589022D01*
X122778674Y-103553111D01*
X122776880Y-103546937D01*
X122776879Y-103546930D01*
X122738012Y-103413153D01*
X122738012Y-103342847D01*
X122776877Y-103209075D01*
X122776878Y-103209070D01*
X122778674Y-103202889D01*
X122779670Y-103190238D01*
X122781307Y-103169438D01*
X122781308Y-103169425D01*
X122781500Y-103166979D01*
X122781499Y-102789022D01*
X122779998Y-102769936D01*
X122779179Y-102759526D01*
X122779178Y-102759523D01*
X122778674Y-102753111D01*
X122764525Y-102704409D01*
X122738012Y-102613153D01*
X122738012Y-102542847D01*
X122776877Y-102409075D01*
X122776878Y-102409070D01*
X122778674Y-102402889D01*
X122779777Y-102388870D01*
X122781307Y-102369438D01*
X122781308Y-102369425D01*
X122781500Y-102366979D01*
X122781499Y-102162500D01*
X122801501Y-102094380D01*
X122855156Y-102047887D01*
X122907499Y-102036500D01*
X123075944Y-102036500D01*
X123087800Y-102037059D01*
X123087803Y-102037059D01*
X123095537Y-102038788D01*
X123166369Y-102036562D01*
X123170327Y-102036500D01*
X123199432Y-102036500D01*
X123203832Y-102035944D01*
X123215664Y-102035012D01*
X123261831Y-102033562D01*
X123282421Y-102027580D01*
X123301782Y-102023570D01*
X123308770Y-102022688D01*
X123315204Y-102021875D01*
X123315205Y-102021875D01*
X123323064Y-102020882D01*
X123330429Y-102017966D01*
X123330433Y-102017965D01*
X123366021Y-102003874D01*
X123377231Y-102000035D01*
X123421600Y-101987145D01*
X123440065Y-101976225D01*
X123457805Y-101967534D01*
X123477756Y-101959635D01*
X123515129Y-101932482D01*
X123525048Y-101925967D01*
X123557977Y-101906493D01*
X123557981Y-101906490D01*
X123564807Y-101902453D01*
X123579971Y-101887289D01*
X123595005Y-101874448D01*
X123605943Y-101866501D01*
X123612357Y-101861841D01*
X123641803Y-101826247D01*
X123649792Y-101817468D01*
X125107599Y-100359660D01*
X125116380Y-100351670D01*
X125116391Y-100351661D01*
X125123080Y-100347416D01*
X125171621Y-100295726D01*
X125174343Y-100292917D01*
X125194926Y-100272333D01*
X125197638Y-100268837D01*
X125205349Y-100259808D01*
X125218316Y-100246000D01*
X125236972Y-100226133D01*
X125242582Y-100215928D01*
X125247301Y-100207345D01*
X125258158Y-100190816D01*
X125266447Y-100180131D01*
X125266448Y-100180129D01*
X125271304Y-100173869D01*
X125289657Y-100131456D01*
X125294868Y-100120819D01*
X125317124Y-100080337D01*
X125322457Y-100059566D01*
X125328859Y-100040864D01*
X125337379Y-100021177D01*
X125341934Y-99992420D01*
X125344605Y-99975552D01*
X125347013Y-99963926D01*
X125356529Y-99926865D01*
X125356529Y-99926864D01*
X125358500Y-99919188D01*
X125358500Y-99897742D01*
X125360051Y-99878031D01*
X125362166Y-99864678D01*
X125363406Y-99856849D01*
X125359059Y-99810864D01*
X125358500Y-99799006D01*
X125358500Y-98794500D01*
X125378502Y-98726379D01*
X125432158Y-98679886D01*
X125484500Y-98668500D01*
X127822134Y-98668500D01*
X127884316Y-98661745D01*
X128020705Y-98610615D01*
X128137261Y-98523261D01*
X128224615Y-98406705D01*
X128275745Y-98270316D01*
X128282500Y-98208134D01*
X128282500Y-97371866D01*
X128275745Y-97309684D01*
X128272973Y-97302288D01*
X128272971Y-97302282D01*
X128234338Y-97199229D01*
X128229155Y-97128422D01*
X128234338Y-97110771D01*
X128272971Y-97007718D01*
X128272973Y-97007712D01*
X128275745Y-97000316D01*
X128282500Y-96938134D01*
X128282500Y-96101866D01*
X128275745Y-96039684D01*
X128272973Y-96032288D01*
X128272971Y-96032282D01*
X128234338Y-95929229D01*
X128229155Y-95858422D01*
X128234338Y-95840771D01*
X128272971Y-95737718D01*
X128272973Y-95737712D01*
X128275745Y-95730316D01*
X128282500Y-95668134D01*
X128282500Y-94977885D01*
X128766000Y-94977885D01*
X128770475Y-94993124D01*
X128771865Y-94994329D01*
X128779548Y-94996000D01*
X130201885Y-94996000D01*
X130217124Y-94991525D01*
X130218329Y-94990135D01*
X130220000Y-94982452D01*
X130220000Y-94977885D01*
X130728000Y-94977885D01*
X130732475Y-94993124D01*
X130733865Y-94994329D01*
X130741548Y-94996000D01*
X132163884Y-94996000D01*
X132179123Y-94991525D01*
X132180328Y-94990135D01*
X132181999Y-94982452D01*
X132181999Y-94835331D01*
X132181629Y-94828510D01*
X132176105Y-94777648D01*
X132172478Y-94762394D01*
X132133804Y-94659229D01*
X132128621Y-94588422D01*
X132133804Y-94570771D01*
X132172478Y-94467609D01*
X132176105Y-94452351D01*
X132181631Y-94401486D01*
X132182000Y-94394672D01*
X132182000Y-94252115D01*
X132177525Y-94236876D01*
X132176135Y-94235671D01*
X132168452Y-94234000D01*
X130746115Y-94234000D01*
X130730876Y-94238475D01*
X130729671Y-94239865D01*
X130728000Y-94247548D01*
X130728000Y-94977885D01*
X130220000Y-94977885D01*
X130220000Y-94252115D01*
X130215525Y-94236876D01*
X130214135Y-94235671D01*
X130206452Y-94234000D01*
X128784116Y-94234000D01*
X128768877Y-94238475D01*
X128767672Y-94239865D01*
X128766001Y-94247548D01*
X128766001Y-94394669D01*
X128766371Y-94401490D01*
X128771895Y-94452352D01*
X128775522Y-94467606D01*
X128814196Y-94570771D01*
X128819379Y-94641578D01*
X128814196Y-94659229D01*
X128775522Y-94762391D01*
X128771895Y-94777649D01*
X128766369Y-94828514D01*
X128766000Y-94835328D01*
X128766000Y-94977885D01*
X128282500Y-94977885D01*
X128282500Y-94831866D01*
X128275745Y-94769684D01*
X128272973Y-94762288D01*
X128272971Y-94762282D01*
X128234338Y-94659229D01*
X128229155Y-94588422D01*
X128234338Y-94570771D01*
X128272971Y-94467718D01*
X128272973Y-94467712D01*
X128275745Y-94460316D01*
X128282500Y-94398134D01*
X128282500Y-93561866D01*
X128275745Y-93499684D01*
X128272973Y-93492288D01*
X128272971Y-93492282D01*
X128234338Y-93389229D01*
X128229155Y-93318422D01*
X128234338Y-93300771D01*
X128272971Y-93197718D01*
X128272973Y-93197712D01*
X128275745Y-93190316D01*
X128282500Y-93128134D01*
X128765500Y-93128134D01*
X128772255Y-93190316D01*
X128775027Y-93197712D01*
X128775029Y-93197718D01*
X128813929Y-93301483D01*
X128819112Y-93372290D01*
X128813929Y-93389941D01*
X128775522Y-93492391D01*
X128771895Y-93507649D01*
X128766369Y-93558514D01*
X128766000Y-93565328D01*
X128766000Y-93707885D01*
X128770475Y-93723124D01*
X128771865Y-93724329D01*
X128779548Y-93726000D01*
X132163884Y-93726000D01*
X132179123Y-93721525D01*
X132180328Y-93720135D01*
X132181999Y-93712452D01*
X132181999Y-93565331D01*
X132181629Y-93558510D01*
X132176105Y-93507648D01*
X132172478Y-93492393D01*
X132134071Y-93389941D01*
X132128888Y-93319134D01*
X132134071Y-93301483D01*
X132172971Y-93197718D01*
X132172973Y-93197712D01*
X132175745Y-93190316D01*
X132182500Y-93128134D01*
X132182500Y-92291866D01*
X132175745Y-92229684D01*
X132172973Y-92222288D01*
X132172971Y-92222282D01*
X132134071Y-92118517D01*
X132128888Y-92047710D01*
X132134071Y-92030059D01*
X132172478Y-91927609D01*
X132176105Y-91912351D01*
X132181631Y-91861486D01*
X132182000Y-91854672D01*
X132182000Y-91712115D01*
X132177525Y-91696876D01*
X132176135Y-91695671D01*
X132168452Y-91694000D01*
X128784116Y-91694000D01*
X128768877Y-91698475D01*
X128767672Y-91699865D01*
X128766001Y-91707548D01*
X128766001Y-91854669D01*
X128766371Y-91861490D01*
X128771895Y-91912352D01*
X128775522Y-91927607D01*
X128813929Y-92030059D01*
X128819112Y-92100866D01*
X128813929Y-92118517D01*
X128775029Y-92222282D01*
X128775027Y-92222288D01*
X128772255Y-92229684D01*
X128765500Y-92291866D01*
X128765500Y-93128134D01*
X128282500Y-93128134D01*
X128282500Y-92291866D01*
X128275745Y-92229684D01*
X128272973Y-92222288D01*
X128272971Y-92222282D01*
X128234338Y-92119229D01*
X128229155Y-92048422D01*
X128234338Y-92030771D01*
X128272971Y-91927718D01*
X128272973Y-91927712D01*
X128275745Y-91920316D01*
X128282500Y-91858134D01*
X128282500Y-91021866D01*
X128275745Y-90959684D01*
X128272973Y-90952288D01*
X128272971Y-90952282D01*
X128234338Y-90849229D01*
X128229155Y-90778422D01*
X128234338Y-90760771D01*
X128272971Y-90657718D01*
X128272973Y-90657712D01*
X128275745Y-90650316D01*
X128282500Y-90588134D01*
X128282500Y-89751866D01*
X128275745Y-89689684D01*
X128224615Y-89553295D01*
X128154743Y-89460065D01*
X128129895Y-89393559D01*
X128144948Y-89324176D01*
X128195122Y-89273946D01*
X128255569Y-89258500D01*
X128579050Y-89258500D01*
X128647171Y-89278502D01*
X128668145Y-89295405D01*
X128794010Y-89421270D01*
X128828036Y-89483582D01*
X128822897Y-89554594D01*
X128775029Y-89682282D01*
X128775027Y-89682288D01*
X128772255Y-89689684D01*
X128765500Y-89751866D01*
X128765500Y-90588134D01*
X128772255Y-90650316D01*
X128775027Y-90657712D01*
X128775029Y-90657718D01*
X128813929Y-90761483D01*
X128819112Y-90832290D01*
X128813929Y-90849941D01*
X128775522Y-90952391D01*
X128771895Y-90967649D01*
X128766369Y-91018514D01*
X128766000Y-91025328D01*
X128766000Y-91167885D01*
X128770475Y-91183124D01*
X128771865Y-91184329D01*
X128779548Y-91186000D01*
X132163884Y-91186000D01*
X132179123Y-91181525D01*
X132180328Y-91180135D01*
X132181999Y-91172452D01*
X132181999Y-91025331D01*
X132181629Y-91018510D01*
X132176105Y-90967648D01*
X132172478Y-90952393D01*
X132134071Y-90849941D01*
X132128888Y-90779134D01*
X132134071Y-90761483D01*
X132172971Y-90657718D01*
X132172973Y-90657712D01*
X132175745Y-90650316D01*
X132182500Y-90588134D01*
X132182500Y-89751866D01*
X132175745Y-89689684D01*
X132124615Y-89553295D01*
X132037261Y-89436739D01*
X131920705Y-89349385D01*
X131784316Y-89298255D01*
X131722134Y-89291500D01*
X130578949Y-89291500D01*
X130510828Y-89271498D01*
X130489854Y-89254595D01*
X129427655Y-88192396D01*
X129419663Y-88183613D01*
X129419663Y-88183612D01*
X129415416Y-88176920D01*
X129363741Y-88128394D01*
X129360900Y-88125640D01*
X129340333Y-88105073D01*
X129336826Y-88102353D01*
X129327804Y-88094647D01*
X129323613Y-88090711D01*
X129294133Y-88063028D01*
X129287181Y-88059206D01*
X129275342Y-88052697D01*
X129258818Y-88041843D01*
X129248132Y-88033555D01*
X129241868Y-88028696D01*
X129234596Y-88025549D01*
X129234594Y-88025548D01*
X129199465Y-88010346D01*
X129188805Y-88005124D01*
X129155284Y-87986695D01*
X129155282Y-87986694D01*
X129148337Y-87982876D01*
X129127559Y-87977541D01*
X129108869Y-87971142D01*
X129089176Y-87962620D01*
X129043552Y-87955394D01*
X129031929Y-87952987D01*
X128997661Y-87944189D01*
X128987188Y-87941500D01*
X128965741Y-87941500D01*
X128946031Y-87939949D01*
X128932677Y-87937834D01*
X128924848Y-87936594D01*
X128878859Y-87940941D01*
X128867004Y-87941500D01*
X123982056Y-87941500D01*
X123970200Y-87940941D01*
X123970197Y-87940941D01*
X123962463Y-87939212D01*
X123907446Y-87940941D01*
X123891631Y-87941438D01*
X123887673Y-87941500D01*
X123858568Y-87941500D01*
X123854168Y-87942056D01*
X123842336Y-87942988D01*
X123796169Y-87944438D01*
X123775579Y-87950420D01*
X123756218Y-87954430D01*
X123749230Y-87955312D01*
X123742796Y-87956125D01*
X123742795Y-87956125D01*
X123734936Y-87957118D01*
X123727571Y-87960034D01*
X123727567Y-87960035D01*
X123691979Y-87974126D01*
X123680769Y-87977965D01*
X123636400Y-87990855D01*
X123617935Y-88001775D01*
X123600195Y-88010466D01*
X123580244Y-88018365D01*
X123542874Y-88045516D01*
X123532952Y-88052033D01*
X123500023Y-88071507D01*
X123500019Y-88071510D01*
X123493193Y-88075547D01*
X123478029Y-88090711D01*
X123462996Y-88103551D01*
X123445643Y-88116159D01*
X123424960Y-88141161D01*
X123416198Y-88151752D01*
X123408208Y-88160532D01*
X121258395Y-90310345D01*
X121249615Y-90318335D01*
X121249613Y-90318337D01*
X121242920Y-90322584D01*
X121237494Y-90328362D01*
X121237493Y-90328363D01*
X121194396Y-90374257D01*
X121191641Y-90377099D01*
X121171073Y-90397667D01*
X121168356Y-90401170D01*
X121160648Y-90410195D01*
X121129028Y-90443867D01*
X121125207Y-90450818D01*
X121125206Y-90450819D01*
X121118697Y-90462658D01*
X121107843Y-90479182D01*
X121100018Y-90489271D01*
X121094696Y-90496132D01*
X121091549Y-90503404D01*
X121091548Y-90503406D01*
X121076346Y-90538535D01*
X121071124Y-90549195D01*
X121048876Y-90589663D01*
X121043541Y-90610441D01*
X121037142Y-90629131D01*
X121028620Y-90648824D01*
X121021687Y-90692596D01*
X121021394Y-90694448D01*
X121018987Y-90706071D01*
X121007500Y-90750812D01*
X121007500Y-90772259D01*
X121005949Y-90791969D01*
X121002594Y-90813152D01*
X121003340Y-90821043D01*
X121006941Y-90859138D01*
X121007500Y-90870996D01*
X121007500Y-96581912D01*
X120987498Y-96650033D01*
X120964577Y-96676644D01*
X120928309Y-96708450D01*
X120858478Y-96769690D01*
X120854911Y-96774215D01*
X120854906Y-96774220D01*
X120776128Y-96874150D01*
X120732351Y-96929681D01*
X120729662Y-96934792D01*
X120729660Y-96934795D01*
X120726116Y-96941531D01*
X120637492Y-97109978D01*
X120577078Y-97304543D01*
X120553132Y-97506859D01*
X120566457Y-97710151D01*
X120592700Y-97813483D01*
X120590082Y-97884430D01*
X120549522Y-97942700D01*
X120483897Y-97969791D01*
X120435424Y-97965494D01*
X120379075Y-97949123D01*
X120379073Y-97949123D01*
X120372889Y-97947326D01*
X120360238Y-97946330D01*
X120339438Y-97944693D01*
X120339425Y-97944692D01*
X120336979Y-97944500D01*
X120148115Y-97944500D01*
X119959022Y-97944501D01*
X119951234Y-97945114D01*
X119929526Y-97946821D01*
X119929523Y-97946822D01*
X119923111Y-97947326D01*
X119916937Y-97949120D01*
X119916930Y-97949121D01*
X119783153Y-97987988D01*
X119712847Y-97987988D01*
X119579075Y-97949123D01*
X119579073Y-97949123D01*
X119572889Y-97947326D01*
X119560238Y-97946330D01*
X119539438Y-97944693D01*
X119539425Y-97944692D01*
X119536979Y-97944500D01*
X119348115Y-97944500D01*
X119159022Y-97944501D01*
X119151234Y-97945114D01*
X119129526Y-97946821D01*
X119129523Y-97946822D01*
X119123111Y-97947326D01*
X119116937Y-97949120D01*
X119116930Y-97949121D01*
X118983153Y-97987988D01*
X118912847Y-97987988D01*
X118779075Y-97949123D01*
X118779073Y-97949123D01*
X118772889Y-97947326D01*
X118760238Y-97946330D01*
X118739438Y-97944693D01*
X118739425Y-97944692D01*
X118736979Y-97944500D01*
X118548115Y-97944500D01*
X118359022Y-97944501D01*
X118351234Y-97945114D01*
X118329526Y-97946821D01*
X118329523Y-97946822D01*
X118323111Y-97947326D01*
X118316937Y-97949120D01*
X118316930Y-97949121D01*
X118183153Y-97987988D01*
X118112847Y-97987988D01*
X117979075Y-97949123D01*
X117979073Y-97949123D01*
X117972889Y-97947326D01*
X117960238Y-97946330D01*
X117939438Y-97944693D01*
X117939425Y-97944692D01*
X117936979Y-97944500D01*
X117748115Y-97944500D01*
X117559022Y-97944501D01*
X117551234Y-97945114D01*
X117529526Y-97946821D01*
X117529523Y-97946822D01*
X117523111Y-97947326D01*
X117516937Y-97949120D01*
X117516930Y-97949121D01*
X117383153Y-97987988D01*
X117312847Y-97987988D01*
X117179075Y-97949123D01*
X117179073Y-97949123D01*
X117172889Y-97947326D01*
X117160238Y-97946330D01*
X117139438Y-97944693D01*
X117139425Y-97944692D01*
X117136979Y-97944500D01*
X116948115Y-97944500D01*
X116759022Y-97944501D01*
X116751234Y-97945114D01*
X116729526Y-97946821D01*
X116729523Y-97946822D01*
X116723111Y-97947326D01*
X116716937Y-97949120D01*
X116716930Y-97949121D01*
X116583153Y-97987988D01*
X116512847Y-97987988D01*
X116379075Y-97949123D01*
X116379073Y-97949123D01*
X116372889Y-97947326D01*
X116360238Y-97946330D01*
X116339438Y-97944693D01*
X116339425Y-97944692D01*
X116336979Y-97944500D01*
X116330625Y-97944500D01*
X116132500Y-97944501D01*
X116064380Y-97924499D01*
X116017887Y-97870844D01*
X116006500Y-97818501D01*
X116006500Y-95712500D01*
X116026502Y-95644379D01*
X116080158Y-95597886D01*
X116132500Y-95586500D01*
X116748400Y-95586500D01*
X116751646Y-95586163D01*
X116751650Y-95586163D01*
X116847308Y-95576238D01*
X116847312Y-95576237D01*
X116854166Y-95575526D01*
X116860702Y-95573345D01*
X116860704Y-95573345D01*
X117014998Y-95521868D01*
X117021946Y-95519550D01*
X117172348Y-95426478D01*
X117180087Y-95418726D01*
X117292134Y-95306483D01*
X117297305Y-95301303D01*
X117332430Y-95244320D01*
X117386275Y-95156968D01*
X117386276Y-95156966D01*
X117390115Y-95150738D01*
X117442393Y-94993124D01*
X117443632Y-94989389D01*
X117443632Y-94989387D01*
X117445797Y-94982861D01*
X117456500Y-94878400D01*
X117456500Y-93877600D01*
X117456163Y-93874350D01*
X117446238Y-93778692D01*
X117446237Y-93778688D01*
X117445526Y-93771834D01*
X117389550Y-93604054D01*
X117296478Y-93453652D01*
X117171303Y-93328695D01*
X117126002Y-93300771D01*
X117026968Y-93239725D01*
X117026966Y-93239724D01*
X117020738Y-93235885D01*
X116940995Y-93209436D01*
X116859389Y-93182368D01*
X116859387Y-93182368D01*
X116852861Y-93180203D01*
X116846025Y-93179503D01*
X116846022Y-93179502D01*
X116802969Y-93175091D01*
X116748400Y-93169500D01*
X115947600Y-93169500D01*
X115944354Y-93169837D01*
X115944350Y-93169837D01*
X115848692Y-93179762D01*
X115848688Y-93179763D01*
X115841834Y-93180474D01*
X115835298Y-93182655D01*
X115835296Y-93182655D01*
X115703194Y-93226728D01*
X115674054Y-93236450D01*
X115523652Y-93329522D01*
X115518479Y-93334704D01*
X115436862Y-93416463D01*
X115374579Y-93450542D01*
X115303759Y-93445539D01*
X115258671Y-93416618D01*
X115176171Y-93334261D01*
X115164760Y-93325249D01*
X115026757Y-93240184D01*
X115013576Y-93234037D01*
X114859290Y-93182862D01*
X114845914Y-93179995D01*
X114751562Y-93170328D01*
X114745145Y-93170000D01*
X114620115Y-93170000D01*
X114604876Y-93174475D01*
X114603671Y-93175865D01*
X114602000Y-93183548D01*
X114602000Y-95567884D01*
X114606475Y-95583123D01*
X114625889Y-95599946D01*
X114652595Y-95614528D01*
X114686620Y-95676840D01*
X114689500Y-95703624D01*
X114689500Y-98201133D01*
X114671954Y-98265272D01*
X114636982Y-98324407D01*
X114634771Y-98332017D01*
X114602204Y-98444113D01*
X114592326Y-98478111D01*
X114591821Y-98484530D01*
X114589693Y-98511562D01*
X114589692Y-98511575D01*
X114589500Y-98514021D01*
X114589501Y-99157876D01*
X114589501Y-99327000D01*
X114569499Y-99395121D01*
X114515843Y-99441614D01*
X114463501Y-99453000D01*
X113808116Y-99453000D01*
X113792877Y-99457475D01*
X113791672Y-99458865D01*
X113790001Y-99466548D01*
X113790001Y-99693500D01*
X113769999Y-99761621D01*
X113716343Y-99808114D01*
X113664001Y-99819500D01*
X113539371Y-99819500D01*
X113471250Y-99799498D01*
X113450276Y-99782595D01*
X112871405Y-99203724D01*
X112837379Y-99141412D01*
X112834500Y-99114629D01*
X112834500Y-98934885D01*
X113790000Y-98934885D01*
X113794475Y-98950124D01*
X113795865Y-98951329D01*
X113803548Y-98953000D01*
X114279885Y-98953000D01*
X114295124Y-98948525D01*
X114296329Y-98947135D01*
X114298000Y-98939452D01*
X114298000Y-97973257D01*
X114294027Y-97959726D01*
X114286129Y-97958591D01*
X114177220Y-97990232D01*
X114162783Y-97996480D01*
X114038773Y-98069819D01*
X114026335Y-98079468D01*
X113924468Y-98181335D01*
X113914819Y-98193773D01*
X113841480Y-98317783D01*
X113835232Y-98332220D01*
X113794618Y-98472013D01*
X113792320Y-98484600D01*
X113790193Y-98511616D01*
X113790000Y-98516543D01*
X113790000Y-98934885D01*
X112834500Y-98934885D01*
X112834500Y-98297781D01*
X112854502Y-98229660D01*
X112894197Y-98190637D01*
X113019120Y-98113332D01*
X113025348Y-98109478D01*
X113150305Y-97984303D01*
X113157114Y-97973257D01*
X113239275Y-97839968D01*
X113239276Y-97839966D01*
X113243115Y-97833738D01*
X113272216Y-97746000D01*
X113296632Y-97672389D01*
X113296632Y-97672387D01*
X113298797Y-97665861D01*
X113309500Y-97561400D01*
X113309500Y-96785600D01*
X113307849Y-96769690D01*
X113299238Y-96686692D01*
X113299237Y-96686688D01*
X113298526Y-96679834D01*
X113293254Y-96664030D01*
X113252272Y-96541194D01*
X113242550Y-96512054D01*
X113149478Y-96361652D01*
X113024303Y-96236695D01*
X113019765Y-96233898D01*
X112979176Y-96176647D01*
X112975946Y-96105724D01*
X113011572Y-96044313D01*
X113020068Y-96036938D01*
X113030207Y-96028902D01*
X113144739Y-95914171D01*
X113153751Y-95902760D01*
X113238816Y-95764757D01*
X113244963Y-95751576D01*
X113296138Y-95597290D01*
X113299005Y-95583914D01*
X113307584Y-95500183D01*
X113334425Y-95434455D01*
X113392540Y-95393673D01*
X113463478Y-95390785D01*
X113512879Y-95418726D01*
X113514083Y-95417201D01*
X113531240Y-95430751D01*
X113669243Y-95515816D01*
X113682424Y-95521963D01*
X113836710Y-95573138D01*
X113850086Y-95576005D01*
X113944438Y-95585672D01*
X113950854Y-95586000D01*
X114075885Y-95586000D01*
X114091124Y-95581525D01*
X114092329Y-95580135D01*
X114094000Y-95572452D01*
X114094000Y-93188116D01*
X114089525Y-93172877D01*
X114088135Y-93171672D01*
X114080452Y-93170001D01*
X113950905Y-93170001D01*
X113944386Y-93170338D01*
X113848794Y-93180257D01*
X113835400Y-93183149D01*
X113681216Y-93234588D01*
X113668038Y-93240761D01*
X113530193Y-93326063D01*
X113518792Y-93335099D01*
X113404261Y-93449829D01*
X113395249Y-93461240D01*
X113310184Y-93599243D01*
X113304037Y-93612424D01*
X113252862Y-93766710D01*
X113249995Y-93780086D01*
X113240328Y-93874438D01*
X113240000Y-93880855D01*
X113240000Y-94073907D01*
X113219998Y-94142028D01*
X113166342Y-94188521D01*
X113096068Y-94198625D01*
X113035557Y-94170989D01*
X113034917Y-94171799D01*
X113031608Y-94169186D01*
X113031488Y-94169131D01*
X113031203Y-94168866D01*
X113017760Y-94158249D01*
X112879757Y-94073184D01*
X112866576Y-94067037D01*
X112712290Y-94015862D01*
X112698914Y-94012995D01*
X112604562Y-94003328D01*
X112598145Y-94003000D01*
X112348115Y-94003000D01*
X112332876Y-94007475D01*
X112331671Y-94008865D01*
X112330000Y-94016548D01*
X112330000Y-95226500D01*
X112309998Y-95294621D01*
X112256342Y-95341114D01*
X112204000Y-95352500D01*
X110861116Y-95352500D01*
X110845877Y-95356975D01*
X110844672Y-95358365D01*
X110843001Y-95366048D01*
X110843001Y-95483095D01*
X110843338Y-95489614D01*
X110853257Y-95585206D01*
X110856149Y-95598600D01*
X110907588Y-95752784D01*
X110913761Y-95765962D01*
X110999063Y-95903807D01*
X111008099Y-95915208D01*
X111122828Y-96029738D01*
X111131762Y-96036794D01*
X111172823Y-96094712D01*
X111176053Y-96165635D01*
X111140426Y-96227046D01*
X111132593Y-96233846D01*
X111126652Y-96237522D01*
X111001695Y-96362697D01*
X110998739Y-96367493D01*
X110941386Y-96408155D01*
X110900422Y-96415000D01*
X107202000Y-96415000D01*
X107133879Y-96394998D01*
X107087386Y-96341342D01*
X107076000Y-96289000D01*
X107076000Y-94826385D01*
X110843000Y-94826385D01*
X110847475Y-94841624D01*
X110848865Y-94842829D01*
X110856548Y-94844500D01*
X111803885Y-94844500D01*
X111819124Y-94840025D01*
X111820329Y-94838635D01*
X111822000Y-94830952D01*
X111822000Y-94021116D01*
X111817525Y-94005877D01*
X111816135Y-94004672D01*
X111808452Y-94003001D01*
X111553905Y-94003001D01*
X111547386Y-94003338D01*
X111451794Y-94013257D01*
X111438400Y-94016149D01*
X111284216Y-94067588D01*
X111271038Y-94073761D01*
X111133193Y-94159063D01*
X111121792Y-94168099D01*
X111007261Y-94282829D01*
X110998249Y-94294240D01*
X110913184Y-94432243D01*
X110907037Y-94445424D01*
X110855862Y-94599710D01*
X110852995Y-94613086D01*
X110843328Y-94707438D01*
X110843000Y-94713855D01*
X110843000Y-94826385D01*
X107076000Y-94826385D01*
X107076000Y-88350570D01*
X107077433Y-88331620D01*
X107079599Y-88317385D01*
X107079599Y-88317381D01*
X107080699Y-88310151D01*
X107076415Y-88257482D01*
X107076000Y-88247267D01*
X107076000Y-88239207D01*
X107072711Y-88210993D01*
X107072278Y-88206618D01*
X107066954Y-88141161D01*
X107066953Y-88141158D01*
X107066360Y-88133863D01*
X107064104Y-88126899D01*
X107062913Y-88120940D01*
X107061529Y-88115085D01*
X107060682Y-88107819D01*
X107035765Y-88039173D01*
X107034348Y-88035045D01*
X107014107Y-87972564D01*
X107014106Y-87972562D01*
X107011851Y-87965601D01*
X107008055Y-87959346D01*
X107005549Y-87953872D01*
X107002830Y-87948442D01*
X107000333Y-87941563D01*
X106960314Y-87880524D01*
X106957967Y-87876805D01*
X106920095Y-87814393D01*
X106912697Y-87806016D01*
X106912724Y-87805992D01*
X106910071Y-87803000D01*
X106907368Y-87799767D01*
X106903356Y-87793648D01*
X106847117Y-87740372D01*
X106844675Y-87737994D01*
X102742770Y-83636089D01*
X102730384Y-83621677D01*
X102721851Y-83610082D01*
X102721846Y-83610077D01*
X102717508Y-83604182D01*
X102711930Y-83599443D01*
X102711927Y-83599440D01*
X102677232Y-83569965D01*
X102669716Y-83563035D01*
X102664021Y-83557340D01*
X102657880Y-83552482D01*
X102641749Y-83539719D01*
X102638345Y-83536928D01*
X102588297Y-83494409D01*
X102588295Y-83494408D01*
X102582715Y-83489667D01*
X102576199Y-83486339D01*
X102571150Y-83482972D01*
X102566021Y-83479805D01*
X102560284Y-83475266D01*
X102494125Y-83444345D01*
X102490225Y-83442439D01*
X102425192Y-83409231D01*
X102418084Y-83407492D01*
X102412441Y-83405393D01*
X102406678Y-83403476D01*
X102400050Y-83400378D01*
X102328583Y-83385513D01*
X102324299Y-83384543D01*
X102298487Y-83378227D01*
X102253390Y-83367192D01*
X102247788Y-83366844D01*
X102247785Y-83366844D01*
X102242236Y-83366500D01*
X102242238Y-83366464D01*
X102238245Y-83366225D01*
X102234053Y-83365851D01*
X102226885Y-83364360D01*
X102160675Y-83366151D01*
X102149479Y-83366454D01*
X102146072Y-83366500D01*
X100884500Y-83366500D01*
X100816379Y-83346498D01*
X100769886Y-83292842D01*
X100758500Y-83240500D01*
X100758500Y-83036781D01*
X100778502Y-82968660D01*
X100818197Y-82929637D01*
X100849743Y-82910116D01*
X100949348Y-82848478D01*
X100954521Y-82843296D01*
X101000351Y-82797386D01*
X137567759Y-82797386D01*
X137575216Y-82807753D01*
X137814935Y-83001874D01*
X137820272Y-83005751D01*
X138140685Y-83213830D01*
X138146394Y-83217127D01*
X138486811Y-83390578D01*
X138492836Y-83393260D01*
X138849502Y-83530171D01*
X138855784Y-83532212D01*
X139224816Y-83631094D01*
X139231266Y-83632465D01*
X139608629Y-83692234D01*
X139615167Y-83692920D01*
X139996699Y-83712916D01*
X140003301Y-83712916D01*
X140384833Y-83692920D01*
X140391371Y-83692234D01*
X140768734Y-83632465D01*
X140775184Y-83631094D01*
X141144216Y-83532212D01*
X141150498Y-83530171D01*
X141507164Y-83393260D01*
X141513189Y-83390578D01*
X141853606Y-83217127D01*
X141859315Y-83213830D01*
X142179728Y-83005751D01*
X142185065Y-83001874D01*
X142423835Y-82808522D01*
X142432300Y-82796267D01*
X142425966Y-82785176D01*
X140012812Y-80372022D01*
X139998868Y-80364408D01*
X139997035Y-80364539D01*
X139990420Y-80368790D01*
X137574900Y-82784310D01*
X137567759Y-82797386D01*
X101000351Y-82797386D01*
X101002252Y-82795482D01*
X101064535Y-82761403D01*
X101091425Y-82758500D01*
X102557930Y-82758500D01*
X102576880Y-82759933D01*
X102591115Y-82762099D01*
X102591119Y-82762099D01*
X102598349Y-82763199D01*
X102605641Y-82762606D01*
X102605644Y-82762606D01*
X102651018Y-82758915D01*
X102661233Y-82758500D01*
X102669293Y-82758500D01*
X102682583Y-82756951D01*
X102697507Y-82755211D01*
X102701882Y-82754778D01*
X102767339Y-82749454D01*
X102767342Y-82749453D01*
X102774637Y-82748860D01*
X102781601Y-82746604D01*
X102787560Y-82745413D01*
X102793415Y-82744029D01*
X102800681Y-82743182D01*
X102869314Y-82718269D01*
X102873437Y-82716854D01*
X102880295Y-82714632D01*
X102919125Y-82708500D01*
X103304002Y-82708500D01*
X103306450Y-82708307D01*
X103306458Y-82708307D01*
X103334921Y-82706067D01*
X103334926Y-82706066D01*
X103341331Y-82705562D01*
X103486101Y-82663503D01*
X103493488Y-82661357D01*
X103493490Y-82661356D01*
X103501101Y-82659145D01*
X103545959Y-82632616D01*
X103637480Y-82578491D01*
X103637483Y-82578489D01*
X103644307Y-82574453D01*
X103741718Y-82477042D01*
X103804030Y-82443016D01*
X103874845Y-82448081D01*
X103900924Y-82462614D01*
X103901045Y-82462410D01*
X103907868Y-82466445D01*
X103914132Y-82471304D01*
X103921407Y-82474452D01*
X103956536Y-82489654D01*
X103967181Y-82494869D01*
X104007663Y-82517124D01*
X104010310Y-82517804D01*
X104050337Y-82544097D01*
X104080693Y-82574453D01*
X104087517Y-82578489D01*
X104087520Y-82578491D01*
X104179041Y-82632616D01*
X104223899Y-82659145D01*
X104231510Y-82661356D01*
X104231512Y-82661357D01*
X104238899Y-82663503D01*
X104383669Y-82705562D01*
X104390074Y-82706066D01*
X104390079Y-82706067D01*
X104418542Y-82708307D01*
X104418550Y-82708307D01*
X104420998Y-82708500D01*
X105579002Y-82708500D01*
X105581450Y-82708307D01*
X105581458Y-82708307D01*
X105609921Y-82706067D01*
X105609926Y-82706066D01*
X105616331Y-82705562D01*
X105622507Y-82703768D01*
X105622511Y-82703767D01*
X105761102Y-82663503D01*
X105796254Y-82658500D01*
X107530235Y-82658500D01*
X107569902Y-82664907D01*
X107628611Y-82684380D01*
X107628613Y-82684380D01*
X107635139Y-82686545D01*
X107641975Y-82687245D01*
X107641978Y-82687246D01*
X107685031Y-82691657D01*
X107739600Y-82697248D01*
X108790400Y-82697248D01*
X108793646Y-82696911D01*
X108793650Y-82696911D01*
X108889308Y-82686986D01*
X108889312Y-82686985D01*
X108896166Y-82686274D01*
X108902702Y-82684093D01*
X108902704Y-82684093D01*
X109056998Y-82632616D01*
X109063946Y-82630298D01*
X109214348Y-82537226D01*
X109339305Y-82412051D01*
X109347160Y-82399308D01*
X109428275Y-82267716D01*
X109428276Y-82267714D01*
X109432115Y-82261486D01*
X109487797Y-82093609D01*
X109498500Y-81989148D01*
X109498500Y-81580119D01*
X109518502Y-81511998D01*
X109535405Y-81491024D01*
X110231024Y-80795405D01*
X110293336Y-80761379D01*
X110320119Y-80758500D01*
X112523550Y-80758500D01*
X112591671Y-80778502D01*
X112638164Y-80832158D01*
X112648877Y-80871496D01*
X112652474Y-80906166D01*
X112654655Y-80912702D01*
X112654655Y-80912704D01*
X112684605Y-81002474D01*
X112708450Y-81073946D01*
X112801522Y-81224348D01*
X112926697Y-81349305D01*
X112932927Y-81353145D01*
X112932928Y-81353146D01*
X113070090Y-81437694D01*
X113077262Y-81442115D01*
X113120701Y-81456523D01*
X113238611Y-81495632D01*
X113238613Y-81495632D01*
X113245139Y-81497797D01*
X113251975Y-81498497D01*
X113251978Y-81498498D01*
X113295031Y-81502909D01*
X113349600Y-81508500D01*
X114650400Y-81508500D01*
X114653646Y-81508163D01*
X114653650Y-81508163D01*
X114749308Y-81498238D01*
X114749312Y-81498237D01*
X114756166Y-81497526D01*
X114762702Y-81495345D01*
X114762704Y-81495345D01*
X114894806Y-81451272D01*
X114923946Y-81441550D01*
X115074348Y-81348478D01*
X115199305Y-81223303D01*
X115289353Y-81077220D01*
X115342124Y-81029727D01*
X115412196Y-81018303D01*
X115477320Y-81046577D01*
X115487782Y-81056364D01*
X115593234Y-81166906D01*
X115601186Y-81173941D01*
X115777525Y-81305141D01*
X115786562Y-81310745D01*
X115982484Y-81410357D01*
X115992335Y-81414357D01*
X116202240Y-81479534D01*
X116212624Y-81481817D01*
X116228043Y-81483861D01*
X116242207Y-81481665D01*
X116246000Y-81468478D01*
X116246000Y-81466192D01*
X116754000Y-81466192D01*
X116757973Y-81479723D01*
X116768580Y-81481248D01*
X116886421Y-81456523D01*
X116896617Y-81453463D01*
X117101029Y-81372737D01*
X117110561Y-81368006D01*
X117298462Y-81253984D01*
X117307052Y-81247720D01*
X117473052Y-81103673D01*
X117480472Y-81096042D01*
X117619826Y-80926089D01*
X117625850Y-80917322D01*
X117734576Y-80726318D01*
X117739041Y-80716654D01*
X117814031Y-80510059D01*
X117816802Y-80499792D01*
X117856123Y-80282345D01*
X117857056Y-80274116D01*
X117857268Y-80269624D01*
X117853525Y-80256876D01*
X117852135Y-80255671D01*
X117844452Y-80254000D01*
X116772115Y-80254000D01*
X116756876Y-80258475D01*
X116755671Y-80259865D01*
X116754000Y-80267548D01*
X116754000Y-81466192D01*
X116246000Y-81466192D01*
X116246000Y-80003301D01*
X136287084Y-80003301D01*
X136307080Y-80384833D01*
X136307766Y-80391371D01*
X136367535Y-80768734D01*
X136368906Y-80775184D01*
X136467788Y-81144216D01*
X136469829Y-81150498D01*
X136606740Y-81507164D01*
X136609422Y-81513189D01*
X136782872Y-81853603D01*
X136786169Y-81859313D01*
X136994253Y-82179735D01*
X136998123Y-82185061D01*
X137191478Y-82423835D01*
X137203733Y-82432300D01*
X137214824Y-82425966D01*
X139627978Y-80012812D01*
X139634356Y-80001132D01*
X140364408Y-80001132D01*
X140364539Y-80002965D01*
X140368790Y-80009580D01*
X142784310Y-82425100D01*
X142797386Y-82432241D01*
X142807753Y-82424784D01*
X143001877Y-82185061D01*
X143005747Y-82179735D01*
X143213831Y-81859313D01*
X143217128Y-81853603D01*
X143390578Y-81513189D01*
X143393260Y-81507164D01*
X143530171Y-81150498D01*
X143532212Y-81144216D01*
X143631094Y-80775184D01*
X143632465Y-80768734D01*
X143692234Y-80391371D01*
X143692920Y-80384833D01*
X143712916Y-80003301D01*
X143712916Y-79996699D01*
X143692920Y-79615167D01*
X143692234Y-79608629D01*
X143632465Y-79231266D01*
X143631094Y-79224816D01*
X143532212Y-78855784D01*
X143530171Y-78849502D01*
X143393260Y-78492836D01*
X143390578Y-78486811D01*
X143217128Y-78146397D01*
X143213831Y-78140687D01*
X143005747Y-77820265D01*
X143001877Y-77814939D01*
X142808522Y-77576165D01*
X142796267Y-77567700D01*
X142785176Y-77574034D01*
X140372022Y-79987188D01*
X140364408Y-80001132D01*
X139634356Y-80001132D01*
X139635592Y-79998868D01*
X139635461Y-79997035D01*
X139631210Y-79990420D01*
X137215690Y-77574900D01*
X137202614Y-77567759D01*
X137192247Y-77575216D01*
X136998123Y-77814939D01*
X136994253Y-77820265D01*
X136786169Y-78140687D01*
X136782872Y-78146397D01*
X136609422Y-78486811D01*
X136606740Y-78492836D01*
X136469829Y-78849502D01*
X136467788Y-78855784D01*
X136368906Y-79224816D01*
X136367535Y-79231266D01*
X136307766Y-79608629D01*
X136307080Y-79615167D01*
X136287084Y-79996699D01*
X136287084Y-80003301D01*
X116246000Y-80003301D01*
X116246000Y-79727885D01*
X116754000Y-79727885D01*
X116758475Y-79743124D01*
X116759865Y-79744329D01*
X116767548Y-79746000D01*
X117835970Y-79746000D01*
X117850648Y-79741690D01*
X117852711Y-79729807D01*
X117843876Y-79625675D01*
X117842086Y-79615203D01*
X117786870Y-79402465D01*
X117783335Y-79392425D01*
X117693063Y-79192030D01*
X117687894Y-79182744D01*
X117565150Y-79000425D01*
X117558481Y-78992130D01*
X117406772Y-78833100D01*
X117398814Y-78826059D01*
X117222475Y-78694859D01*
X117213438Y-78689255D01*
X117017516Y-78589643D01*
X117007665Y-78585643D01*
X116797760Y-78520466D01*
X116787376Y-78518183D01*
X116771957Y-78516139D01*
X116757793Y-78518335D01*
X116754000Y-78531522D01*
X116754000Y-79727885D01*
X116246000Y-79727885D01*
X116246000Y-78533808D01*
X116242027Y-78520277D01*
X116231420Y-78518752D01*
X116113579Y-78543477D01*
X116103383Y-78546537D01*
X115898971Y-78627263D01*
X115889439Y-78631994D01*
X115701538Y-78746016D01*
X115692948Y-78752280D01*
X115526948Y-78896327D01*
X115519530Y-78903956D01*
X115493609Y-78935569D01*
X115434949Y-78975564D01*
X115363979Y-78977496D01*
X115303230Y-78940752D01*
X115289030Y-78921982D01*
X115202332Y-78781880D01*
X115198478Y-78775652D01*
X115073303Y-78650695D01*
X115042965Y-78631994D01*
X114928968Y-78561725D01*
X114928966Y-78561724D01*
X114922738Y-78557885D01*
X114803498Y-78518335D01*
X114761389Y-78504368D01*
X114761387Y-78504368D01*
X114754861Y-78502203D01*
X114748025Y-78501503D01*
X114748022Y-78501502D01*
X114704969Y-78497091D01*
X114650400Y-78491500D01*
X113349600Y-78491500D01*
X113346354Y-78491837D01*
X113346350Y-78491837D01*
X113250692Y-78501762D01*
X113250688Y-78501763D01*
X113243834Y-78502474D01*
X113237298Y-78504655D01*
X113237296Y-78504655D01*
X113105194Y-78548728D01*
X113076054Y-78558450D01*
X112925652Y-78651522D01*
X112800695Y-78776697D01*
X112796855Y-78782927D01*
X112796854Y-78782928D01*
X112726954Y-78896327D01*
X112707885Y-78927262D01*
X112705581Y-78934209D01*
X112663667Y-79060577D01*
X112652203Y-79095139D01*
X112651502Y-79101977D01*
X112651502Y-79101979D01*
X112648801Y-79128342D01*
X112621960Y-79194070D01*
X112563845Y-79234852D01*
X112523457Y-79241500D01*
X110020817Y-79241500D01*
X110001869Y-79240067D01*
X109992507Y-79238643D01*
X109987631Y-79237901D01*
X109987629Y-79237901D01*
X109980399Y-79236801D01*
X109973107Y-79237394D01*
X109973104Y-79237394D01*
X109927730Y-79241085D01*
X109917515Y-79241500D01*
X109909455Y-79241500D01*
X109896254Y-79243039D01*
X109881241Y-79244789D01*
X109876866Y-79245222D01*
X109811409Y-79250546D01*
X109811406Y-79250547D01*
X109804111Y-79251140D01*
X109797147Y-79253396D01*
X109791188Y-79254587D01*
X109785333Y-79255971D01*
X109778067Y-79256818D01*
X109709421Y-79281735D01*
X109705293Y-79283152D01*
X109642812Y-79303393D01*
X109642810Y-79303394D01*
X109635849Y-79305649D01*
X109629591Y-79309446D01*
X109624121Y-79311951D01*
X109618694Y-79314669D01*
X109614644Y-79316139D01*
X109613878Y-79316277D01*
X109612676Y-79316853D01*
X109611811Y-79317167D01*
X109611809Y-79317168D01*
X109611804Y-79317170D01*
X109611627Y-79316684D01*
X109546521Y-79328442D01*
X109480924Y-79301285D01*
X109440444Y-79243039D01*
X109433414Y-79221969D01*
X109427239Y-79208786D01*
X109341937Y-79070941D01*
X109332901Y-79059540D01*
X109218171Y-78945009D01*
X109206760Y-78935997D01*
X109068757Y-78850932D01*
X109055576Y-78844785D01*
X108901290Y-78793610D01*
X108887914Y-78790743D01*
X108793562Y-78781076D01*
X108787145Y-78780748D01*
X108537115Y-78780748D01*
X108521876Y-78785223D01*
X108520671Y-78786613D01*
X108519000Y-78794296D01*
X108519000Y-79916748D01*
X108498998Y-79984869D01*
X108445342Y-80031362D01*
X108393000Y-80042748D01*
X107050116Y-80042748D01*
X107034877Y-80047223D01*
X107033672Y-80048613D01*
X107032001Y-80056296D01*
X107032001Y-80085843D01*
X107032338Y-80092362D01*
X107042257Y-80187954D01*
X107045149Y-80201348D01*
X107096588Y-80355532D01*
X107102761Y-80368710D01*
X107188063Y-80506555D01*
X107197099Y-80517956D01*
X107311828Y-80632486D01*
X107320762Y-80639542D01*
X107361823Y-80697460D01*
X107365053Y-80768383D01*
X107329426Y-80829794D01*
X107321593Y-80836594D01*
X107315652Y-80840270D01*
X107190695Y-80965445D01*
X107119974Y-81080176D01*
X107119086Y-81081616D01*
X107066314Y-81129109D01*
X107011826Y-81141500D01*
X105796254Y-81141500D01*
X105761102Y-81136497D01*
X105622511Y-81096233D01*
X105622507Y-81096232D01*
X105616331Y-81094438D01*
X105609926Y-81093934D01*
X105609921Y-81093933D01*
X105581458Y-81091693D01*
X105581450Y-81091693D01*
X105579002Y-81091500D01*
X104872000Y-81091500D01*
X104803879Y-81071498D01*
X104757386Y-81017842D01*
X104746000Y-80965500D01*
X104746000Y-80934500D01*
X104766002Y-80866379D01*
X104819658Y-80819886D01*
X104872000Y-80808500D01*
X105579002Y-80808500D01*
X105581450Y-80808307D01*
X105581458Y-80808307D01*
X105609921Y-80806067D01*
X105609926Y-80806066D01*
X105616331Y-80805562D01*
X105720894Y-80775184D01*
X105768488Y-80761357D01*
X105768490Y-80761356D01*
X105776101Y-80759145D01*
X105853203Y-80713547D01*
X105917342Y-80696000D01*
X106149378Y-80696000D01*
X106162909Y-80692027D01*
X106164044Y-80684129D01*
X106123393Y-80544210D01*
X106115372Y-80525674D01*
X106106676Y-80455212D01*
X106115372Y-80425596D01*
X106117611Y-80420423D01*
X106121645Y-80413601D01*
X106124547Y-80403614D01*
X106159778Y-80282345D01*
X106168062Y-80253831D01*
X106171000Y-80216502D01*
X106171000Y-79783498D01*
X106168062Y-79746169D01*
X106130003Y-79615167D01*
X106123857Y-79594012D01*
X106123856Y-79594010D01*
X106121645Y-79586399D01*
X106098058Y-79546516D01*
X106080385Y-79516633D01*
X107032000Y-79516633D01*
X107036475Y-79531872D01*
X107037865Y-79533077D01*
X107045548Y-79534748D01*
X107992885Y-79534748D01*
X108008124Y-79530273D01*
X108009329Y-79528883D01*
X108011000Y-79521200D01*
X108011000Y-78798864D01*
X108006525Y-78783625D01*
X108005135Y-78782420D01*
X107997452Y-78780749D01*
X107742905Y-78780749D01*
X107736386Y-78781086D01*
X107640794Y-78791005D01*
X107627400Y-78793897D01*
X107473216Y-78845336D01*
X107460038Y-78851509D01*
X107322193Y-78936811D01*
X107310792Y-78945847D01*
X107196261Y-79060577D01*
X107187249Y-79071988D01*
X107102184Y-79209991D01*
X107096037Y-79223172D01*
X107044862Y-79377458D01*
X107041995Y-79390834D01*
X107032328Y-79485186D01*
X107032000Y-79491603D01*
X107032000Y-79516633D01*
X106080385Y-79516633D01*
X106040991Y-79450020D01*
X106040989Y-79450017D01*
X106036953Y-79443193D01*
X105919307Y-79325547D01*
X105912483Y-79321511D01*
X105912480Y-79321509D01*
X105793492Y-79251140D01*
X105776101Y-79240855D01*
X105768490Y-79238644D01*
X105768488Y-79238643D01*
X105669865Y-79209991D01*
X105616331Y-79194438D01*
X105609926Y-79193934D01*
X105609921Y-79193933D01*
X105581458Y-79191693D01*
X105581450Y-79191693D01*
X105579002Y-79191500D01*
X104420998Y-79191500D01*
X104418550Y-79191693D01*
X104418542Y-79191693D01*
X104390079Y-79193933D01*
X104390074Y-79193934D01*
X104383669Y-79194438D01*
X104330135Y-79209991D01*
X104231512Y-79238643D01*
X104231510Y-79238644D01*
X104223899Y-79240855D01*
X104206508Y-79251140D01*
X104087521Y-79321509D01*
X104080693Y-79325547D01*
X104079930Y-79326310D01*
X104041948Y-79345664D01*
X104036306Y-79347303D01*
X104025581Y-79350420D01*
X104006218Y-79354430D01*
X103999230Y-79355312D01*
X103992796Y-79356125D01*
X103992795Y-79356125D01*
X103984936Y-79357118D01*
X103977571Y-79360034D01*
X103977567Y-79360035D01*
X103941979Y-79374126D01*
X103930769Y-79377965D01*
X103886400Y-79390855D01*
X103867943Y-79401771D01*
X103850183Y-79410470D01*
X103846014Y-79412121D01*
X103840482Y-79414311D01*
X103769782Y-79420786D01*
X103705011Y-79386251D01*
X103644307Y-79325547D01*
X103637483Y-79321511D01*
X103637480Y-79321509D01*
X103518492Y-79251140D01*
X103501101Y-79240855D01*
X103493490Y-79238644D01*
X103493488Y-79238643D01*
X103394865Y-79209991D01*
X103341331Y-79194438D01*
X103334926Y-79193934D01*
X103334921Y-79193933D01*
X103306458Y-79191693D01*
X103306450Y-79191693D01*
X103304002Y-79191500D01*
X102145998Y-79191500D01*
X102143550Y-79191693D01*
X102143542Y-79191693D01*
X102115079Y-79193933D01*
X102115074Y-79193934D01*
X102108669Y-79194438D01*
X102055135Y-79209991D01*
X101956512Y-79238643D01*
X101956510Y-79238644D01*
X101948899Y-79240855D01*
X101931508Y-79251140D01*
X101812520Y-79321509D01*
X101812517Y-79321511D01*
X101805693Y-79325547D01*
X101688047Y-79443193D01*
X101684011Y-79450017D01*
X101684009Y-79450020D01*
X101626942Y-79546516D01*
X101603355Y-79586399D01*
X101601144Y-79594010D01*
X101601143Y-79594012D01*
X101594997Y-79615167D01*
X101556938Y-79746169D01*
X101554000Y-79783498D01*
X101554000Y-80216502D01*
X101556938Y-80253831D01*
X101565222Y-80282345D01*
X101600454Y-80403614D01*
X101603355Y-80413601D01*
X101607392Y-80420427D01*
X101684009Y-80549980D01*
X101684011Y-80549983D01*
X101688047Y-80556807D01*
X101805693Y-80674453D01*
X101812517Y-80678489D01*
X101812520Y-80678491D01*
X101920089Y-80742107D01*
X101948899Y-80759145D01*
X101956510Y-80761356D01*
X101956512Y-80761357D01*
X102004106Y-80775184D01*
X102108669Y-80805562D01*
X102115074Y-80806066D01*
X102115079Y-80806067D01*
X102143542Y-80808307D01*
X102143550Y-80808307D01*
X102145998Y-80808500D01*
X103101500Y-80808500D01*
X103169621Y-80828502D01*
X103216114Y-80882158D01*
X103227500Y-80934500D01*
X103227500Y-80965500D01*
X103207498Y-81033621D01*
X103153842Y-81080114D01*
X103101500Y-81091500D01*
X102145998Y-81091500D01*
X102143550Y-81091693D01*
X102143542Y-81091693D01*
X102115079Y-81093933D01*
X102115074Y-81093934D01*
X102108669Y-81094438D01*
X102034417Y-81116010D01*
X101956512Y-81138643D01*
X101956510Y-81138644D01*
X101948899Y-81140855D01*
X101922100Y-81156704D01*
X101808388Y-81223953D01*
X101744249Y-81241500D01*
X101091393Y-81241500D01*
X101023272Y-81221498D01*
X101002375Y-81204673D01*
X100953485Y-81155868D01*
X100948303Y-81150695D01*
X100943765Y-81147898D01*
X100903176Y-81090647D01*
X100899946Y-81019724D01*
X100935572Y-80958313D01*
X100944068Y-80950938D01*
X100954207Y-80942902D01*
X101068739Y-80828171D01*
X101077751Y-80816760D01*
X101162816Y-80678757D01*
X101168963Y-80665576D01*
X101220138Y-80511290D01*
X101223005Y-80497914D01*
X101232672Y-80403562D01*
X101233000Y-80397146D01*
X101233000Y-80372115D01*
X101228525Y-80356876D01*
X101227135Y-80355671D01*
X101219452Y-80354000D01*
X98785116Y-80354000D01*
X98769877Y-80358475D01*
X98768672Y-80359865D01*
X98767001Y-80367548D01*
X98767001Y-80397095D01*
X98767338Y-80403614D01*
X98777257Y-80499206D01*
X98780149Y-80512600D01*
X98831588Y-80666784D01*
X98837761Y-80679962D01*
X98923063Y-80817807D01*
X98932099Y-80829208D01*
X99046828Y-80943738D01*
X99055762Y-80950794D01*
X99096823Y-81008712D01*
X99100053Y-81079635D01*
X99064426Y-81141046D01*
X99056593Y-81147846D01*
X99050652Y-81151522D01*
X98925695Y-81276697D01*
X98921855Y-81282927D01*
X98921854Y-81282928D01*
X98880939Y-81349305D01*
X98832885Y-81427262D01*
X98814790Y-81481817D01*
X98806049Y-81508172D01*
X98777203Y-81595139D01*
X98766500Y-81699600D01*
X98766500Y-82300400D01*
X98766837Y-82303646D01*
X98766837Y-82303650D01*
X98776308Y-82394927D01*
X98777474Y-82406166D01*
X98779655Y-82412702D01*
X98779655Y-82412704D01*
X98799206Y-82471304D01*
X98833450Y-82573946D01*
X98926522Y-82724348D01*
X98931704Y-82729521D01*
X98945389Y-82743182D01*
X99051697Y-82849305D01*
X99057927Y-82853145D01*
X99057928Y-82853146D01*
X99181616Y-82929389D01*
X99229110Y-82982162D01*
X99241500Y-83036649D01*
X99241500Y-83251323D01*
X99221498Y-83319444D01*
X99204679Y-83340334D01*
X99173071Y-83371997D01*
X99081791Y-83520080D01*
X99027026Y-83685191D01*
X99016500Y-83787928D01*
X99016500Y-84462072D01*
X99016837Y-84465318D01*
X99016837Y-84465322D01*
X99021743Y-84512600D01*
X99027293Y-84566093D01*
X99082346Y-84731107D01*
X99086202Y-84737338D01*
X99135998Y-84817807D01*
X99173884Y-84879031D01*
X99205787Y-84910879D01*
X99239866Y-84973159D01*
X99234863Y-85043979D01*
X99205943Y-85089067D01*
X99196354Y-85098673D01*
X99173071Y-85121997D01*
X99169229Y-85128229D01*
X99169228Y-85128231D01*
X99151730Y-85156617D01*
X99098957Y-85204110D01*
X99044471Y-85216500D01*
X97140683Y-85216500D01*
X97072562Y-85196498D01*
X97048984Y-85175145D01*
X97048478Y-85175652D01*
X96961537Y-85088862D01*
X96927458Y-85026579D01*
X96932461Y-84955759D01*
X96961382Y-84910671D01*
X97043739Y-84828171D01*
X97052751Y-84816760D01*
X97137816Y-84678757D01*
X97143963Y-84665576D01*
X97195138Y-84511290D01*
X97198005Y-84497914D01*
X97207672Y-84403562D01*
X97208000Y-84397146D01*
X97208000Y-84272115D01*
X97203525Y-84256876D01*
X97202135Y-84255671D01*
X97194452Y-84254000D01*
X94810116Y-84254000D01*
X94794877Y-84258475D01*
X94793672Y-84259865D01*
X94792001Y-84267548D01*
X94792001Y-84397095D01*
X94792338Y-84403614D01*
X94802257Y-84499206D01*
X94805149Y-84512600D01*
X94856588Y-84666784D01*
X94862761Y-84679962D01*
X94948063Y-84817807D01*
X94957099Y-84829208D01*
X95038462Y-84910430D01*
X95072541Y-84972713D01*
X95067538Y-85043533D01*
X95038617Y-85088620D01*
X94955870Y-85171512D01*
X94955866Y-85171517D01*
X94950695Y-85176697D01*
X94857885Y-85327262D01*
X94802203Y-85495139D01*
X94791500Y-85599600D01*
X94791500Y-86400400D01*
X84508500Y-86400400D01*
X84508500Y-83727885D01*
X94792000Y-83727885D01*
X94796475Y-83743124D01*
X94797865Y-83744329D01*
X94805548Y-83746000D01*
X95727885Y-83746000D01*
X95743124Y-83741525D01*
X95744329Y-83740135D01*
X95746000Y-83732452D01*
X95746000Y-83727885D01*
X96254000Y-83727885D01*
X96258475Y-83743124D01*
X96259865Y-83744329D01*
X96267548Y-83746000D01*
X97189884Y-83746000D01*
X97205123Y-83741525D01*
X97206328Y-83740135D01*
X97207999Y-83732452D01*
X97207999Y-83602905D01*
X97207662Y-83596386D01*
X97197743Y-83500794D01*
X97194851Y-83487400D01*
X97143412Y-83333216D01*
X97137239Y-83320038D01*
X97051937Y-83182193D01*
X97042901Y-83170792D01*
X96928171Y-83056261D01*
X96916760Y-83047249D01*
X96778757Y-82962184D01*
X96765576Y-82956037D01*
X96611290Y-82904862D01*
X96597914Y-82901995D01*
X96503562Y-82892328D01*
X96497145Y-82892000D01*
X96272115Y-82892000D01*
X96256876Y-82896475D01*
X96255671Y-82897865D01*
X96254000Y-82905548D01*
X96254000Y-83727885D01*
X95746000Y-83727885D01*
X95746000Y-82910116D01*
X95741525Y-82894877D01*
X95740135Y-82893672D01*
X95732452Y-82892001D01*
X95502905Y-82892001D01*
X95496386Y-82892338D01*
X95400794Y-82902257D01*
X95387400Y-82905149D01*
X95233216Y-82956588D01*
X95220038Y-82962761D01*
X95082193Y-83048063D01*
X95070792Y-83057099D01*
X94956261Y-83171829D01*
X94947249Y-83183240D01*
X94862184Y-83321243D01*
X94856037Y-83334424D01*
X94804862Y-83488710D01*
X94801995Y-83502086D01*
X94792328Y-83596438D01*
X94792000Y-83602855D01*
X94792000Y-83727885D01*
X84508500Y-83727885D01*
X84508500Y-82797386D01*
X87567759Y-82797386D01*
X87575216Y-82807753D01*
X87814935Y-83001874D01*
X87820272Y-83005751D01*
X88140685Y-83213830D01*
X88146394Y-83217127D01*
X88486811Y-83390578D01*
X88492836Y-83393260D01*
X88849502Y-83530171D01*
X88855784Y-83532212D01*
X89224816Y-83631094D01*
X89231266Y-83632465D01*
X89608629Y-83692234D01*
X89615167Y-83692920D01*
X89996699Y-83712916D01*
X90003301Y-83712916D01*
X90384833Y-83692920D01*
X90391371Y-83692234D01*
X90768734Y-83632465D01*
X90775184Y-83631094D01*
X91144216Y-83532212D01*
X91150498Y-83530171D01*
X91507164Y-83393260D01*
X91513189Y-83390578D01*
X91853606Y-83217127D01*
X91859315Y-83213830D01*
X92179728Y-83005751D01*
X92185065Y-83001874D01*
X92423835Y-82808522D01*
X92432300Y-82796267D01*
X92425966Y-82785176D01*
X90012812Y-80372022D01*
X89998868Y-80364408D01*
X89997035Y-80364539D01*
X89990420Y-80368790D01*
X87574900Y-82784310D01*
X87567759Y-82797386D01*
X84508500Y-82797386D01*
X84508500Y-80053250D01*
X84510246Y-80032345D01*
X84512770Y-80017344D01*
X84512770Y-80017341D01*
X84513576Y-80012552D01*
X84513689Y-80003301D01*
X86287084Y-80003301D01*
X86307080Y-80384833D01*
X86307766Y-80391371D01*
X86367535Y-80768734D01*
X86368906Y-80775184D01*
X86467788Y-81144216D01*
X86469829Y-81150498D01*
X86606740Y-81507164D01*
X86609422Y-81513189D01*
X86782872Y-81853603D01*
X86786169Y-81859313D01*
X86994253Y-82179735D01*
X86998123Y-82185061D01*
X87191478Y-82423835D01*
X87203733Y-82432300D01*
X87214824Y-82425966D01*
X89627978Y-80012812D01*
X89634356Y-80001132D01*
X90364408Y-80001132D01*
X90364539Y-80002965D01*
X90368790Y-80009580D01*
X92784310Y-82425100D01*
X92797386Y-82432241D01*
X92807753Y-82424784D01*
X93001877Y-82185061D01*
X93005747Y-82179735D01*
X93213831Y-81859313D01*
X93217128Y-81853603D01*
X93390578Y-81513189D01*
X93393260Y-81507164D01*
X93530171Y-81150498D01*
X93532212Y-81144216D01*
X93631094Y-80775184D01*
X93632465Y-80768734D01*
X93692234Y-80391371D01*
X93692920Y-80384833D01*
X93712916Y-80003301D01*
X93712916Y-79996699D01*
X93704068Y-79827885D01*
X98767000Y-79827885D01*
X98771475Y-79843124D01*
X98772865Y-79844329D01*
X98780548Y-79846000D01*
X99727885Y-79846000D01*
X99743124Y-79841525D01*
X99744329Y-79840135D01*
X99746000Y-79832452D01*
X99746000Y-79827885D01*
X100254000Y-79827885D01*
X100258475Y-79843124D01*
X100259865Y-79844329D01*
X100267548Y-79846000D01*
X101214884Y-79846000D01*
X101230123Y-79841525D01*
X101231328Y-79840135D01*
X101232999Y-79832452D01*
X101232999Y-79802905D01*
X101232662Y-79796386D01*
X101222743Y-79700794D01*
X101219851Y-79687400D01*
X101168412Y-79533216D01*
X101162239Y-79520038D01*
X101076937Y-79382193D01*
X101067901Y-79370792D01*
X100953171Y-79256261D01*
X100941760Y-79247249D01*
X100803757Y-79162184D01*
X100790576Y-79156037D01*
X100636290Y-79104862D01*
X100622914Y-79101995D01*
X100528562Y-79092328D01*
X100522145Y-79092000D01*
X100272115Y-79092000D01*
X100256876Y-79096475D01*
X100255671Y-79097865D01*
X100254000Y-79105548D01*
X100254000Y-79827885D01*
X99746000Y-79827885D01*
X99746000Y-79110116D01*
X99741525Y-79094877D01*
X99740135Y-79093672D01*
X99732452Y-79092001D01*
X99477905Y-79092001D01*
X99471386Y-79092338D01*
X99375794Y-79102257D01*
X99362400Y-79105149D01*
X99208216Y-79156588D01*
X99195038Y-79162761D01*
X99057193Y-79248063D01*
X99045792Y-79257099D01*
X98931261Y-79371829D01*
X98922249Y-79383240D01*
X98837184Y-79521243D01*
X98831037Y-79534424D01*
X98779862Y-79688710D01*
X98776995Y-79702086D01*
X98767328Y-79796438D01*
X98767000Y-79802855D01*
X98767000Y-79827885D01*
X93704068Y-79827885D01*
X93692920Y-79615167D01*
X93692234Y-79608629D01*
X93632465Y-79231266D01*
X93631094Y-79224816D01*
X93532212Y-78855784D01*
X93530171Y-78849502D01*
X93393260Y-78492836D01*
X93390578Y-78486811D01*
X93217128Y-78146397D01*
X93213831Y-78140687D01*
X93005747Y-77820265D01*
X93001877Y-77814939D01*
X92808522Y-77576165D01*
X92796267Y-77567700D01*
X92785176Y-77574034D01*
X90372022Y-79987188D01*
X90364408Y-80001132D01*
X89634356Y-80001132D01*
X89635592Y-79998868D01*
X89635461Y-79997035D01*
X89631210Y-79990420D01*
X87215690Y-77574900D01*
X87202614Y-77567759D01*
X87192247Y-77575216D01*
X86998123Y-77814939D01*
X86994253Y-77820265D01*
X86786169Y-78140687D01*
X86782872Y-78146397D01*
X86609422Y-78486811D01*
X86606740Y-78492836D01*
X86469829Y-78849502D01*
X86467788Y-78855784D01*
X86368906Y-79224816D01*
X86367535Y-79231266D01*
X86307766Y-79608629D01*
X86307080Y-79615167D01*
X86287084Y-79996699D01*
X86287084Y-80003301D01*
X84513689Y-80003301D01*
X84513729Y-80000000D01*
X84513039Y-79995185D01*
X84513039Y-79995178D01*
X84511316Y-79983148D01*
X84510151Y-79960077D01*
X84514870Y-79846000D01*
X84525292Y-79594012D01*
X84527041Y-79551722D01*
X84527901Y-79541344D01*
X84575929Y-79156037D01*
X84582753Y-79101298D01*
X84584466Y-79091030D01*
X84608272Y-78977496D01*
X84675467Y-78657024D01*
X84678023Y-78646928D01*
X84804561Y-78221899D01*
X84807938Y-78212062D01*
X84969147Y-77798919D01*
X84973318Y-77789411D01*
X85078610Y-77574034D01*
X85168082Y-77391015D01*
X85173037Y-77381859D01*
X85279177Y-77203733D01*
X87567700Y-77203733D01*
X87574034Y-77214824D01*
X89987188Y-79627978D01*
X90001132Y-79635592D01*
X90002965Y-79635461D01*
X90009580Y-79631210D01*
X92425100Y-77215690D01*
X92431630Y-77203733D01*
X137567700Y-77203733D01*
X137574034Y-77214824D01*
X139987188Y-79627978D01*
X140001132Y-79635592D01*
X140002965Y-79635461D01*
X140009580Y-79631210D01*
X142425100Y-77215690D01*
X142432241Y-77202614D01*
X142424784Y-77192247D01*
X142185065Y-76998126D01*
X142179728Y-76994249D01*
X141859315Y-76786170D01*
X141853606Y-76782873D01*
X141513189Y-76609422D01*
X141507164Y-76606740D01*
X141150498Y-76469829D01*
X141144216Y-76467788D01*
X140775184Y-76368906D01*
X140768734Y-76367535D01*
X140391371Y-76307766D01*
X140384833Y-76307080D01*
X140003301Y-76287084D01*
X139996699Y-76287084D01*
X139615167Y-76307080D01*
X139608629Y-76307766D01*
X139231266Y-76367535D01*
X139224816Y-76368906D01*
X138855784Y-76467788D01*
X138849502Y-76469829D01*
X138492836Y-76606740D01*
X138486811Y-76609422D01*
X138146397Y-76782872D01*
X138140687Y-76786169D01*
X137820265Y-76994253D01*
X137814939Y-76998123D01*
X137576165Y-77191478D01*
X137567700Y-77203733D01*
X92431630Y-77203733D01*
X92432241Y-77202614D01*
X92424784Y-77192247D01*
X92185065Y-76998126D01*
X92179728Y-76994249D01*
X91859315Y-76786170D01*
X91853606Y-76782873D01*
X91513189Y-76609422D01*
X91507164Y-76606740D01*
X91150498Y-76469829D01*
X91144216Y-76467788D01*
X90775184Y-76368906D01*
X90768734Y-76367535D01*
X90391371Y-76307766D01*
X90384833Y-76307080D01*
X90003301Y-76287084D01*
X89996699Y-76287084D01*
X89615167Y-76307080D01*
X89608629Y-76307766D01*
X89231266Y-76367535D01*
X89224816Y-76368906D01*
X88855784Y-76467788D01*
X88849502Y-76469829D01*
X88492836Y-76606740D01*
X88486811Y-76609422D01*
X88146397Y-76782872D01*
X88140687Y-76786169D01*
X87820265Y-76994253D01*
X87814939Y-76998123D01*
X87576165Y-77191478D01*
X87567700Y-77203733D01*
X85279177Y-77203733D01*
X85400030Y-77000915D01*
X85405726Y-76992196D01*
X85663405Y-76631295D01*
X85669801Y-76623077D01*
X85956413Y-76284674D01*
X85963467Y-76277013D01*
X86277013Y-75963467D01*
X86284674Y-75956413D01*
X86623077Y-75669801D01*
X86631295Y-75663405D01*
X86992196Y-75405726D01*
X87000915Y-75400030D01*
X87381859Y-75173037D01*
X87391017Y-75168081D01*
X87789419Y-74973314D01*
X87798919Y-74969147D01*
X88212062Y-74807938D01*
X88221899Y-74804561D01*
X88646928Y-74678023D01*
X88657024Y-74675467D01*
X88927946Y-74618661D01*
X89091033Y-74584465D01*
X89101298Y-74582753D01*
X89265326Y-74562307D01*
X89541344Y-74527901D01*
X89551722Y-74527041D01*
X89729324Y-74519695D01*
X89956339Y-74510306D01*
X89980920Y-74511698D01*
X89993724Y-74513691D01*
X90002626Y-74512527D01*
X90002628Y-74512527D01*
X90019610Y-74510306D01*
X90025286Y-74509564D01*
X90041621Y-74508500D01*
X139950633Y-74508500D01*
X139970018Y-74510000D01*
G37*
%TD.AperFunction*%
%TA.AperFunction,Conductor*%
G36*
X106297466Y-97932242D02*
G01*
X106358798Y-97936047D01*
X106371760Y-97933820D01*
X106393096Y-97932000D01*
X107761500Y-97932000D01*
X107829621Y-97952002D01*
X107876114Y-98005658D01*
X107887500Y-98058000D01*
X107887500Y-98068385D01*
X107891975Y-98083624D01*
X107893365Y-98084829D01*
X107901048Y-98086500D01*
X110335384Y-98086500D01*
X110350623Y-98082025D01*
X110351828Y-98080635D01*
X110353499Y-98072952D01*
X110353499Y-98058000D01*
X110373501Y-97989879D01*
X110427157Y-97943386D01*
X110479499Y-97932000D01*
X110900410Y-97932000D01*
X110968531Y-97952002D01*
X110998914Y-97979518D01*
X111002522Y-97985348D01*
X111127697Y-98110305D01*
X111133927Y-98114145D01*
X111133928Y-98114146D01*
X111257616Y-98190389D01*
X111305110Y-98243162D01*
X111317500Y-98297649D01*
X111317500Y-99413930D01*
X111316067Y-99432880D01*
X111312801Y-99454349D01*
X111313394Y-99461641D01*
X111313394Y-99461644D01*
X111317085Y-99507018D01*
X111317500Y-99517233D01*
X111317500Y-99525293D01*
X111319049Y-99538583D01*
X111320789Y-99553507D01*
X111321222Y-99557882D01*
X111325452Y-99609880D01*
X111327140Y-99630637D01*
X111329396Y-99637601D01*
X111330587Y-99643560D01*
X111331971Y-99649415D01*
X111332818Y-99656681D01*
X111357735Y-99725327D01*
X111359152Y-99729455D01*
X111369374Y-99761007D01*
X111381649Y-99798899D01*
X111385445Y-99805154D01*
X111387951Y-99810628D01*
X111390670Y-99816058D01*
X111393167Y-99822937D01*
X111397180Y-99829057D01*
X111397180Y-99829058D01*
X111433186Y-99883976D01*
X111435523Y-99887680D01*
X111473405Y-99950107D01*
X111477121Y-99954315D01*
X111477122Y-99954316D01*
X111480803Y-99958484D01*
X111480776Y-99958508D01*
X111483429Y-99961500D01*
X111486132Y-99964733D01*
X111490144Y-99970852D01*
X111495456Y-99975884D01*
X111546383Y-100024128D01*
X111548825Y-100026506D01*
X111877595Y-100355276D01*
X111911621Y-100417588D01*
X111914500Y-100444371D01*
X111914501Y-100604843D01*
X111914501Y-100766978D01*
X111914695Y-100769443D01*
X111916169Y-100788176D01*
X111917326Y-100802889D01*
X111919120Y-100809063D01*
X111919121Y-100809070D01*
X111957988Y-100942847D01*
X111957988Y-101013154D01*
X111918300Y-101149758D01*
X111880087Y-101209593D01*
X111815590Y-101239270D01*
X111745288Y-101229366D01*
X111708208Y-101203699D01*
X110512404Y-100007895D01*
X110504414Y-99999115D01*
X110504412Y-99999113D01*
X110500165Y-99992420D01*
X110467239Y-99961500D01*
X110448492Y-99943896D01*
X110445650Y-99941141D01*
X110425082Y-99920573D01*
X110421575Y-99917853D01*
X110412553Y-99910147D01*
X110388644Y-99887695D01*
X110378882Y-99878528D01*
X110368430Y-99872782D01*
X110360494Y-99868419D01*
X110310436Y-99818073D01*
X110301673Y-99797882D01*
X110289370Y-99761007D01*
X110289369Y-99761005D01*
X110287050Y-99754054D01*
X110193978Y-99603652D01*
X110068803Y-99478695D01*
X110064265Y-99475898D01*
X110023676Y-99418647D01*
X110020446Y-99347724D01*
X110056072Y-99286313D01*
X110064568Y-99278938D01*
X110074707Y-99270902D01*
X110189239Y-99156171D01*
X110198251Y-99144760D01*
X110283316Y-99006757D01*
X110289463Y-98993576D01*
X110340638Y-98839290D01*
X110343505Y-98825914D01*
X110353172Y-98731562D01*
X110353500Y-98725146D01*
X110353500Y-98612615D01*
X110349025Y-98597376D01*
X110347635Y-98596171D01*
X110339952Y-98594500D01*
X107905616Y-98594500D01*
X107890377Y-98598975D01*
X107889172Y-98600365D01*
X107887501Y-98608048D01*
X107887501Y-98725095D01*
X107887838Y-98731614D01*
X107897757Y-98827206D01*
X107900649Y-98840600D01*
X107952088Y-98994784D01*
X107958261Y-99007962D01*
X108043563Y-99145807D01*
X108052599Y-99157208D01*
X108167328Y-99271738D01*
X108176262Y-99278794D01*
X108217323Y-99336712D01*
X108220553Y-99407635D01*
X108184926Y-99469046D01*
X108177093Y-99475846D01*
X108171152Y-99479522D01*
X108165979Y-99484704D01*
X108118144Y-99532622D01*
X108046195Y-99604697D01*
X108042355Y-99610927D01*
X108042354Y-99610928D01*
X107969761Y-99728696D01*
X107953385Y-99755262D01*
X107931141Y-99822326D01*
X107900664Y-99914213D01*
X107897703Y-99923139D01*
X107897003Y-99929975D01*
X107897002Y-99929978D01*
X107893715Y-99962062D01*
X107887000Y-100027600D01*
X107887000Y-100803400D01*
X107887337Y-100806646D01*
X107887337Y-100806650D01*
X107893406Y-100865138D01*
X107897974Y-100909166D01*
X107900155Y-100915702D01*
X107900155Y-100915704D01*
X107944228Y-101047806D01*
X107953950Y-101076946D01*
X108047022Y-101227348D01*
X108172197Y-101352305D01*
X108178427Y-101356145D01*
X108178428Y-101356146D01*
X108298527Y-101430176D01*
X108322762Y-101445115D01*
X108402505Y-101471564D01*
X108484111Y-101498632D01*
X108484113Y-101498632D01*
X108490639Y-101500797D01*
X108497475Y-101501497D01*
X108497478Y-101501498D01*
X108540531Y-101505909D01*
X108595100Y-101511500D01*
X109645900Y-101511500D01*
X109649146Y-101511163D01*
X109649150Y-101511163D01*
X109744808Y-101501238D01*
X109744812Y-101501237D01*
X109751666Y-101500526D01*
X109758202Y-101498345D01*
X109758204Y-101498345D01*
X109899427Y-101451229D01*
X109919446Y-101444550D01*
X109937822Y-101433179D01*
X110006273Y-101414342D01*
X110074042Y-101435504D01*
X110093218Y-101451229D01*
X110891964Y-102249974D01*
X111546395Y-102904405D01*
X111580420Y-102966717D01*
X111575356Y-103037532D01*
X111532809Y-103094368D01*
X111466289Y-103119179D01*
X111457300Y-103119500D01*
X110744371Y-103119500D01*
X110676250Y-103099498D01*
X110655276Y-103082595D01*
X110580531Y-103007850D01*
X110572963Y-102999577D01*
X110571868Y-102998268D01*
X110567856Y-102992148D01*
X110511617Y-102938872D01*
X110509175Y-102936494D01*
X110418770Y-102846089D01*
X110406384Y-102831677D01*
X110397851Y-102820082D01*
X110397846Y-102820077D01*
X110393508Y-102814182D01*
X110387930Y-102809443D01*
X110387927Y-102809440D01*
X110353232Y-102779965D01*
X110345716Y-102773035D01*
X110340021Y-102767340D01*
X110322036Y-102753111D01*
X110317749Y-102749719D01*
X110314345Y-102746928D01*
X110264297Y-102704409D01*
X110264295Y-102704408D01*
X110258715Y-102699667D01*
X110252199Y-102696339D01*
X110247150Y-102692972D01*
X110242021Y-102689805D01*
X110236284Y-102685266D01*
X110170125Y-102654345D01*
X110166225Y-102652439D01*
X110101192Y-102619231D01*
X110094084Y-102617492D01*
X110088441Y-102615393D01*
X110082678Y-102613476D01*
X110076050Y-102610378D01*
X110004583Y-102595513D01*
X110000299Y-102594543D01*
X109929390Y-102577192D01*
X109923788Y-102576844D01*
X109923785Y-102576844D01*
X109918236Y-102576500D01*
X109918238Y-102576464D01*
X109914245Y-102576225D01*
X109910053Y-102575851D01*
X109902885Y-102574360D01*
X109842225Y-102576001D01*
X109825479Y-102576454D01*
X109822072Y-102576500D01*
X109322941Y-102576500D01*
X109311740Y-102576001D01*
X109310050Y-102575850D01*
X109302885Y-102574360D01*
X109231767Y-102576284D01*
X109225479Y-102576454D01*
X109222072Y-102576500D01*
X109125590Y-102576500D01*
X109057469Y-102556498D01*
X109027086Y-102528982D01*
X109023478Y-102523152D01*
X109004811Y-102504517D01*
X108903483Y-102403366D01*
X108898303Y-102398195D01*
X108883175Y-102388870D01*
X108753968Y-102309225D01*
X108753966Y-102309224D01*
X108747738Y-102305385D01*
X108587254Y-102252155D01*
X108586389Y-102251868D01*
X108586387Y-102251868D01*
X108579861Y-102249703D01*
X108573025Y-102249003D01*
X108573022Y-102249002D01*
X108529969Y-102244591D01*
X108475400Y-102239000D01*
X107424600Y-102239000D01*
X107421354Y-102239337D01*
X107421350Y-102239337D01*
X107325692Y-102249262D01*
X107325688Y-102249263D01*
X107318834Y-102249974D01*
X107312298Y-102252155D01*
X107312296Y-102252155D01*
X107196209Y-102290885D01*
X107151054Y-102305950D01*
X107000652Y-102399022D01*
X106935116Y-102464673D01*
X106930279Y-102469518D01*
X106867997Y-102503597D01*
X106841106Y-102506500D01*
X105125590Y-102506500D01*
X105057469Y-102486498D01*
X105027086Y-102458982D01*
X105023478Y-102453152D01*
X104898303Y-102328195D01*
X104862215Y-102305950D01*
X104753968Y-102239225D01*
X104753966Y-102239224D01*
X104747738Y-102235385D01*
X104587254Y-102182155D01*
X104586389Y-102181868D01*
X104586387Y-102181868D01*
X104579861Y-102179703D01*
X104573025Y-102179003D01*
X104573022Y-102179002D01*
X104529969Y-102174591D01*
X104475400Y-102169000D01*
X103424600Y-102169000D01*
X103421354Y-102169337D01*
X103421350Y-102169337D01*
X103325692Y-102179262D01*
X103325688Y-102179263D01*
X103318834Y-102179974D01*
X103312298Y-102182155D01*
X103312296Y-102182155D01*
X103239488Y-102206446D01*
X103151054Y-102235950D01*
X103000652Y-102329022D01*
X102875695Y-102454197D01*
X102875148Y-102455084D01*
X102819336Y-102494655D01*
X102778371Y-102501500D01*
X100943441Y-102501500D01*
X100875320Y-102481498D01*
X100854424Y-102464673D01*
X100778488Y-102388870D01*
X100778483Y-102388866D01*
X100773303Y-102383695D01*
X100691655Y-102333366D01*
X100628968Y-102294725D01*
X100628966Y-102294724D01*
X100622738Y-102290885D01*
X100505105Y-102251868D01*
X100461389Y-102237368D01*
X100461387Y-102237368D01*
X100454861Y-102235203D01*
X100448025Y-102234503D01*
X100448022Y-102234502D01*
X100436171Y-102233288D01*
X100370444Y-102206446D01*
X100329663Y-102148331D01*
X100326775Y-102077393D01*
X100362697Y-102016155D01*
X100426025Y-101984059D01*
X100436013Y-101982617D01*
X100449307Y-101981238D01*
X100449310Y-101981237D01*
X100456166Y-101980526D01*
X100462702Y-101978345D01*
X100462704Y-101978345D01*
X100610635Y-101928991D01*
X100623946Y-101924550D01*
X100774348Y-101831478D01*
X100899305Y-101706303D01*
X100948897Y-101625850D01*
X100988275Y-101561968D01*
X100988276Y-101561966D01*
X100992115Y-101555738D01*
X101028994Y-101444550D01*
X101045632Y-101394389D01*
X101045632Y-101394387D01*
X101047797Y-101387861D01*
X101051047Y-101356146D01*
X101052909Y-101337969D01*
X101058500Y-101283400D01*
X101058500Y-100632600D01*
X101057819Y-100626037D01*
X101048238Y-100533692D01*
X101048237Y-100533688D01*
X101047526Y-100526834D01*
X101031017Y-100477349D01*
X100993868Y-100366002D01*
X100991550Y-100359054D01*
X100898478Y-100208652D01*
X100773303Y-100083695D01*
X100767072Y-100079854D01*
X100761327Y-100075317D01*
X100762377Y-100073987D01*
X100720892Y-100027893D01*
X100708500Y-99973403D01*
X100708500Y-99044371D01*
X100728502Y-98976250D01*
X100745405Y-98955276D01*
X101731776Y-97968905D01*
X101794088Y-97934879D01*
X101820871Y-97932000D01*
X106289665Y-97932000D01*
X106297466Y-97932242D01*
G37*
%TD.AperFunction*%
%TD*%
M02*
